<?xml version="1.0" encoding="utf-8"?>
<!-- Generator: Adobe Illustrator 26.5.0, SVG Export Plug-In . SVG Version: 6.00 Build 0)  -->
<svg version="1.1" id="Layer_1" xmlns="http://www.w3.org/2000/svg" xmlns:xlink="http://www.w3.org/1999/xlink" x="0px" y="0px"
	 viewBox="0 0 512 512" style="enable-background:new 0 0 512 512;" xml:space="preserve">
<style type="text/css">
	.st0{fill:#FFFFFF;}
	.st1{fill:#88CAEF;}
	.st2{fill:#ED1C24;}
</style>
<g id="XMLID_1_">
	<path id="XMLID_3_" class="st0" d="M256.22,504.16L256.22,504.16c-25.68-0.7-49.39-7.58-70.71-20.34
		c-7.16-4.35-13.19-8.7-18.52-13.33l-3.79-3.37l-28.48-0.7c-0.28,0-0.42-0.14-0.56-0.28c-0.14-0.28-0.14-0.42,0-0.7l25.11-58.23
		c-12.07-7.86-24.69-18.94-37.6-32.97c-4.63-5.33-9.26-10.8-13.75-16.42l-58.37,29.74c-0.28,0.14-0.56,0.14-0.7,0
		c-0.28-0.14-0.42-0.42-0.42-0.7v-28.9c-15.15-16.14-26.38-34.09-33.25-53.04c-2.24-6.31-3.93-12.35-5.05-18.52
		c-0.56-2.53-0.84-4.91-0.98-7.3c-3.37-30.31,2.67-58.93,17.96-85.31c5.05-8.84,10.66-16.56,16.42-23.15l4.77-5.33v-27.64
		c0-0.28,0.14-0.42,0.28-0.56c0.14-0.14,0.42-0.14,0.7-0.14l59.77,24.97c15.01-19.5,30.73-35.78,46.44-48.41l-26.38-61.59
		c-0.14-0.28-0.14-0.42,0-0.7c0.14-0.28,0.28-0.28,0.56-0.42l29.04-1.68c15.57-16.7,36.2-28.48,61.45-34.94
		c12.35-3.23,24.27-4.77,35.36-4.77c11.22,0,23.15,1.54,35.36,4.77c25.11,6.45,45.74,18.1,61.17,34.94l29.18,1.68
		c0.28,0,0.42,0.14,0.56,0.42c0.14,0.28,0.14,0.42,0,0.7l-26.38,61.59c15.71,12.77,31.43,29.04,46.44,48.41l59.63-24.97
		c0.28-0.14,0.42-0.14,0.7,0.14c0.14,0.14,0.28,0.42,0.28,0.56v27.64c1.4,1.4,2.95,3.09,4.49,4.77l0.42,0.42
		c6.03,7.02,11.65,14.87,16.42,23.15c15.43,26.66,21.33,55.28,17.82,85.31c-0.14,2.1-0.42,4.35-0.84,7.3
		c-1.26,6.87-2.95,12.91-5.05,18.66c-7.02,19.08-18.24,36.9-33.39,53.04v28.9c0,0.28-0.14,0.56-0.42,0.7c-0.28,0.14-0.56,0.14-0.7,0
		l-58.37-29.74c-4.35,5.61-8.84,11.08-13.75,16.42c-12.49,13.89-25.11,24.97-37.6,32.97l25.25,58.23c0.14,0.28,0.14,0.56,0,0.7
		c-0.14,0.28-0.42,0.28-0.56,0.28l-28.62,0.7l-3.65,3.37c-5.89,5.19-12.07,9.54-18.38,13.19
		C305.33,496.72,282.32,503.46,256.22,504.16L256.22,504.16z"/>
	<path id="XMLID_4_" class="st1" d="M256.64,334.25c-20.2,0-37.74-7.3-52.05-21.89c-7.58-7.72-13.19-16.42-16.7-25.82
		c-0.42-1.26,0.42-1.96,1.68-2.39c1.26-0.42,2.39-0.56,2.81,0.7c3.37,8.7,8.56,16.84,15.71,24.13
		c13.61,13.75,29.46,20.48,48.69,20.48c18.94,0,35.36-6.87,48.69-20.48c7.02-7.16,12.35-15.29,15.57-23.99
		c0.42-1.26,1.68-1.26,2.81-0.7c1.26,0.42,2.1,1.26,1.54,2.53c-3.51,9.26-9.12,17.96-16.7,25.68
		C294.38,326.95,276.85,334.25,256.64,334.25z"/>
	<polygon id="XMLID_5_" class="st2" points="148.05,218.64 148.89,215.83 119,205.87 118.16,208.96 131.49,213.17 128.54,222.71 
		114.93,218.22 113.95,221.16 143.98,231.13 144.96,228.18 131.35,223.69 134.44,214.29 	"/>
	<path id="XMLID_8_" class="st2" d="M143.98,231.83h-0.28l-30.03-9.96c-0.14,0-0.28-0.14-0.42-0.42c-0.14-0.14-0.14-0.42,0-0.56
		l0.98-2.95c0.14-0.42,0.56-0.56,0.98-0.42l12.77,4.21l2.53-8l-12.63-4.07c-0.42-0.14-0.56-0.56-0.56-0.98l0.84-3.09
		c0-0.14,0.14-0.42,0.42-0.42c0.14-0.14,0.42-0.14,0.56,0l30.03,9.96c0.42,0.14,0.56,0.56,0.42,0.98l-0.84,2.95
		c0,0.14-0.14,0.42-0.42,0.42c-0.14,0.14-0.42,0.14-0.56,0l-12.91-4.21l-2.67,8.14l12.91,4.21c0.14,0,0.28,0.14,0.42,0.42
		c0.14,0.14,0.14,0.42,0,0.56l-0.98,2.95C144.54,231.69,144.26,231.83,143.98,231.83z M114.93,220.74l28.62,9.54l0.56-1.4
		l-12.91-4.21c-0.14,0-0.28-0.14-0.42-0.42c-0.14-0.14-0.14-0.42,0-0.56l3.09-9.54c0.14-0.42,0.56-0.56,0.98-0.42l12.91,4.21
		l0.42-1.4l-28.48-9.4l-0.42,1.54l12.63,4.07c0.42,0.14,0.56,0.56,0.42,0.98l-2.95,9.54c0,0.14-0.14,0.42-0.42,0.42
		c-0.14,0.14-0.42,0.14-0.56,0l-12.77-4.21L114.93,220.74z"/>
	<path id="XMLID_11_" class="st2" d="M129.95,183.28l-7.44,14.17l27.78,15.15l7.44-14.31L129.95,183.28z M149.03,208.4l-22.59-12.21
		l4.63-8.7l22.59,12.07L149.03,208.4z"/>
	<path id="XMLID_16_" class="st2" d="M150.29,213.31c-0.14,0-0.28,0-0.42-0.14l-27.78-15.15c-0.42-0.14-0.56-0.7-0.28-0.98
		l7.44-14.17c0.14-0.42,0.7-0.56,0.98-0.28l27.78,15.01c0.42,0.14,0.56,0.7,0.28,0.98l-7.44,14.31c-0.14,0.14-0.28,0.28-0.42,0.42
		L150.29,213.31z M123.49,197.03l26.52,14.45l6.73-12.91l-26.52-14.31L123.49,197.03z M149.03,209.1c-0.14,0-0.28,0-0.42-0.14
		l-22.59-12.21c-0.14-0.14-0.28-0.28-0.42-0.42c0-0.14,0-0.42,0-0.56l4.63-8.7c0.14-0.42,0.7-0.56,0.98-0.28l22.59,12.07
		c0.14,0.14,0.28,0.28,0.42,0.42c0,0.14,0,0.42,0,0.56l-4.63,8.84C149.59,208.96,149.31,209.1,149.03,209.1z M127.56,195.77
		l21.33,11.5l3.93-7.44l-21.33-11.36L127.56,195.77z"/>
	<polygon id="XMLID_17_" class="st2" points="159.55,195.35 168.95,182.58 166.71,180.62 158.85,191 136.12,173.6 134.3,175.99 	"/>
	<path id="XMLID_20_" class="st2" d="M159.55,196.05c-0.14,0-0.28,0-0.42-0.14l-25.25-19.36c-0.14-0.14-0.28-0.28-0.28-0.56
		c0-0.14,0-0.42,0.14-0.56l1.82-2.39c0.28-0.28,0.7-0.42,0.98-0.14l22.17,16.98l7.3-9.82c0.14-0.14,0.28-0.28,0.56-0.28
		c0.14,0,0.42,0,0.56,0.14l2.24,1.82c0.28,0.28,0.42,0.7,0.14,0.98l-9.4,12.77C160.11,195.91,159.83,196.05,159.55,196.05
		L159.55,196.05z M135.42,175.85l24.13,18.38l8.56-11.65l-1.12-0.98l-7.3,9.82c-0.28,0.28-0.7,0.42-0.98,0.14l-22.45-16.98
		L135.42,175.85z"/>
	<polygon id="XMLID_21_" class="st2" points="154.36,151.71 156.32,161.67 146.36,159.99 144.12,162.52 157.31,164.9 172.04,179.49 
		174.28,177.39 159.41,162.8 156.61,149.19 	"/>
	<path id="XMLID_24_" class="st2" d="M172.04,180.2c-0.14,0-0.42-0.14-0.56-0.28l-14.59-14.45l-13.05-2.39
		c-0.28,0-0.42-0.28-0.56-0.56c-0.14-0.28,0-0.56,0.14-0.7l2.24-2.39c0.14-0.14,0.42-0.28,0.7-0.28l8.84,1.4l-1.82-8.84
		c0-0.28,0-0.42,0.14-0.7l2.24-2.39c0.14-0.14,0.42-0.28,0.7-0.14c0.28,0.14,0.42,0.28,0.56,0.56l2.81,13.33l14.59,14.45
		c0.14,0.14,0.28,0.28,0.28,0.56c0,0.14-0.14,0.42-0.28,0.56l-2.1,2.1C172.46,180.2,172.32,180.2,172.04,180.2z M145.66,161.96
		l11.93,2.24c0.14,0,0.28,0.14,0.42,0.14l14.31,14.03l1.12-1.12l-14.17-14.03c-0.14-0.14-0.14-0.28-0.14-0.42l-2.53-12.07
		l-0.98,1.12l1.96,9.54c0,0.28,0,0.56-0.14,0.7c-0.14,0.14-0.42,0.28-0.7,0.28l-9.54-1.54L145.66,161.96z"/>
	<polygon id="XMLID_25_" class="st2" points="187.61,165.32 190,163.64 173.72,139.93 178.91,136.14 177.23,133.61 164.32,142.87 
		166.01,145.4 171.2,141.61 	"/>
	<path id="XMLID_28_" class="st2" d="M187.61,166.16L187.61,166.16c-0.28,0-0.56-0.14-0.56-0.28l-15.85-23.15l-4.63,3.37
		c-0.28,0.28-0.84,0.14-0.98-0.14l-1.68-2.39c-0.14-0.14-0.14-0.42-0.14-0.56c0-0.14,0.14-0.42,0.28-0.42l12.91-9.26
		c0.28-0.28,0.84-0.14,0.98,0.14l1.68,2.39c0.14,0.14,0.14,0.42,0.14,0.56c0,0.14-0.14,0.42-0.28,0.42l-4.63,3.37l15.85,23.15
		c0.28,0.28,0.14,0.84-0.14,0.98l-2.39,1.68C187.89,166.02,187.75,166.16,187.61,166.16z M171.2,140.91L171.2,140.91
		c0.28,0,0.56,0.14,0.56,0.28l15.85,23.15l1.26-0.84l-15.85-23.15c-0.28-0.28-0.14-0.84,0.14-1.12l4.63-3.37l-0.84-1.26l-11.65,8.42
		l0.84,1.26l4.63-3.37C170.92,140.91,171.06,140.91,171.2,140.91z"/>
	<path id="XMLID_31_" class="st2" d="M196.73,123.23l-14.17,6.87l13.89,28.76l2.67-1.26l-7.02-14.45l1.4-0.7l14.03,10.94l2.95-1.54
		l-13.89-10.94l6.87-3.37L196.73,123.23z M186.63,131.65l8.7-4.35l4.35,8.98l-8.84,4.35L186.63,131.65z"/>
	<path id="XMLID_34_" class="st2" d="M190.84,141.33c-0.28,0-0.56-0.14-0.7-0.42l-4.21-8.98c-0.14-0.42,0-0.84,0.28-0.98l8.7-4.35
		c0.42-0.14,0.84,0,0.98,0.28l4.35,8.98c0.14,0.14,0.14,0.42,0,0.56c0,0.14-0.14,0.28-0.42,0.42l-8.84,4.35L190.84,141.33z
		 M187.61,132.07l3.65,7.58l7.44-3.65l-3.79-7.58L187.61,132.07z"/>
	<path id="XMLID_37_" class="st2" d="M196.31,159.85c-0.28,0-0.56-0.14-0.7-0.42l-13.89-28.76c-0.14-0.14-0.14-0.42,0-0.56
		c0-0.14,0.14-0.28,0.42-0.42l14.17-6.87c0.42-0.14,0.84,0,0.98,0.42l6.87,14.45c0.14,0.14,0.14,0.42,0,0.56
		c0,0.14-0.14,0.28-0.42,0.42l-5.75,2.81l12.91,10.24c0.14,0.14,0.28,0.42,0.28,0.7s-0.14,0.42-0.42,0.56l-2.95,1.54
		c-0.28,0.14-0.56,0.14-0.84-0.14l-13.75-10.66l-0.28,0.14l6.59,13.75c0.14,0.14,0.14,0.42,0,0.56c0,0.14-0.14,0.28-0.42,0.42
		l-2.67,1.26H196.31z M183.4,130.53l13.33,27.5l1.4-0.7l-6.73-13.61c-0.14-0.42,0-0.84,0.28-0.98l1.4-0.7
		c0.28-0.14,0.56-0.14,0.84,0.14l13.75,10.66l1.54-0.84l-13.05-10.24c-0.14-0.14-0.28-0.42-0.28-0.7c0-0.28,0.14-0.42,0.42-0.56
		l6.17-2.95l-6.17-13.05L183.4,130.53z"/>
	<polygon id="XMLID_38_" class="st2" points="204.73,120 201.92,120.99 213.29,151.01 215.95,149.75 	"/>
	<path id="XMLID_41_" class="st2" d="M213.29,151.71h-0.28c-0.14-0.14-0.28-0.28-0.42-0.42l-11.36-30.03c-0.14-0.14,0-0.42,0-0.56
		c0.14-0.14,0.28-0.28,0.42-0.42l2.81-0.98c0.42-0.14,0.84,0,0.98,0.42l11.22,29.88c0.14,0.42,0,0.84-0.42,0.98l-2.67,1.12
		L213.29,151.71z M202.91,121.41l10.8,28.48l1.26-0.56l-10.66-28.48L202.91,121.41z"/>
	<polygon id="XMLID_42_" class="st2" points="213.57,117.06 213.43,116.78 210.62,117.62 218.76,148.63 221.71,147.78 
		215.95,126.32 229.14,145.68 232.09,144.98 223.95,113.97 221.15,114.67 226.76,136.42 	"/>
	<path id="XMLID_45_" class="st2" d="M218.76,149.47c-0.14,0-0.28,0-0.42-0.14c-0.14-0.14-0.28-0.28-0.42-0.42l-8.28-31.01
		c-0.14-0.42,0.14-0.84,0.56-0.98l2.81-0.84c0.28-0.14,0.7,0,0.84,0.42l0.14,0.28l10.8,15.71l-4.63-17.54c0-0.14,0-0.42,0.14-0.56
		c0.14-0.14,0.28-0.28,0.42-0.28l2.81-0.7c0.42-0.14,0.84,0.14,0.84,0.56l8.14,31.01c0,0.14,0,0.42-0.14,0.56
		c-0.14,0.14-0.28,0.28-0.42,0.28l-2.81,0.7c-0.28,0.14-0.56,0-0.84-0.28l-10.8-15.71l4.63,17.26c0.14,0.42-0.14,0.84-0.56,0.98
		l-2.81,0.84L218.76,149.47z M211.46,118.18l7.86,29.46l1.4-0.42l-5.47-20.77c-0.14-0.42,0.14-0.7,0.42-0.84s0.7,0,0.98,0.28
		l12.91,18.94l1.54-0.42l-7.72-29.46l-1.4,0.42l5.47,21.05c0.14,0.42-0.14,0.7-0.42,0.84c-0.28,0.14-0.7,0-0.98-0.28l-13.05-19.08
		L211.46,118.18z"/>
	<polygon id="XMLID_46_" class="st2" points="233.07,112.29 230.13,112.85 235.04,144.42 237.98,144 	"/>
	<path id="XMLID_49_" class="st2" d="M235.04,145.26c-0.42,0-0.7-0.28-0.7-0.7l-4.77-31.71c0-0.14,0-0.42,0.14-0.56
		c0.14-0.14,0.28-0.28,0.42-0.28l2.81-0.42c0.42,0,0.84,0.28,0.84,0.56l4.91,31.71c0,0.14,0,0.42-0.14,0.56
		c-0.14,0.14-0.28,0.28-0.56,0.28L235.04,145.26L235.04,145.26z M231.11,113.41l4.63,30.17l1.54-0.28l-4.77-30.17L231.11,113.41z"/>
	<polygon id="XMLID_50_" class="st2" points="254.4,110.18 238.54,111.31 238.82,114.39 245.28,113.97 247.24,142.87 250.19,142.59 
		248.22,113.69 254.68,113.27 	"/>
	<path id="XMLID_53_" class="st2" d="M247.24,143.72c-0.14,0-0.28,0-0.42-0.14c-0.14-0.14-0.28-0.28-0.28-0.56l-1.96-28.2
		l-5.61,0.42c-0.42,0-0.7-0.28-0.84-0.7l-0.28-3.09c0-0.14,0-0.42,0.14-0.56c0.14-0.14,0.28-0.28,0.56-0.28l15.71-1.12
		c0.42,0,0.7,0.28,0.84,0.7l0.28,3.09c0,0.14,0,0.42-0.14,0.56c-0.14,0.14-0.28,0.28-0.56,0.28l-5.61,0.42l1.96,28.2
		c0,0.42-0.28,0.7-0.7,0.84L247.24,143.72L247.24,143.72z M245.28,113.13c0.42,0,0.7,0.28,0.7,0.7l1.96,28.2l1.54-0.14l-1.96-28.2
		c0-0.14,0-0.42,0.14-0.56c0.14-0.14,0.28-0.28,0.56-0.28l5.61-0.42l-0.14-1.54l-14.31,0.98l0.14,1.54L245.28,113.13L245.28,113.13z
		"/>
	<polygon id="XMLID_54_" class="st2" points="259.31,109.9 265.9,121.83 263.94,142.73 267.03,143.01 268.85,122.25 277.41,111.45 
		273.9,111.17 267.73,119.02 262.68,110.18 	"/>
	<path id="XMLID_57_" class="st2" d="M267.03,143.86L267.03,143.86l-3.09-0.28c-0.42,0-0.7-0.42-0.7-0.84l1.82-20.62l-6.45-11.79
		c-0.14-0.28-0.14-0.56,0-0.84c0.14-0.28,0.42-0.42,0.7-0.28l3.37,0.28c0.28,0,0.42,0.14,0.56,0.42l4.49,7.86l5.61-6.87
		c0.14-0.14,0.42-0.28,0.7-0.28l3.37,0.28c0.28,0,0.56,0.14,0.56,0.42c0.14,0.28,0,0.56-0.14,0.84l-8.42,10.66l-1.82,20.48
		c0,0.14-0.14,0.42-0.28,0.56C267.31,143.72,267.17,143.86,267.03,143.86z M264.78,142.03l1.54,0.14l1.82-20.06
		c0-0.14,0-0.28,0.14-0.42l7.72-9.68l-1.68-0.14l-6.03,7.44c-0.14,0.14-0.42,0.28-0.7,0.28c-0.28,0-0.42-0.14-0.56-0.42l-4.77-8.42
		l-1.68-0.14l5.89,10.66c0.14,0.14,0.14,0.28,0.14,0.42L264.78,142.03z"/>
	<polygon id="XMLID_58_" class="st2" points="302.24,127.72 304.91,118.88 289.75,114.11 280.63,144.84 295.65,149.33 
		297.89,141.75 295.09,140.91 293.68,145.68 284.28,142.73 291.72,117.9 301.12,120.85 299.44,126.88 	"/>
	<path id="XMLID_61_" class="st2" d="M295.65,150.17h-0.28l-15.01-4.63c-0.42-0.14-0.56-0.56-0.56-0.98l9.12-30.73
		c0-0.14,0.14-0.42,0.42-0.42c0.14-0.14,0.42-0.14,0.56,0l15.15,4.77c0.42,0.14,0.56,0.56,0.56,0.98l-2.67,8.98
		c-0.14,0.42-0.56,0.56-0.98,0.56l-2.81-0.84c-0.42-0.14-0.56-0.56-0.56-0.98l1.54-5.33l-8-2.39l-7.02,23.29l8,2.39l1.26-4.07
		c0.14-0.42,0.56-0.56,0.98-0.56l2.81,0.84c0.14,0,0.28,0.14,0.42,0.42c0.14,0.14,0.14,0.42,0,0.56l-2.24,7.58
		C296.35,149.89,295.93,150.17,295.65,150.17z M281.48,144.28l13.61,4.21l1.82-6.17l-1.4-0.42l-1.26,4.07
		c-0.14,0.42-0.56,0.56-0.98,0.56l-9.4-2.95c-0.42-0.14-0.56-0.56-0.56-0.98l7.44-24.83c0-0.14,0.14-0.42,0.42-0.42
		c0.14-0.14,0.42-0.14,0.56,0l9.4,2.95c0.42,0.14,0.56,0.56,0.56,0.98l-1.54,5.33l1.4,0.42l2.24-7.44l-13.75-4.35L281.48,144.28z"/>
	<path id="XMLID_64_" class="st2" d="M312.76,121.55l-13.75,28.76l14.17,7.02l13.75-28.76L312.76,121.55z M311.78,153.4l-8.84-4.35
		l11.22-23.29l8.84,4.35L311.78,153.4z"/>
	<path id="XMLID_69_" class="st2" d="M313.19,158.17l-0.28-0.14l-14.17-7.02c-0.42-0.14-0.56-0.7-0.28-0.98l13.61-28.76
		c0.14-0.14,0.28-0.28,0.42-0.42c0.14,0,0.42,0,0.56,0l14.17,7.02c0.42,0.14,0.56,0.7,0.28,0.98l-13.75,28.76
		c-0.14,0.14-0.28,0.28-0.42,0.42L313.19,158.17z M300,150.03l12.91,6.45l13.19-27.5l-12.91-6.45L300,150.03z M311.78,154.24
		l-0.28-0.14l-8.84-4.35c-0.14-0.14-0.28-0.28-0.42-0.42c0-0.14,0-0.42,0-0.56l11.22-23.29c0.14-0.42,0.56-0.56,0.98-0.28l8.84,4.35
		c0.14,0.14,0.28,0.28,0.42,0.42c0,0.14,0,0.42,0,0.56l-11.22,23.29C312.2,153.96,312.06,154.24,311.78,154.24z M303.93,148.77
		l7.44,3.65l10.52-22.03l-7.44-3.65L303.93,148.77z"/>
	<polygon id="XMLID_70_" class="st2" points="316.41,159.15 329.04,168.69 330.86,166.3 320.48,158.59 337.32,135.16 334.93,133.19 
			"/>
	<path id="XMLID_73_" class="st2" d="M329.04,169.39c-0.14,0-0.28,0-0.42-0.14l-12.63-9.54c-0.28-0.28-0.42-0.7-0.14-0.98
		l18.52-25.96c0.14-0.14,0.28-0.28,0.56-0.28c0.14,0,0.42,0,0.56,0.14l2.39,1.82c0.28,0.28,0.42,0.7,0.14,0.98l-16.28,22.87
		l9.82,7.16c0.14,0.14,0.28,0.28,0.28,0.56c0,0.14,0,0.42-0.14,0.56l-1.82,2.39C329.46,169.39,329.32,169.39,329.04,169.39z
		 M317.39,159.01l11.51,8.56l0.98-1.26l-9.82-7.16c-0.28-0.28-0.42-0.7-0.14-1.12l16.28-22.87l-1.26-0.98L317.39,159.01z"/>
	<polygon id="XMLID_74_" class="st2" points="331.99,170.79 342.93,182.44 345.03,180.2 336.2,170.79 356.82,150.87 354.58,148.49 	
		"/>
	<path id="XMLID_77_" class="st2" d="M342.93,183.14L342.93,183.14c-0.14,0-0.42-0.14-0.56-0.28l-10.94-11.51
		c-0.28-0.28-0.28-0.84,0-1.12l22.73-22.31c0.14-0.14,0.28-0.28,0.56-0.28c0.14,0,0.42,0.14,0.56,0.28l2.1,2.24
		c0.28,0.28,0.28,0.84,0,1.12l-20.06,19.5l8.42,8.84c0.28,0.28,0.28,0.7,0,1.12l-2.1,2.1C343.35,183,343.21,183.14,342.93,183.14z
		 M333.11,170.93l9.96,10.38l1.12-1.12l-8.42-8.84c-0.14-0.14-0.28-0.28-0.28-0.56c0-0.14,0.14-0.42,0.28-0.56l20.06-19.5
		l-1.12-1.26L333.11,170.93z"/>
	<polygon id="XMLID_78_" class="st2" points="354.44,198.01 357.1,196.19 349.66,185.53 358.93,179.07 366.22,189.6 368.75,187.91 
		361.31,177.25 370.57,170.65 377.87,181.32 380.39,179.49 371.41,166.45 345.6,184.83 	"/>
	<path id="XMLID_81_" class="st2" d="M354.44,198.72c-0.28,0-0.42-0.14-0.56-0.28l-8.98-13.05c-0.28-0.28-0.14-0.84,0.14-0.98
		l25.82-18.38c0.14-0.14,0.42-0.14,0.56-0.14c0.14,0,0.42,0.14,0.42,0.28l8.98,13.05c0.28,0.28,0.14,0.84-0.14,0.98l-2.39,1.82
		c-0.14,0.14-0.42,0.14-0.56,0.14s-0.42-0.14-0.56-0.28l-7.02-10.1l-8,5.61l7.02,10.1c0.28,0.28,0.14,0.84-0.14,1.12l-2.39,1.68
		c-0.28,0.28-0.84,0.14-0.98-0.14l-7.02-9.96l-8,5.61l7.02,10.1c0.14,0.14,0.14,0.42,0.14,0.56c0,0.14-0.14,0.42-0.28,0.42
		l-2.53,1.68C354.72,198.72,354.58,198.72,354.44,198.72z M346.58,184.97l8.14,11.93l1.26-0.84l-7.02-9.96
		c-0.14-0.14-0.14-0.42-0.14-0.56c0-0.14,0.14-0.42,0.28-0.42l9.26-6.45c0.28-0.28,0.84-0.14,0.98,0.14l7.02,9.96l1.26-0.84
		l-7.02-10.1c-0.14-0.14-0.14-0.42-0.14-0.56s0.14-0.42,0.28-0.42l9.26-6.45c0.28-0.28,0.84-0.14,0.98,0.14l6.87,9.96l1.26-0.98
		l-8.14-11.93L346.58,184.97z"/>
	<polygon id="XMLID_82_" class="st2" points="374.08,200.12 371.41,201.38 373.94,207.13 364.68,211.48 360.61,202.5 383.76,191.42 
		387.83,200.68 382.22,203.35 383.48,206.01 391.9,202.08 385.16,187.49 356.54,200.96 363.27,215.55 377.87,208.68 	"/>
	<path id="XMLID_85_" class="st2" d="M363.27,216.25h-0.28c-0.14,0-0.28-0.14-0.42-0.42l-6.73-14.59c-0.14-0.42,0-0.84,0.42-0.98
		l28.48-13.61c0.14-0.14,0.42-0.14,0.56,0c0.14,0,0.28,0.28,0.42,0.42l6.73,14.73c0.14,0.14,0.14,0.42,0,0.56
		c0,0.14-0.14,0.28-0.42,0.42l-8.42,3.93c-0.42,0.14-0.84,0-0.98-0.42l-1.26-2.81c-0.14-0.14-0.14-0.42,0-0.56
		c0-0.14,0.28-0.28,0.42-0.42l5.05-2.24l-3.51-7.86l-21.75,10.38l3.51,7.58l7.86-3.65l-2.24-5.05c-0.14-0.42,0-0.84,0.42-0.98
		l2.67-1.26c0.14-0.14,0.42-0.14,0.56,0c0.14,0,0.28,0.28,0.42,0.42l3.79,8.56c0.14,0.42,0,0.84-0.42,0.98l-14.59,6.87
		L363.27,216.25z M357.66,201.38l6.03,13.19l13.33-6.31l-3.23-7.16l-1.4,0.7l2.24,5.05c0.14,0.42,0,0.84-0.42,0.98l-9.26,4.35
		c-0.42,0.14-0.84,0-0.98-0.42l-4.07-8.98c-0.14-0.42,0-0.84,0.42-0.98l23.15-11.08c0.14-0.14,0.42-0.14,0.56,0
		c0.14,0,0.28,0.28,0.42,0.42l4.07,9.26c0.14,0.14,0.14,0.42,0,0.56c-0.14,0.14-0.28,0.28-0.42,0.42l-5.05,2.24l0.7,1.4l7.02-3.23
		l-6.03-13.33L357.66,201.38z"/>
	<polygon id="XMLID_86_" class="st2" points="381.94,216.53 392.74,213.03 396.53,225.51 399.33,224.67 394.7,209.38 364.54,218.64 
		369.31,233.93 372.11,233.09 368.33,220.74 378.99,217.24 382.92,229.86 385.72,228.74 	"/>
	<path id="XMLID_89_" class="st2" d="M369.31,234.77c-0.28,0-0.56-0.14-0.7-0.56l-4.63-15.29c0-0.14,0-0.42,0-0.56
		c0.14-0.14,0.28-0.28,0.42-0.42l30.17-9.4c0.42-0.14,0.84,0.14,0.98,0.56l4.63,15.29c0,0.14,0,0.42,0,0.56
		c-0.14,0.14-0.28,0.28-0.42,0.42l-2.81,0.84c-0.42,0.14-0.84-0.14-0.98-0.56l-3.65-11.65l-9.4,2.95l3.65,11.51
		c0.14,0.42-0.14,0.84-0.42,0.98l-2.81,0.98c-0.14,0-0.42,0-0.56,0c-0.14-0.14-0.28-0.28-0.42-0.42l-3.65-11.79l-9.4,2.95
		l3.65,11.65c0,0.14,0,0.42,0,0.56c0,0.14-0.28,0.28-0.42,0.42l-2.81,0.84L369.31,234.77z M365.52,219.2l4.21,13.89l1.4-0.42
		l-3.65-11.65c-0.14-0.42,0.14-0.84,0.42-0.98l10.8-3.51c0.14,0,0.42,0,0.56,0c0.14,0.14,0.28,0.28,0.42,0.42l3.65,11.79l1.4-0.56
		l-3.65-11.5c0-0.14,0-0.42,0-0.56c0.14-0.14,0.28-0.28,0.42-0.42l10.8-3.51c0.14,0,0.42,0,0.56,0c0.14,0.14,0.28,0.28,0.42,0.42
		l3.65,11.65l1.4-0.42l-4.21-13.89L365.52,219.2z"/>
	<path id="XMLID_92_" class="st2" d="M155.76,40.59l-38.3,2.1l28.9,67.49c-13.33,11.51-26.52,25.25-39.43,41.39l-65.94-27.64v37.32
		l-2.95,3.37c-6.45,7.3-12.21,15.43-17.4,24.27C4.51,217.1-1.94,247.12,1.71,278.97c0.28,3.51,0.7,6.03,0.98,7.86
		c0.98,6.17,2.81,12.77,5.33,19.92c6.87,19.22,17.82,37.04,32.83,53.6v39.57l65.1-32.97c2.95,3.79,6.45,7.58,10.24,11.79
		c11.36,12.49,22.45,22.59,33.53,30.45l-27.64,64.12l38.16,0.84l1.82,1.68c6.03,5.05,12.49,9.82,19.64,14.03
		c22.59,13.61,47.42,20.77,74.64,21.47c27.08-0.7,52.05-7.86,74.5-21.47c7.16-4.35,13.61-8.98,19.5-14.17l1.68-1.54l38.16-0.84
		l-27.64-64.12c11.08-7.72,22.17-17.82,33.53-30.45c3.09-3.51,6.59-7.3,10.24-11.79l64.96,32.97v-39.57
		c15.01-16.56,25.96-34.37,32.97-53.6c2.53-7.02,4.21-13.75,5.19-19.92c0.42-1.82,0.7-4.49,1.12-7.86
		c3.51-31.85-2.67-61.87-19.08-90.08c-5.05-8.84-10.8-16.84-17.4-24.27l-2.95-3.37v-37.32l-65.94,27.64
		c-12.77-16.14-25.96-29.88-39.43-41.39l28.62-67.49l-38.16-2.1c-16.42-16.84-37.32-28.34-62.72-34.94
		c-13.19-3.51-25.54-5.05-37.32-5.05c-11.65,0-24.13,1.54-37.18,5.05C193.08,12.25,172.04,23.9,155.76,40.59z M130.09,50.69
		l29.46-1.68c15.43-16.7,35.92-28.34,61.31-34.94C233.21,10.85,245,9.3,256.08,9.3c11.22,0,23.01,1.54,35.22,4.77
		c25.25,6.45,45.6,18.1,61.03,34.94l29.6,1.68l-26.66,62.16c15.99,12.91,31.85,29.46,47.14,49.11l60.05-25.25v27.92
		c1.54,1.54,3.23,3.51,5.05,5.47c6.03,6.87,11.51,14.73,16.28,23.01c15.29,26.52,21.33,54.72,17.82,84.88
		c-0.14,2.1-0.42,4.49-0.84,7.16c-1.12,6.03-2.67,12.21-4.91,18.38c-7.02,19.08-18.1,36.76-33.39,53.04v29.32l-58.93-30.03
		c-4.35,5.75-9.12,11.36-14.03,16.84c-12.63,14.03-25.25,25.11-37.88,33.11l25.54,58.79l-28.9,0.7l-3.79,3.65
		c-5.61,4.91-11.79,9.4-18.24,13.05c-21.33,12.91-44.62,19.64-70.15,20.34c-25.4-0.7-48.83-7.3-70.29-20.2
		c-6.87-4.21-12.91-8.56-18.52-13.19l-3.93-3.65l-28.76-0.7l25.4-58.79c-12.35-7.86-24.97-19.08-37.88-33.11
		c-4.77-5.47-9.54-11.08-14.03-16.84l-58.93,30.03v-29.32c-15.29-16.14-26.38-33.81-33.11-52.89c-2.39-6.59-3.93-12.63-4.91-18.38
		c-0.56-2.81-0.84-5.05-0.98-7.16c-3.37-30.17,2.39-58.37,17.96-84.88c4.77-8.42,10.24-16.14,16.28-23.01l4.91-5.47V136.7
		l60.19,25.25c15.29-19.92,31.15-36.34,47.14-49.11L130.09,50.69z"/>
	<path id="XMLID_95_" class="st2" d="M256.22,512.02L256.22,512.02c-27.08-0.7-52.33-8-74.92-21.61
		c-6.73-3.93-13.33-8.7-19.64-14.03l-1.68-1.54l-37.88-0.84c-0.28,0-0.42-0.14-0.56-0.28c-0.14-0.28-0.14-0.42,0-0.7l27.5-63.56
		c-10.94-7.72-21.75-17.54-33.11-30.17c-4.07-4.35-7.16-8-9.82-11.36l-64.54,32.69c-0.28,0.14-0.56,0.14-0.7,0
		c-0.28-0.14-0.42-0.42-0.42-0.7v-39.29c-15.01-16.56-25.96-34.52-32.83-53.6c-2.67-7.44-4.49-13.89-5.47-20.06l-0.14-0.56
		c-0.28-1.82-0.7-4.21-0.84-7.44c-3.65-31.71,2.67-62.16,18.94-90.5c5.05-8.7,10.94-16.84,17.4-24.27l2.81-3.09v-37.04
		c0-0.28,0.14-0.42,0.28-0.56c0.14-0.14,0.42-0.14,0.7,0l65.38,27.5c12.35-15.29,25.4-29.04,38.86-40.69L116.9,43.4
		c-0.14-0.28-0.14-0.42,0-0.7c0.14-0.28,0.28-0.28,0.56-0.42l38.02-2.1c16.42-16.7,37.6-28.48,63.28-34.94
		c12.77-3.37,25.25-5.05,37.46-5.05c12.21,0,24.55,1.68,37.6,5.05c25.4,6.45,46.58,18.24,63,34.94l37.88,2.1
		c0.28,0,0.42,0.14,0.56,0.42c0.14,0.28,0.14,0.42,0,0.7l-28.62,66.93c13.61,11.65,26.66,25.25,38.86,40.69l65.38-27.5
		c0.28-0.14,0.56-0.14,0.7,0s0.28,0.42,0.28,0.56v37.04l2.81,3.09c6.31,7.16,12.07,15.15,17.4,24.27
		c16.28,28.06,22.73,58.65,19.08,90.5l-0.14,1.4c-0.28,2.81-0.56,4.91-0.98,6.59c-0.98,6.45-2.81,13.19-5.33,19.92
		c-7.02,19.22-18.1,37.18-32.97,53.6v39.29c0,0.28-0.14,0.56-0.42,0.7c-0.28,0.14-0.56,0.14-0.7,0l-64.4-32.69
		c-3.09,3.79-6.31,7.58-9.82,11.36c-11.36,12.49-22.17,22.45-33.11,30.17l27.5,63.56c0.14,0.28,0.14,0.56,0,0.7
		c-0.14,0.28-0.42,0.28-0.56,0.28l-37.88,0.84l-1.54,1.4c-5.47,4.91-11.93,9.54-19.64,14.17
		C308.42,504.02,283.3,511.31,256.22,512.02L256.22,512.02z M123.07,472.45l37.04,0.84c0.14,0,0.42,0.14,0.42,0.14l1.82,1.68
		c6.31,5.33,12.77,9.96,19.5,13.89c22.45,13.47,47.42,20.62,74.22,21.33c26.8-0.7,51.77-7.86,74.08-21.33
		c7.58-4.63,13.89-9.26,19.36-14.03l1.68-1.54c0.14-0.14,0.28-0.14,0.42-0.14l37.04-0.84l-27.22-63.14c-0.14-0.28,0-0.7,0.28-0.98
		c10.94-7.72,21.89-17.68,33.39-30.31c3.65-4.07,7.02-7.86,10.24-11.79c0.28-0.28,0.56-0.28,0.84-0.14l63.84,32.41v-38.44
		c0-0.14,0.14-0.42,0.14-0.56c14.87-16.28,25.82-34.23,32.83-53.32c2.39-6.73,4.21-13.33,5.19-19.78c0.42-1.68,0.7-3.79,0.98-6.59
		l0.14-1.4c3.51-31.57-2.81-61.73-18.94-89.65c-5.33-9.12-10.94-16.98-17.26-24.13l-2.95-3.37c-0.14-0.14-0.14-0.28-0.14-0.56v-36.2
		l-64.82,27.22c-0.28,0.14-0.7,0-0.84-0.28c-12.35-15.57-25.68-29.46-39.43-41.25c-0.28-0.28-0.28-0.56-0.14-0.84l28.34-66.5
		l-37.04-1.54c-0.14,0-0.42-0.14-0.42-0.28c-16.14-16.56-37.18-28.2-62.44-34.66c-12.91-3.37-25.11-5.05-37.18-5.05
		c-11.93,0-24.41,1.68-37.04,5.05c-25.4,6.45-46.58,18.1-62.72,34.8c-0.14,0.14-0.28,0.28-0.42,0.28l-37.32,2.1l28.34,66.5
		c0.14,0.28,0,0.7-0.14,0.84c-13.61,11.79-26.94,25.68-39.43,41.25c-0.14,0.28-0.56,0.28-0.84,0.28L41.7,125.2v36.2
		c0,0.14-0.14,0.42-0.14,0.56l-2.95,3.37c-6.45,7.44-12.21,15.57-17.26,24.13C5.22,217.52-1.1,247.68,2.55,279.11
		c0.28,3.09,0.56,5.47,0.84,7.3l0.14,0.56c0.98,6.03,2.67,12.49,5.33,19.78c6.73,18.94,17.68,36.9,32.69,53.32
		c0.14,0.14,0.14,0.28,0.14,0.56v38.44l63.98-32.41c0.28-0.14,0.7-0.14,0.98,0.14c2.81,3.51,6.03,7.16,10.24,11.79
		c11.51,12.63,22.45,22.59,33.39,30.31c0.28,0.14,0.42,0.56,0.28,0.98L123.07,472.45z"/>
	<path id="XMLID_98_" class="st2" d="M256.22,503.32L256.22,503.32c-25.68-0.7-49.39-7.58-70.71-20.34
		c-7.16-4.35-13.19-8.7-18.52-13.33l-3.79-3.37l-28.48-0.7c-0.28,0-0.42-0.14-0.56-0.28c-0.14-0.28-0.14-0.42,0-0.7l25.11-58.23
		c-12.07-7.86-24.69-18.94-37.6-32.97c-4.63-5.33-9.26-10.8-13.75-16.42l-58.37,29.74c-0.28,0.14-0.56,0.14-0.7,0
		c-0.28-0.14-0.42-0.42-0.42-0.7v-28.9c-15.15-16.14-26.38-34.09-33.25-53.04c-2.24-6.31-3.93-12.35-5.05-18.52
		c-0.56-2.53-0.84-4.91-0.98-7.3c-3.37-30.31,2.67-58.93,17.96-85.31c5.05-8.84,10.66-16.56,16.42-23.15l4.77-5.33V136.7
		c0-0.28,0.14-0.42,0.28-0.56c0.14-0.14,0.42-0.14,0.7-0.14l59.77,24.97c15.01-19.5,30.73-35.78,46.44-48.41l-26.38-61.59
		c-0.14-0.28-0.14-0.42,0-0.7c0.14-0.28,0.28-0.28,0.56-0.42l29.04-1.68c15.57-16.7,36.2-28.48,61.45-34.94
		c12.35-3.23,24.27-4.77,35.36-4.77c11.22,0,23.15,1.54,35.36,4.77c25.11,6.45,45.74,18.1,61.17,34.94l29.18,1.68
		c0.28,0,0.42,0.14,0.56,0.42s0.14,0.42,0,0.7l-26.38,61.59c15.71,12.77,31.43,29.04,46.44,48.41L461.49,136
		c0.28-0.14,0.42-0.14,0.7,0.14c0.14,0.14,0.28,0.42,0.28,0.56v27.64c1.4,1.4,2.95,3.09,4.49,4.77l0.42,0.42
		c6.03,7.02,11.65,14.87,16.42,23.15c15.43,26.66,21.33,55.28,17.82,85.31c-0.14,2.1-0.42,4.35-0.84,7.3
		c-1.26,6.87-2.95,12.91-5.05,18.66c-7.02,19.08-18.24,36.9-33.39,53.04v28.9c0,0.28-0.14,0.56-0.42,0.7c-0.28,0.14-0.56,0.14-0.7,0
		l-57.38-29.6c-4.35,5.61-8.84,11.08-13.75,16.42c-12.49,13.89-25.11,24.97-37.6,32.97l25.25,58.23c0.14,0.28,0.14,0.56,0,0.7
		c-0.14,0.28-0.42,0.28-0.56,0.28l-28.62,0.7l-3.65,3.37c-5.89,5.19-12.07,9.54-18.38,13.19
		C305.33,495.88,282.32,502.62,256.22,503.32L256.22,503.32z M135.84,464.17l27.64,0.7c0.14,0,0.28,0.14,0.42,0.14l3.93,3.65
		c5.33,4.49,11.22,8.84,18.38,13.19c21.05,12.63,44.62,19.36,69.87,20.06c25.82-0.7,48.69-7.3,69.73-20.2
		c6.17-3.65,12.21-8,18.1-13.05l3.79-3.65c0.14-0.14,0.28-0.14,0.42-0.14l27.78-0.7l-25.11-57.81c-0.14-0.28,0-0.7,0.28-0.98
		c12.49-8,25.11-19.08,37.74-32.97c4.91-5.47,9.68-11.08,14.03-16.84c0.28-0.28,0.56-0.42,0.98-0.28l57.81,29.46V356.7
		c0-0.14,0.14-0.42,0.14-0.56c15.15-15.99,26.24-33.81,33.25-52.75c2.1-5.61,3.65-11.65,4.91-18.38c0.42-2.81,0.7-5.05,0.84-7.16
		c3.51-29.74-2.39-58.09-17.68-84.46c-4.77-8.28-10.24-15.99-16.28-23.01l-0.42-0.42c-1.68-1.82-3.23-3.51-4.63-5.05
		c-0.14-0.14-0.28-0.28-0.28-0.56v-26.8l-59.07,24.83c-0.28,0.14-0.7,0-0.84-0.28c-15.29-19.64-31.15-36.2-47-48.97
		c-0.28-0.28-0.42-0.56-0.28-0.84l26.1-61.17l-28.48-1.68c-0.14,0-0.42-0.14-0.56-0.28c-15.43-16.56-35.78-28.34-60.75-34.66
		c-12.07-3.09-23.85-4.77-35.08-4.77c-11.08,0-22.87,1.54-35.08,4.77c-25.11,6.45-45.6,18.1-61.03,34.66
		c-0.14,0.14-0.28,0.28-0.56,0.28l-28.34,1.68l26.1,61.17c0.14,0.28,0,0.7-0.28,0.84c-15.99,12.77-31.85,29.18-47,48.97
		c-0.14,0.28-0.56,0.42-0.84,0.28l-59.21-24.83v26.8c0,0.14-0.14,0.42-0.14,0.56l-4.91,5.47c-5.75,6.45-11.22,14.17-16.28,22.87
		c-15.15,26.1-21.19,54.44-17.82,84.46c0.14,2.39,0.42,4.63,0.98,7.16c1.12,6.17,2.67,12.07,4.91,18.38
		c6.73,18.94,17.96,36.62,33.11,52.75c0.14,0.14,0.14,0.28,0.14,0.56v28.06l57.81-29.46c0.28-0.14,0.7-0.14,0.98,0.14
		c4.49,5.75,9.26,11.36,14.03,16.84c12.91,14.17,25.68,25.25,37.74,32.97c0.28,0.14,0.42,0.56,0.28,0.98L135.84,464.17z"/>
	<path id="XMLID_101_" class="st1" d="M163.48,57.29c-7.02,0.42-13.89,0.84-20.77,1.26l24.41,57.1c-4.21,2.95-9.82,7.3-16.42,13.61
		c-13.47,12.35-26.24,26.8-38.44,43.35l-54.3-22.87v18.8l-7.3,7.44c-5.89,6.59-10.94,13.75-15.43,21.61
		c-14.45,24.97-20.06,51.63-16.56,79.83l0.7,6.45c0.98,5.33,2.53,10.94,4.63,16.84c6.87,18.94,18.1,36.48,33.95,52.61v18.66
		l52.89-26.8l4.77,6.45c3.93,5.19,8.42,10.38,12.91,15.43c14.59,16.14,28.9,27.92,42.51,35.64l-23.57,53.88l19.64,0.42l5.89,5.61
		c5.19,4.49,10.94,8.56,17.26,12.21c20.2,12.07,42.23,18.38,66.08,19.22c23.85-0.7,45.88-7.02,65.8-19.22
		c6.31-3.79,11.93-7.72,16.98-12.21l5.89-5.61l19.5-0.42l-23.43-54.02c13.75-7.58,27.92-19.5,42.65-35.64
		c7.3-8.14,13.19-15.29,17.82-21.89l52.89,26.8v-18.66c15.71-16.14,27.08-33.67,33.95-52.61c1.96-5.75,3.51-11.51,4.49-16.84
		l0.84-6.45c3.23-28.2-2.24-54.86-16.7-79.83c-4.35-7.72-9.68-15.01-15.29-21.61l-7.3-7.44v-18.8l-54.44,22.87
		c-12.21-16.56-24.97-31.01-38.3-43.35l-16.42-13.61l24.41-57.1l-20.91-1.26c-14.45-16.84-34.23-28.48-59.21-34.94
		c-7.72-1.96-15.57-3.37-23.43-4.07l-9.68-0.42c-9.54-0.28-20.62,1.26-33.11,4.49C197.86,28.81,178.07,40.45,163.48,57.29z
		 M265.06,26.84c7.44,0.7,14.73,1.96,22.03,3.93c23.15,5.89,41.53,16.7,54.86,32.27l2.39,2.81l12.21,0.7l-22.45,52.33l7.3,5.19
		c5.47,4.07,10.24,7.86,14.17,11.65c13.05,12.07,25.54,26.1,37.32,41.95l3.79,5.33l48.69-20.48v9.96l9.54,9.26
		c5.19,6.03,10.1,12.77,14.31,20.2c13.47,23.29,18.8,48.26,15.43,74.78l-0.7,5.61c-0.7,4.63-2.1,9.82-4.07,15.57
		c-6.45,17.54-16.98,33.95-31.99,49.39l-2.53,2.39v8.42l-47.14-23.99l-4.07,6.03c-4.35,6.17-10.1,13.19-17.26,20.91
		c-13.89,15.43-27.22,26.66-40.27,33.67l-6.87,3.93l21.47,49.53l-10.52,0.28l-7.58,7.44c-4.63,4.21-9.96,7.86-15.71,11.51
		c-18.8,11.22-39.15,17.12-61.45,17.82c-22.17-0.7-42.79-6.59-61.73-17.96c-5.61-3.37-10.94-7.16-15.99-11.36l-7.58-7.44
		l-10.38-0.28l21.47-49.53l-6.87-3.93c-12.91-7.02-26.24-18.24-40.41-33.67c-4.21-4.77-8.56-9.68-12.49-14.73l-8.84-12.21
		L65.97,358.1v-8.42l-2.39-2.39C48.71,332,38.05,315.59,31.59,297.91c-1.96-5.75-3.37-10.94-4.21-15.57l-0.7-5.61
		c-2.95-26.38,2.1-51.35,15.43-74.78c4.35-7.3,9.12-14.17,14.45-20.2l9.4-9.26v-9.96L114.65,183l3.93-5.33
		c11.79-15.85,24.13-29.88,37.32-41.95c6.31-5.89,13.47-11.51,21.33-16.84l-21.89-52.33l12.21-0.7l2.24-2.81
		c13.47-15.57,31.85-26.38,55.28-32.27c11.65-3.09,22.03-4.49,31.01-4.35L265.06,26.84z"/>
	<path id="XMLID_104_" class="st1" d="M256.22,486.2L256.22,486.2c-22.31-0.7-43.21-6.87-62.16-18.1
		c-5.05-2.95-10.24-6.59-16.14-11.51l-7.44-7.3l-10.1-0.28c-0.28,0-0.42-0.14-0.56-0.28c-0.14-0.28-0.14-0.42,0-0.7l21.19-48.97
		l-6.17-3.51c-12.91-7.02-26.24-18.1-40.55-33.81c-3.51-3.93-8.14-9.26-12.49-14.73l-8.42-11.79L66.53,358.8
		c-0.28,0.14-0.56,0.14-0.7,0c-0.28-0.14-0.42-0.42-0.42-0.7v-8.14l-2.24-2.24c-15.01-15.29-25.82-31.99-32.13-49.67
		c-1.96-5.75-3.51-11.08-4.35-15.71l-0.7-5.61c-2.95-26.52,2.24-51.77,15.57-75.2c4.91-8.14,9.68-14.73,14.59-20.34l9.12-8.98v-9.68
		c0-0.28,0.14-0.42,0.28-0.56s0.42-0.14,0.7,0l48.12,20.2l3.65-4.91c12.07-16.28,24.41-30.03,37.46-42.09
		c5.75-5.47,12.77-11.08,20.91-16.56l-22.03-51.77c-0.14-0.28-0.14-0.42,0-0.7c0.14-0.28,0.28-0.28,0.56-0.42l11.93-0.7l2.1-2.53
		c13.61-15.71,32.41-26.66,55.7-32.55c11.65-3.09,22.17-4.49,31.15-4.35l9.12,0.42c7.44,0.7,15.01,2.1,22.17,3.93
		c23.15,5.89,41.81,16.84,55.14,32.55l2.24,2.53l11.93,0.7c0.28,0,0.42,0.14,0.56,0.42s0.14,0.42,0,0.7l-22.17,51.77l6.73,4.77
		c5.33,3.93,10.1,7.86,14.31,11.79c13.19,12.21,25.82,26.38,37.46,42.09l3.51,4.91l48.12-20.2c0.28-0.14,0.56-0.14,0.7,0
		c0.14,0.14,0.28,0.42,0.28,0.56v9.68l9.26,8.98c5.33,6.17,10.24,13.05,14.45,20.34c13.61,23.57,18.8,48.83,15.57,75.2l-0.7,5.61
		c-0.7,4.49-2.1,9.54-4.21,15.71c-6.31,17.54-17.12,34.23-32.13,49.67l-2.39,2.24v8c0,0.28-0.14,0.56-0.42,0.7
		c-0.28,0.14-0.56,0.14-0.7,0l-46.58-23.57l-3.79,5.47c-4.91,6.87-10.66,13.89-17.26,21.05c-13.89,15.43-27.5,26.8-40.41,33.81
		l-6.17,3.51l21.19,48.97c0.14,0.28,0.14,0.56,0,0.7c-0.14,0.28-0.42,0.28-0.56,0.28l-10.24,0.28l-7.3,7.3
		c-4.49,3.93-9.68,7.72-15.85,11.65C299.44,479.47,278.53,485.5,256.22,486.2L256.22,486.2z M161.52,447.62l9.26,0.28
		c0.14,0,0.42,0.14,0.56,0.28l7.58,7.44c5.75,4.77,10.94,8.28,15.85,11.22c18.66,11.22,39.29,17.26,61.45,17.96
		c22.17-0.7,42.65-6.73,61.17-17.82c6.17-3.79,11.36-7.58,15.71-11.51l7.44-7.44c0.14-0.14,0.28-0.28,0.56-0.28l9.4-0.28
		l-21.05-48.55c-0.14-0.42,0-0.84,0.28-0.98l6.87-3.93c12.77-6.87,26.24-18.24,39.99-33.53c6.59-7.02,12.35-14.03,17.12-20.77
		l4.07-6.03c0.28-0.28,0.56-0.42,0.98-0.28l46.02,23.43v-7.16c0-0.14,0.14-0.42,0.28-0.56l2.53-2.39
		c14.73-15.29,25.54-31.85,31.71-49.11c2.1-6.03,3.37-11.08,4.07-15.43l0.7-5.61c3.23-26.1-1.96-51.07-15.43-74.36
		c-4.21-7.3-8.98-14.03-14.31-20.06l-9.54-9.12c-0.14-0.14-0.28-0.28-0.28-0.56v-8.84l-47.7,20.06c-0.28,0.14-0.7,0-0.84-0.28
		l-3.79-5.33c-11.65-15.57-24.13-29.6-37.32-41.81c-4.07-3.93-8.84-7.72-14.17-11.65l-7.3-5.19c-0.28-0.14-0.42-0.56-0.28-0.98
		l22.03-51.35l-10.8-0.56c-0.14,0-0.42-0.14-0.56-0.28l-2.39-2.81c-13.19-15.43-31.57-26.24-54.44-31.99
		c-7.16-1.82-14.45-3.09-21.89-3.93l-9.12-0.28c-0.42,0-0.84,0-1.26,0c-8.56,0-18.52,1.4-29.6,4.35
		c-23.01,5.75-41.53,16.56-54.86,31.99l-2.24,2.67c-0.14,0.14-0.28,0.28-0.56,0.28l-11.08,0.7l21.89,51.35
		c0.14,0.28,0,0.7-0.28,0.98c-8.28,5.61-15.43,11.22-21.19,16.84c-13.05,11.93-25.25,25.54-37.32,41.81l-3.93,5.33
		c-0.14,0.28-0.56,0.42-0.84,0.28l-47.7-20.06v8.84c0,0.14-0.14,0.42-0.28,0.56l-9.4,9.26c-4.91,5.47-9.54,12.07-14.31,20.06
		c-13.19,23.15-18.38,48.12-15.43,74.36l0.7,5.61c0.84,4.49,2.24,9.68,4.21,15.43c6.31,17.4,16.98,33.95,31.85,49.11l2.39,2.39
		c0.14,0.14,0.28,0.28,0.28,0.56v7.16l46.02-23.43c0.28-0.14,0.7,0,0.98,0.28l8.84,12.21c4.35,5.47,8.98,10.66,12.49,14.59
		c14.17,15.57,27.36,26.52,40.13,33.53l6.87,3.93c0.28,0.14,0.42,0.56,0.28,0.98L161.52,447.62z"/>
	<path id="XMLID_107_" class="st1" d="M256.22,494.9L256.22,494.9c-23.99-0.7-46.3-7.16-66.36-19.22
		c-6.31-3.79-12.07-7.86-17.26-12.35l-5.61-5.47l-19.36-0.42c-0.28,0-0.42-0.14-0.56-0.28c-0.14-0.28-0.14-0.42,0-0.7L170.21,403
		c-13.61-7.72-27.78-19.64-42.09-35.36c-4.91-5.47-9.26-10.66-12.91-15.43l-4.49-6.03l-52.33,26.52c-0.28,0.14-0.56,0.14-0.7,0
		c-0.28-0.14-0.42-0.42-0.42-0.7v-18.24c-15.57-15.85-27.08-33.67-33.95-52.61c-2.1-5.89-3.79-11.65-4.77-16.98l-0.7-6.59
		c-3.37-28.34,2.24-55.28,16.7-80.25c4.49-7.72,9.54-14.87,15.57-21.75l7.02-7.3v-18.38c0-0.28,0.14-0.42,0.28-0.56
		c0.14-0.14,0.42-0.14,0.7,0l53.74,22.73c12.07-16.28,24.97-30.87,38.3-43.07c6.03-5.61,11.51-10.1,15.99-13.33l-24.13-56.54
		c-0.14-0.28-0.14-0.42,0-0.7c0.14-0.28,0.28-0.28,0.56-0.42c6.59-0.42,13.19-0.84,19.92-1.26h0.56
		c14.73-16.84,34.8-28.62,59.63-34.94c13.05-3.37,23.85-4.77,33.25-4.49l9.68,0.42c8.28,0.7,16.28,2.1,23.57,4.07
		c24.83,6.31,44.9,18.1,59.35,34.94l20.62,1.26c0.28,0,0.42,0.14,0.56,0.42c0.14,0.28,0.14,0.42,0,0.7l-23.99,56.26l15.99,13.19
		c13.33,12.35,26.1,26.8,38.16,43.07l53.88-22.73c0.28-0.14,0.56-0.14,0.7,0c0.14,0.14,0.28,0.42,0.28,0.56v18.38l7.02,7.3
		c6.17,7.16,11.36,14.45,15.43,21.75c14.45,24.83,20.2,51.91,16.84,80.25l-0.84,6.45c-0.98,5.33-2.53,11.22-4.63,16.98
		c-6.73,18.8-18.24,36.48-33.95,52.61v18.24c0,0.28-0.14,0.56-0.42,0.7c-0.28,0.14-0.56,0.14-0.7,0l-52.33-26.52
		c-4.21,6.03-9.68,12.91-17.4,21.47c-14.31,15.85-28.48,27.78-42.23,35.36l23.15,53.46c0.14,0.28,0.14,0.56,0,0.7
		c-0.14,0.28-0.42,0.28-0.56,0.28l-19.22,0.42l-5.61,5.47c-5.05,4.35-10.66,8.42-17.12,12.35
		C302.52,487.6,280.21,494.2,256.22,494.9L256.22,494.9z M148.61,455.89l18.52,0.42c0.14,0,0.42,0.14,0.56,0.14l5.89,5.61
		c5.19,4.35,10.8,8.42,17.12,12.21c19.92,11.93,41.95,18.38,65.66,19.08c23.85-0.7,45.74-7.16,65.38-19.08
		c6.45-3.93,11.93-7.86,16.98-12.21l5.75-5.61c0.14-0.14,0.28-0.14,0.56-0.14l18.38-0.42l-23.29-53.04c-0.14-0.42,0-0.84,0.28-0.98
		c13.75-7.58,28.06-19.5,42.37-35.5c7.86-8.84,13.47-15.71,17.68-21.89c0.28-0.28,0.56-0.42,0.98-0.28l51.77,26.24v-17.4
		c0-0.14,0.14-0.42,0.28-0.56c15.71-15.99,27.08-33.67,33.81-52.33c1.96-5.75,3.51-11.51,4.49-16.7l0.84-6.45
		c3.23-28.06-2.39-54.72-16.7-79.41c-4.07-7.3-9.26-14.45-15.29-21.47l-7.16-7.44c-0.14-0.14-0.28-0.28-0.28-0.56v-17.54
		l-53.32,22.45c-0.28,0.14-0.7,0-0.84-0.28c-12.07-16.28-24.83-30.87-38.3-43.21l-16.42-13.47c-0.28-0.28-0.28-0.56-0.28-0.84
		l23.99-56.12l-19.78-1.26c-0.14,0-0.42-0.14-0.56-0.28c-14.31-16.7-34.23-28.34-58.79-34.66c-7.3-1.96-15.15-3.23-23.29-4.07
		l-9.68-0.42c-0.7,0-1.4,0-2.24,0c-8.7,0-18.8,1.4-30.73,4.49c-24.69,6.17-44.62,17.82-59.07,34.66c-0.14,0.14-0.28,0.28-0.56,0.28
		h-0.84c-6.31,0.42-12.63,0.84-18.8,1.12l23.99,56.12c0.14,0.28,0,0.7-0.28,0.98c-4.49,3.09-10.24,7.72-16.42,13.47
		c-13.33,12.21-26.24,26.8-38.44,43.21c-0.14,0.28-0.56,0.42-0.84,0.28l-53.18-22.45v17.54c0,0.14-0.14,0.42-0.28,0.56l-7.3,7.44
		c-5.89,6.73-10.94,13.75-15.43,21.47c-14.31,24.69-19.92,51.35-16.56,79.41l0.7,6.45c0.98,5.19,2.53,10.8,4.63,16.7
		c6.87,18.94,18.24,36.48,33.81,52.33c0.14,0.14,0.28,0.28,0.28,0.56v17.4l51.77-26.24c0.28-0.14,0.7-0.14,0.98,0.28l4.77,6.45
		c3.65,4.77,8,9.96,12.91,15.43c14.31,15.85,28.62,27.78,42.23,35.5c0.28,0.14,0.42,0.56,0.28,0.98L148.61,455.89z"/>
	<path id="XMLID_108_" class="st2" d="M205.85,395.42c0,0.14-0.98,1.12-2.39,2.95c-1.26,1.12-1.68,1.82-1.54,2.1
		c0.7,0.7,1.4,0.84,2.1,0.7c0.84-0.28,2.67-1.26,5.47-2.95v0.28c0,2.53-0.42,4.77-0.84,6.59c-1.68-0.42-3.09-0.7-3.79-1.12
		c-2.53-1.26-4.49-1.68-5.89-1.12c-0.7,0.28-1.12,1.12-0.98,2.24c0.14,1.26,0.7,2.1,1.54,2.81c0.98,0.42,3.09,1.12,6.03,1.96
		c-0.84,0.7-2.95,2.1-6.59,4.21c-2.67,1.68-1.68,2.95,3.09,3.23c2.1,0.14,3.79-0.7,5.05-2.39c0.42-0.7,1.12-1.12,2.24-1.26
		c1.4,0,2.24,0.84,2.53,2.81c0.56,3.23,2.39,4.91,5.33,4.91c0.84,0.14,1.12-0.84,0.42-2.53c-1.12-2.53-1.96-4.49-2.39-5.89
		l-0.42-1.12c0.7,0.14,1.68,0.42,2.81,0.84c2.53,0.98,3.93-0.14,4.49-3.09c0.14-0.98-0.28-1.54-1.68-1.68c-1.68,0-2.95,0-3.79-0.14
		c-0.56-0.14-1.4-0.28-2.1-0.56c0-1.4,0-3.51,0.42-6.03c2.39,0.56,4.91,0.7,7.3,0.7c1.4,0,1.96-0.7,1.82-2.1
		c-0.28-1.4-0.7-2.1-1.68-2.1c-2.67,0-4.49,0-5.33-0.28c-1.12-0.14-2.67-0.7-4.77-1.54c0.56-1.12,0.98-2.1,1.12-3.37
		c0.42-1.54-0.14-2.81-1.4-3.23c-1.12-0.56-2.24-0.42-2.95,0.28C208.52,390.23,207.26,392.2,205.85,395.42z"/>
	<path id="XMLID_111_" class="st2" d="M217.64,421.38h-0.14l0,0c-3.09,0-4.91-1.68-5.47-5.05c-0.28-1.82-0.98-2.53-2.39-2.53
		c-0.98,0.14-1.68,0.56-2.1,1.26c-1.4,1.82-3.09,2.67-5.33,2.53c-2.95-0.14-4.49-0.7-4.77-1.54c-0.14-0.56,0.42-1.26,1.54-1.96
		c3.79-2.1,5.61-3.37,6.31-3.93c-2.67-0.84-4.63-1.54-5.61-1.96c-0.98-0.7-1.54-1.54-1.68-2.95c-0.14-1.12,0.28-2.1,1.12-2.53
		c1.26-0.56,3.37-0.14,6.03,1.12c0.56,0.28,1.54,0.56,2.81,0.84c0.28,0,0.56,0.14,0.7,0.14c0.42-1.82,0.84-3.93,0.84-6.45
		c-2.95,1.68-4.49,2.53-5.33,2.81c-0.14,0-0.42,0-0.56,0c-0.7,0-1.26-0.28-1.82-0.84l0,0c-0.14-0.42,0.28-1.26,1.54-2.39
		c0.7-0.84,1.26-1.4,1.68-1.96c0.42-0.42,0.7-0.84,0.7-0.84c1.26-2.81,2.39-5.05,3.23-6.31c0.84-0.84,2.1-0.98,3.23-0.28
		c1.4,0.42,1.96,1.68,1.54,3.37c-0.14,1.12-0.56,1.96-1.12,3.23c2.1,0.84,3.51,1.4,4.63,1.54c0.84,0.28,2.81,0.28,5.33,0.28
		c1.12,0,1.54,0.98,1.82,2.24c0.14,0.84,0,1.4-0.42,1.82c-0.28,0.42-0.84,0.56-1.68,0.56c-2.81,0-5.05-0.28-7.16-0.7
		c-0.42,2.39-0.42,4.35-0.42,5.75c0.42,0.14,0.98,0.28,1.54,0.42c0.14,0,0.42,0.14,0.56,0.14c0.84,0.14,2.1,0.14,3.79,0.14
		c0.84,0.14,1.4,0.28,1.68,0.7c0.28,0.28,0.28,0.7,0.28,1.26c-0.56,3.09-2.24,4.21-4.77,3.23c-0.84-0.28-1.82-0.56-2.53-0.84
		l0.28,0.84c0.42,1.26,1.12,2.81,1.96,5.05l0.42,0.84c0.42,1.12,0.56,1.96,0.28,2.53C218.2,421.24,217.92,421.38,217.64,421.38z
		 M209.64,413.38c1.54,0,2.39,0.98,2.81,2.95c0.56,3.09,2.39,4.77,5.19,4.77h0.14c0.14,0,0.28,0,0.42-0.14
		c0.28-0.42,0.14-1.12-0.28-2.1l-0.42-0.84c-0.98-2.24-1.68-3.79-1.96-5.05l-0.42-1.12v-0.14h0.14c0.84,0.14,1.82,0.42,2.81,0.84
		c2.39,0.98,3.79,0,4.35-2.95c0-0.42,0-0.7-0.14-0.98c-0.28-0.28-0.7-0.42-1.4-0.56c-1.68,0-2.95,0-3.79-0.14
		c-0.14,0-0.28-0.14-0.56-0.14c-0.56-0.14-1.12-0.28-1.68-0.42l-0.14-0.14c0-1.4,0-3.51,0.42-6.03l0.14-0.14h0.14
		c1.96,0.42,4.35,0.7,7.16,0.7c0.7,0,1.12-0.14,1.4-0.42c0.28-0.28,0.42-0.84,0.28-1.54c-0.28-1.4-0.7-1.96-1.54-1.96
		c-2.81,0-4.63,0-5.47-0.28c-1.12-0.14-2.67-0.7-4.77-1.54l-0.14-0.14v-0.14c0.56-1.26,0.98-2.1,1.12-3.23
		c0.42-1.54-0.14-2.53-1.26-2.95c-1.12-0.56-2.1-0.42-2.81,0.28c-0.42,0.56-1.54,2.24-3.23,6.17c0,0.14-0.14,0.28-0.84,0.98
		c-0.42,0.42-0.98,1.12-1.68,1.96c-1.4,1.26-1.54,1.82-1.54,1.96c0.42,0.42,0.98,0.7,1.54,0.7c0.14,0,0.28,0,0.42,0
		c0.84-0.28,2.95-1.4,5.47-2.81h0.14l0.14,0.14v0.28c0,2.53-0.42,4.77-0.84,6.73l-0.14,0.14h-0.14c-0.28-0.14-0.7-0.14-0.98-0.28
		c-1.26-0.28-2.39-0.56-2.95-0.98c-2.53-1.26-4.49-1.68-5.61-1.12c-0.7,0.28-0.98,1.12-0.84,2.1c0.14,1.12,0.56,1.96,1.54,2.67
		c0.98,0.42,3.09,1.12,5.89,1.96l0.14,0.14v0.14c-1.12,0.84-3.51,2.53-6.59,4.21c-0.98,0.56-1.4,1.26-1.4,1.54
		c0.14,0.42,0.84,0.98,4.35,1.26c1.96,0.14,3.65-0.7,4.91-2.39C207.68,413.94,208.38,413.52,209.64,413.38L209.64,413.38z"/>
	<path id="XMLID_114_" class="st2" d="M246.68,417.03c0.84-5.05,1.54-8.28,1.68-8.98c0.56-2.53-0.14-3.93-2.39-3.79
		c-0.84,0-1.4,0.14-1.68,0.42c-0.98,0.98-1.54,1.54-1.68,1.68c-0.98,0.7-2.1,1.12-3.09,1.12c-1.54-0.14-2.67-0.28-3.79-0.14
		c-1.68,0.14-3.23-0.28-4.35-0.98l0.28-1.12c0.42-1.96,0.14-3.23-0.7-3.51c-0.56-0.28-1.68-0.42-3.23-0.28
		c-1.26,0.14-2.1,1.68-2.81,4.49l-0.56,1.82l-0.56,1.82c-0.84,3.09-0.56,5.75,0.84,8.56c0.98,1.68,2.24,3.23,3.79,4.21l0.42,0.14
		c3.93,1.68,7.58,2.24,10.66,1.4c1.4-0.14,2.53-0.14,3.37-0.14C244.16,424.04,245.42,421.8,246.68,417.03z M237.56,411.98
		c1.96,0.42,3.37,0.7,4.21,0.56c0.42,1.26,0.56,2.39,0.14,3.37c-0.14,0.42-0.42,1.12-0.98,1.82c-4.77,2.1-8.7,1.82-11.65-0.7
		l-0.28-1.68c0-0.98,0.42-2.53,0.98-4.77C230.97,411,233.49,411.42,237.56,411.98z"/>
	<path id="XMLID_117_" class="st2" d="M236.3,424.61c-2.24,0-4.77-0.56-7.72-1.82l-0.42-0.14c-1.54-0.98-2.95-2.39-3.93-4.21
		c-1.4-2.81-1.68-5.61-0.84-8.7l1.12-3.79c0.84-3.09,1.68-4.49,2.95-4.63c1.54-0.14,2.67,0,3.37,0.28c0.7,0.28,1.4,0.98,0.84,3.65
		l-0.28,0.98c1.12,0.7,2.67,0.98,4.21,0.98c0.28,0,0.7,0,0.98,0c0.7,0,1.4,0.14,2.24,0.14h0.56c0.98,0,1.96-0.42,2.95-1.12
		l1.68-1.68c0.28-0.28,0.98-0.42,1.82-0.42h0.28c0.84,0,1.54,0.28,1.96,0.7c0.56,0.7,0.56,1.68,0.28,3.23c0,0.14,0,0.28-0.14,0.56
		c-0.28,1.26-0.84,4.21-1.54,8.28c-1.26,4.77-2.53,7.02-4.07,7.02h-0.14c-0.84,0-1.96,0-3.37,0.14
		C238.4,424.47,237.28,424.61,236.3,424.61z M228.58,401.74c-0.42,0-0.7,0-1.12,0c-1.12,0.14-1.96,1.54-2.67,4.35l-1.12,3.79
		c-0.84,2.95-0.56,5.61,0.84,8.42c0.98,1.82,2.24,3.09,3.79,4.07l0.42,0.14c2.81,1.26,5.33,1.82,7.58,1.82
		c0.98,0,2.1-0.14,2.95-0.42c1.4-0.14,2.67-0.14,3.51-0.14h0.14c1.26,0,2.39-2.24,3.65-6.73c0.7-4.07,1.26-7.02,1.54-8.28
		c0-0.28,0.14-0.42,0.14-0.56c0.28-1.4,0.28-2.39-0.28-2.95c-0.42-0.42-0.98-0.7-1.96-0.56c-0.84,0-1.4,0.14-1.54,0.42l-1.68,1.68
		c-1.12,0.84-2.24,1.26-3.23,1.26h-0.56c-1.26-0.14-2.39-0.14-3.23-0.14c-0.28,0-0.42,0-0.7,0c-1.4,0-2.81-0.42-3.79-1.12
		l-0.14-0.14l0.28-1.12c0.42-1.82,0.14-2.95-0.56-3.23C230.27,401.88,229.56,401.74,228.58,401.74z"/>
	<path id="XMLID_120_" class="st2" d="M235.04,419.41c-2.24,0-4.21-0.7-5.89-2.24v-0.14l-0.28-1.68c0-0.98,0.42-2.53,0.98-4.63
		v-0.14l0.14-0.14h0.14c0.84,0.42,3.65,0.84,7.44,1.4c1.68,0.42,2.95,0.56,3.79,0.56c0.14,0,0.28,0,0.42,0l0.14,0.14
		c0.56,1.54,0.56,2.67,0.14,3.51c-0.28,0.7-0.56,1.4-0.98,1.96l0,0C238.82,418.85,236.86,419.41,235.04,419.41z M229.56,416.89
		c2.95,2.53,6.73,2.81,11.36,0.7c0.42-0.56,0.7-1.12,0.98-1.82c0.42-0.7,0.28-1.68-0.14-3.09c-0.84,0.14-2.24-0.14-4.21-0.56
		c-3.79-0.56-6.31-0.98-7.44-1.4c-0.56,2.1-0.98,3.51-0.98,4.49L229.56,416.89z"/>
	<path id="XMLID_124_" class="st2" d="M228.58,451.26c2.95,0,5.19-1.26,7.3-3.65c0.28-0.42,0.98-1.82,2.39-4.49
		c0.98-2.1,1.54-5.05,1.68-8.7c0.56-1.68,0.98-3.09,1.12-4.21c0.56-1.96,0.28-3.23-1.12-3.65c-1.82-0.56-3.37,0-4.49,1.82
		c-13.75-1.26-23.99-3.23-30.59-5.89c0.28-2.53-0.42-3.93-2.1-3.93c-2.24,0-3.23,1.12-3.23,3.37l-0.42,1.4
		c0,0.56-0.56,2.1-1.12,4.63c-0.7,3.09-1.26,6.73-1.54,11.51C195.61,447.48,206.41,451.26,228.58,451.26z M233.35,433.87l-0.84,3.65
		c-13.47-1.12-23.57-3.09-30.31-5.61c0.14-0.28,0.56-1.68,1.26-4.49C209.64,429.66,219.6,431.9,233.35,433.87z M228.86,446.77
		c-0.14,0.14-2.39,0.14-6.73,0.14c-5.33,0-11.36-1.12-18.1-3.51c-2.1-0.7-3.09-3.09-2.81-6.87c8,2.53,17.96,4.63,29.88,6.17
		l-0.14,0.84C230.55,445.51,229.84,446.63,228.86,446.77z"/>
	<path id="XMLID_127_" class="st2" d="M232.51,437.65L232.51,437.65c-13.47-1.12-23.71-3.09-30.31-5.61l-0.14-0.14v-0.14
		c0-0.14,0.28-0.84,1.26-4.49l0.14-0.14h0.14c6.03,2.24,16.14,4.49,29.74,6.45l0.14,0.14v0.14l-0.84,3.65L232.51,437.65z
		 M202.49,431.76c6.59,2.53,16.7,4.35,29.88,5.47l0.84-3.23c-13.47-1.96-23.43-4.07-29.46-6.45
		C203.05,429.8,202.63,431.2,202.49,431.76z"/>
	<path id="XMLID_130_" class="st2" d="M222.27,447.2c-5.47,0-11.36-1.12-18.1-3.51c-2.24-0.7-3.23-3.09-2.95-7.16l0.14-0.14h0.14
		c7.72,2.53,17.54,4.49,29.74,6.17l0.14,0.14v0.14l-0.14,0.84c-0.42,2.1-1.26,3.09-2.24,3.37
		C228.58,447.2,227.32,447.2,222.27,447.2z M201.5,436.81c-0.28,3.65,0.7,5.75,2.67,6.45c6.73,2.39,12.63,3.51,17.96,3.51
		c3.79,0,6.31,0,6.59-0.14h0.14c0.84-0.14,1.54-1.12,1.96-3.09l0.14-0.7C218.9,441.3,209.22,439.34,201.5,436.81z"/>
	<path id="XMLID_133_" class="st2" d="M228.58,451.54c-16.56,0-26.8-2.24-30.73-6.45c-1.4-1.54-1.96-3.23-1.68-5.19
		c0.28-4.35,0.84-8.14,1.54-11.51c0.28-1.12,0.56-1.96,0.7-2.81c0.28-0.84,0.42-1.54,0.42-1.82l0,0l0.42-1.4
		c0-2.24,1.12-3.51,3.51-3.51c0.7,0,1.26,0.28,1.68,0.7c0.56,0.7,0.84,1.68,0.56,3.23c6.31,2.53,16.14,4.49,30.31,5.89
		c1.12-1.82,2.81-2.53,4.63-1.82c1.54,0.42,1.82,1.68,1.26,3.79c-0.14,1.12-0.56,2.39-1.12,4.21c-0.14,3.51-0.7,6.45-1.68,8.7
		c-0.7,1.26-1.26,2.24-1.54,2.95c-0.42,0.84-0.7,1.26-0.84,1.54C233.91,450.28,231.53,451.54,228.58,451.54z M199.26,423.62
		c0,0.28-0.14,0.98-0.42,1.82c-0.14,0.7-0.42,1.68-0.7,2.81c-0.84,3.37-1.26,7.16-1.54,11.51c-0.14,1.82,0.42,3.51,1.68,4.91
		c3.79,4.21,14.03,6.31,30.45,6.31c2.81,0,5.05-1.12,7.16-3.51c0.14-0.14,0.42-0.7,0.84-1.4c0.42-0.7,0.84-1.68,1.54-2.95
		c0.98-2.1,1.54-5.05,1.68-8.56l0,0c0.56-1.82,0.98-2.95,1.12-4.21c0.56-1.96,0.28-3.09-0.98-3.37c-1.82-0.56-3.23,0-4.35,1.82
		l-0.14,0.14c-14.31-1.4-24.27-3.23-30.59-5.89l-0.14-0.14c0.14-1.54,0-2.53-0.56-3.09c-0.28-0.42-0.84-0.56-1.4-0.56
		c-2.1,0-3.09,0.98-3.09,3.09l0,0L199.26,423.62z"/>
	<path id="XMLID_134_" class="st2" d="M292,411.7c-3.09,1.12-5.33,1.82-7.02,1.96l-3.09-10.1c-1.26-4.35-2.1-6.87-2.81-7.86
		c-0.7-1.4-1.82-1.82-3.23-1.4c-1.12,0.42-1.68,1.54-1.26,3.37c0.14,0.84,0.42,1.68,0.7,2.39l13.61,41.67l-15.85,4.49
		c-0.28,0.14-0.84,0.28-1.54,0.42c-0.42,0.28-0.7,1.54-0.84,3.79c0,2.1,3.79,1.82,11.65-0.7c4.21-1.4,10.66-3.93,19.22-7.16
		c12.63-4.91,18.38-8.56,16.98-10.94c-0.56-1.12-1.82-1.4-3.79-0.84l-2.67,1.12c-0.56,0.84-4.77,2.95-12.49,6.03
		c-1.12,0.42-3.23,1.26-6.59,2.39l-6.45-21.61l11.51-4.35c1.96,0,2.95-1.96,2.95-5.89c0-6.17-1.12-8.98-3.23-8.42
		c-1.54,0.56-2.1,1.96-1.82,4.77c0.28,2.24,0.42,3.65,0.42,3.65C295.93,409.45,294.53,410.72,292,411.7z"/>
	<path id="XMLID_137_" class="st2" d="M272.78,451.97c-1.68,0-2.53-0.56-2.53-1.68c0.14-2.24,0.42-3.51,0.98-3.93l0,0
		c0.7-0.14,1.26-0.28,1.54-0.42l15.71-4.49l-13.61-41.53c-0.42-0.84-0.56-1.68-0.7-2.53c-0.42-1.68,0.14-3.09,1.4-3.51
		c1.54-0.42,2.81,0,3.51,1.54c0.7,0.98,1.54,3.65,2.81,8l3.09,9.96c1.4-0.14,3.37-0.7,6.73-1.96c2.39-0.98,3.79-2.1,4.21-3.23
		c0-0.28-0.14-1.54-0.42-3.51c-0.28-2.81,0.28-4.35,1.96-4.91c0.28,0,0.42-0.14,0.56-0.14c1.96,0,2.95,2.95,2.95,8.56
		c0,4.07-1.12,6.03-3.09,6.03l-11.36,4.21l6.31,21.33c2.39-0.84,4.21-1.54,5.47-1.96c0.42-0.14,0.7-0.28,0.98-0.42
		c7.86-3.23,11.93-5.19,12.35-6.03h0.14l2.67-1.12c2.1-0.56,3.51-0.28,4.07,0.98c0.28,0.42,0.28,0.98,0,1.4
		c-0.84,2.39-6.45,5.61-17.26,9.68c-8.98,3.51-15.01,5.75-19.22,7.16C277.83,451.26,274.74,451.97,272.78,451.97z M271.52,446.77
		c-0.28,0.14-0.56,0.84-0.7,3.65c0,0.28,0,1.26,2.1,1.26c1.82,0,4.91-0.7,9.26-2.1c4.21-1.4,10.1-3.65,19.22-7.16
		c10.38-4.07,16.14-7.3,16.98-9.54c0.14-0.42,0.14-0.84,0-1.12c-0.56-1.12-1.68-1.26-3.65-0.84l-2.67,1.12
		c-0.7,0.84-4.63,2.81-12.49,6.03c-0.28,0.14-0.56,0.28-0.98,0.42c-1.26,0.42-3.09,1.26-5.61,2.1h-0.14l-0.14-0.14l-6.45-21.61
		l0.14-0.28l11.51-4.35l0,0c1.82,0,2.81-1.96,2.81-5.75c0-5.33-0.84-8.28-2.53-8.28c-0.14,0-0.28,0-0.42,0
		c-1.4,0.56-1.96,1.96-1.68,4.63c0.28,2.24,0.42,3.65,0.42,3.65l0,0c-0.28,1.26-1.82,2.39-4.35,3.51c-3.51,1.26-5.61,1.96-7.02,1.96
		l-0.14-0.14l-3.09-10.1c-1.26-4.21-2.1-6.87-2.81-7.86c-0.7-1.4-1.68-1.82-3.09-1.4c-1.12,0.42-1.54,1.54-1.12,3.09
		c0.14,0.7,0.42,1.54,0.7,2.39l13.61,41.67v0.14l-0.14,0.14l-15.85,4.49C272.78,446.35,272.22,446.49,271.52,446.77z"/>
	<path id="XMLID_148_" class="st1" d="M148.61,269.29c1.26,0,2.67,0.28,4.35,0.7c0-0.28,0.14-0.56,0-0.84
		c-0.28-3.37-0.42-6.59-0.42-9.82c0-14.59,2.81-28.48,8.14-41.25c0.98-2.24,1.96-4.49,3.09-6.59l27.22,13.47
		c-5.33,10.38-8,21.89-8,34.23c0,1.96,0.14,4.07,0.28,6.17c0.98,0.14,1.96,0.42,2.95,0.7l-0.14-0.42c-0.42-1.26,0.14-2.39,1.54-3.23
		l0.14-0.14c0-1.12-0.14-2.24-0.14-3.23c0-12.49,2.67-23.57,8.14-33.53c0.14-0.14,0.42-0.42,0.56-0.7c0.14-0.14,0.14-0.42,0.14-0.56
		c2.95-5.19,6.73-10.1,11.36-14.87c13.47-13.89,29.46-20.62,48.69-20.62c18.94,0,35.36,6.87,48.69,20.62
		c13.61,13.89,20.2,30.17,20.2,49.67c0,1.26,0,2.53-0.14,3.79c0.98,0.7,1.26,1.54,1.12,2.81l-0.14,0.42
		c1.26-0.42,2.39-0.7,3.65-0.84c0.14-2.1,0.28-4.07,0.28-6.03c0-12.35-2.67-23.85-8-34.23l25.54-16.56
		c1.68,3.09,3.09,6.17,4.49,9.54c5.47,13.05,8.14,26.94,8.14,41.25c0,3.09-0.14,6.31-0.42,9.68c0,0.28,0,0.56,0,0.7
		c1.26-0.28,2.53-0.56,3.51-0.56h2.24h0.14c0.28-3.51,0.42-6.73,0.42-9.96c0-15.01-2.95-29.74-8.56-43.49
		c-5.89-13.89-13.61-25.54-23.57-35.5c-9.68-9.96-21.47-18.1-34.94-23.99c-13.89-5.89-27.92-8.7-42.79-8.7
		c-14.73,0-29.18,2.95-42.93,8.7c-13.33,5.89-24.69,13.75-34.8,23.99c-10.1,10.24-17.96,22.17-23.43,35.5
		c-5.75,13.47-8.56,28.2-8.56,43.49c0,3.23,0.14,6.59,0.42,9.96L148.61,269.29z M345.6,204.47l-25.54,16.42
		c-0.98-1.68-2.1-3.37-3.23-4.91l22.73-20.62C341.67,198.29,343.77,201.24,345.6,204.47z M330.16,184.54
		c2.24,2.24,4.49,4.63,6.45,7.16l-22.73,20.48c-1.26-1.68-2.81-3.23-4.21-4.77l20.34-23.01L330.16,184.54z M326.51,181.04
		l-20.2,23.01c-1.68-1.54-3.37-2.95-5.05-4.35l16.98-25.54C321.18,176.27,323.85,178.51,326.51,181.04z M314.45,171.36l-16.98,25.4
		c-1.4-0.98-2.95-1.96-4.49-2.81l13.47-27.5C309.26,167.99,311.78,169.53,314.45,171.36z M215.95,161.82
		c13.05-5.47,26.66-8.28,40.69-8.28s27.22,2.67,40.41,8.28c1.82,0.84,3.51,1.54,5.19,2.39l-13.47,27.36
		c-9.82-4.91-20.48-7.3-32.13-7.3c-11.65,0-22.45,2.39-32.13,7.3l-15.99-26.1C210.9,164.2,213.43,162.94,215.95,161.82z
		 M204.31,167.85l15.99,26.1c-1.68,0.98-3.37,2.1-5.05,3.23l-20.06-23.29C198.14,171.64,201.22,169.67,204.31,167.85z M191.4,176.83
		l20.06,23.15c-1.68,1.26-3.23,2.67-4.77,4.21l-22.59-20.77C186.35,181.18,188.88,178.93,191.4,176.83z M180.74,186.93l22.59,20.77
		c-1.4,1.54-2.81,3.09-4.07,4.63l-25.4-17.12C175.97,192.4,178.21,189.6,180.74,186.93z M170.92,199.14l25.25,16.98
		c-1.12,1.54-2.1,3.09-3.09,4.63l-27.22-13.61C167.55,204.47,169.23,201.8,170.92,199.14z"/>
	<path id="XMLID_149_" class="st1" d="M353.45,299.45l-0.42-0.28l-0.14,0.28c-0.14,0.14-0.14,0.42-0.28,0.56
		c0,0.14-0.14,0.28-0.14,0.42c-1.12,2.81-2.39,5.47-3.79,8l-28.48-18.24c-1.12-0.7-2.53-0.42-3.23,0.7c-0.7,1.12-0.42,2.67,0.7,3.37
		l28.76,18.38c-1.82,3.23-3.79,6.31-5.89,9.26l-23.99-21.75c-0.98-0.84-2.53-0.84-3.37,0.14c-0.84,0.98-0.84,2.53,0.14,3.37
		l24.27,22.03c-2.1,2.67-4.35,5.19-6.73,7.58l-20.91-23.71c-0.84-0.98-2.39-1.12-3.37-0.14c-0.98,0.84-1.12,2.39-0.14,3.37
		l21.05,23.85c-2.67,2.53-5.33,4.91-8.28,7.16l-17.96-26.94c-0.7-1.12-2.24-1.4-3.37-0.7c-1.12,0.7-1.4,2.24-0.7,3.37l18.1,26.94
		c-2.67,1.82-5.33,3.51-8,5.05l-14.59-29.46c-0.56-1.26-1.96-1.68-3.23-1.12c-1.12,0.56-1.68,2.1-1.12,3.23l14.59,29.6
		c-1.96,0.98-3.93,1.96-5.89,2.81c-12.91,5.47-26.52,8.28-40.55,8.28c-13.89,0-27.64-2.81-40.55-8.28
		c-2.95-1.26-5.75-2.67-8.42-4.07l16.84-27.5c0.7-1.12,0.28-2.67-0.7-3.37c-1.12-0.7-2.53-0.42-3.23,0.84l-16.98,27.78
		c-3.23-1.96-6.31-4.07-9.26-6.31l20.91-24.13c0.84-0.98,0.7-2.53-0.28-3.37s-2.53-0.84-3.37,0.28l-21.05,24.27
		c-2.53-2.1-4.91-4.35-7.3-6.73l23.43-21.61c0.98-0.84,0.98-2.39,0.14-3.37c-0.84-0.98-2.39-1.12-3.37-0.14l-23.57,21.75
		c-2.53-2.81-4.77-5.61-7.02-8.56l26.1-17.54c1.12-0.7,1.4-2.24,0.7-3.37c-0.7-1.12-2.24-1.4-3.37-0.7l-26.24,17.68
		c-1.82-2.67-3.37-5.47-4.91-8.28l30.17-15.01c1.12-0.56,1.68-1.96,1.12-3.23s-1.96-1.68-3.23-1.12l-30.31,15.01
		c-0.84-1.68-1.54-3.37-2.24-5.05c-0.14-0.28-0.14-0.42-0.28-0.7c-0.14-0.28-0.14-0.42-0.28-0.7l-0.14-0.28l-1.12,0.7
		c-1.54,0.84-2.81,1.54-4.07,2.1l0.14,0.42c0.14,0.28,0.28,0.56,0.42,0.84c5.47,13.33,13.33,25.25,23.57,35.5
		c10.38,10.52,21.75,18.38,34.94,23.99c13.75,5.75,28.2,8.7,42.93,8.7c14.73,0,29.18-2.95,42.79-8.7c2.81-1.26,5.61-2.53,8.28-3.93
		h0.14l0.14-0.14c9.68-5.19,18.52-11.79,26.24-19.78c10.1-10.1,17.82-21.75,23.71-35.5c0.14-0.28,0.14-0.42,0.28-0.7l0.14-0.28
		C356.82,301.14,355.28,300.44,353.45,299.45z"/>
	<path id="XMLID_150_" class="st1" d="M190.7,285.56l1.4-2.39c-2.24,0.42-4.35,0.98-6.45,1.54c-7.02,1.68-13.75,4.63-20.48,8.7
		c-7.44,4.35-12.07,6.73-14.03,7.44c-12.21,3.79-19.64,5.89-21.89,6.59c-7.02,2.1-14.03,0.42-21.75-5.05
		c-10.8-8.56-20.48-15.57-28.9-21.61c-15.71-11.22-28.76-19.22-38.3-23.43c0.14-0.84,0.42-1.54,1.26-2.24
		c1.54-1.4,3.93-1.82,7.44-1.26c8,1.26,16.7,4.21,26.38,8.56c15.15,6.87,27.92,16.14,38.16,27.36c1.82-0.56,1.68-1.68-0.42-3.51
		c-4.49-4.21-8.56-7.86-12.21-10.94c-6.87-6.03-11.08-9.26-12.77-9.54c-0.28-0.28-0.42-0.42-0.42-0.56c0-0.42,0.98-0.56,2.81-0.56
		c4.77,0.14,8.98,0.98,12.35,2.24c7.72,3.09,15.99,9.26,25.4,18.38c1.96-0.42,2.39-1.4,1.4-2.53c-1.4-1.68-4.77-4.77-10.24-9.26
		c-6.45-5.19-10.52-8.14-12.49-8.42l2.81-0.7c2.39-0.42,5.05-0.42,8.14,0c9.54,1.26,19.92,6.45,31.01,15.71
		c1.54-1.12,0.42-2.81-3.09-4.91c-4.07-2.39-3.93-3.65,0.56-3.65c6.31,0,12.35,2.1,18.38,6.59c0.56-1.26-0.84-2.95-4.07-5.05
		c-3.79-2.24-3.23-3.51,1.68-3.51c2.67,0,4.63,0.14,5.47,0.28c3.37,0.84,7.44,2.95,12.21,6.31c1.26-0.98,0.42-2.39-2.53-4.35
		c-2.1-1.26-2.81-2.39-2.1-3.37c0.56-0.84,1.82-1.12,4.07-1.12c5.33,0,9.96,1.96,13.33,5.89c1.4-0.7,1.4-1.68,0-3.09l-3.65-3.93
		c-2.53-1.54-1.12-2.39,4.21-2.39c3.51,0,5.89,0.14,6.87,0.28c0.7,0.14,1.4,0.42,2.1,0.7l2.95-5.19c-0.14,0-0.28,0.14-0.42,0.14
		c-0.7,0.28-1.4,0.7-2.1,1.12l-1.26,1.4c-0.14-0.14-0.42-0.28-0.84-0.28c-1.26-0.28-2.53-0.42-3.79-0.42h-3.37
		c-2.81,0-4.63,0.28-5.89,0.84c-1.4,0.7-1.96,1.82-1.54,3.23l0.14,0.42c-2.1-0.7-4.35-0.98-6.73-0.98c-2.81,0-4.77,0.7-5.89,1.96
		c-0.56,0.7-0.7,1.4-0.56,2.24c-1.54-0.7-3.09-1.26-4.63-1.68c-1.54-0.42-2.81-0.56-3.93-0.56l-2.1,0.14c-0.56,0-1.4,0-2.24,0.14
		c-1.12,0-1.96,0.28-2.53,0.84c-0.98,0.42-1.4,1.26-1.26,2.39c-0.98-0.28-1.96-0.56-3.09-0.84c-1.68-0.42-3.09-0.7-4.35-0.7
		l-4.07,0.14c-0.98,0.14-1.68,0.42-2.39,0.84c-0.28,0.28-0.7,0.7-0.84,1.26c-9.12-6.03-17.68-9.26-25.4-9.68
		c-2.53-0.28-4.77-0.14-7.02,0.28c-1.12,0.28-1.96,0.56-2.67,0.84l-2.95,1.4c-2.39-0.98-4.91-1.54-7.58-1.96
		c-2.53-0.14-4.21-0.14-4.91-0.28c-1.12,0-2.1,0-2.81,0.14c-1.26,0.28-1.96,0.98-2.24,2.1v0.42c-12.77-7.16-24.83-11.65-36.34-13.61
		c-3.93-0.7-7.16-0.14-9.12,1.82c-0.7,0.56-1.26,1.4-1.54,2.24c-0.28,0.42-0.42,1.4-0.42,2.95l1.26,0.56
		c9.82,4.49,22.45,12.21,37.88,23.29c8.42,6.03,18.1,13.05,29.04,21.61c8,5.89,15.85,7.72,23.43,5.33c2.39-0.7,9.68-2.95,22.03-6.59
		c1.68-0.56,4.07-1.68,7.16-3.37l7.3-4.35c6.59-3.93,13.19-6.73,19.92-8.56C187.61,286.13,189.16,285.84,190.7,285.56z"/>
	<path id="XMLID_151_" class="st1" d="M473.98,255.54c-0.42-0.84-0.98-1.68-1.68-2.24c-1.96-1.96-5.05-2.53-9.12-1.82
		c-11.65,1.82-23.71,6.45-36.34,13.75v-0.56c-0.14-1.12-0.84-1.82-2.24-2.1c-0.7-0.14-1.68-0.14-2.67-0.14
		c-1.96,0-3.51,0.14-4.91,0.28c-2.67,0.42-5.05,0.98-7.58,1.96l-3.09-1.4c-2.39-1.12-5.47-1.4-9.54-1.12
		c-8,0.42-16.28,3.65-25.4,9.68c-0.28-0.56-0.56-0.98-0.98-1.26c-0.56-0.42-1.4-0.84-2.39-0.84c-0.42-0.14-0.98-0.14-1.82-0.14
		h-2.24c-1.12,0-2.67,0.28-4.21,0.7c-1.12,0.28-2.24,0.56-3.09,0.84c0-0.98-0.42-1.82-1.26-2.39c-0.7-0.56-1.54-0.84-2.53-0.84
		c-1.12-0.14-1.82-0.14-2.24-0.14l-2.24-0.14c-1.12,0-2.39,0.14-3.79,0.56c-1.68,0.42-3.23,0.98-4.63,1.68
		c0-0.84-0.14-1.54-0.56-2.24c-1.12-1.26-2.95-1.96-6.03-1.96c-2.24,0-4.35,0.28-6.59,0.98l0.14-0.42c0.28-1.4-0.28-2.39-1.68-3.23
		c-0.98-0.56-2.95-0.84-5.61-0.84h-3.37c-1.4,0-2.67,0.14-4.07,0.42c-0.14,0-0.42,0.14-0.7,0.28c-0.56-0.7-0.98-1.12-1.26-1.4
		c-0.56-0.42-1.26-0.84-2.1-1.12c-0.28-0.14-0.7-0.28-0.98-0.42l1.82,3.09c0.28,0.14,0.42,0.42,0.7,0.7l-0.14,0.14l0.98,1.68
		c0.84-0.42,1.68-0.7,2.53-0.98c0.98-0.14,3.23-0.28,7.02-0.28c5.33,0,6.87,0.84,4.21,2.39c-0.28,0.14-1.54,1.4-3.79,3.93
		c-1.26,1.26-1.26,2.24,0,3.09c3.37-3.93,8-5.89,13.33-5.89c2.24,0,3.65,0.28,4.21,1.12c0.56,0.84-0.14,1.96-2.24,3.37
		c-2.81,1.82-3.65,3.37-2.53,4.35c4.77-3.51,8.98-5.47,12.21-6.31c0.98-0.14,2.81-0.28,5.61-0.28c4.77,0,5.33,1.12,1.68,3.51
		c-3.37,2.1-4.77,3.79-4.07,5.05c5.89-4.49,11.93-6.59,18.24-6.59c4.49,0,4.77,1.12,0.7,3.65c-3.65,2.1-4.77,3.79-3.23,4.91
		c11.08-9.26,21.47-14.45,31.01-15.71c4.77-0.56,8.42-0.42,10.94,0.7c-1.96,0.28-6.17,3.23-12.49,8.42
		c-5.19,4.49-8.7,7.44-10.24,9.26c-0.98,1.12-0.56,2.1,1.4,2.53c9.4-9.26,17.82-15.43,25.4-18.38c3.37-1.26,7.58-2.1,12.35-2.24
		c3.09,0,3.79,0.28,2.39,1.12c-1.54,0.28-5.89,3.51-12.77,9.54c-7.02,6.31-11.08,10.1-12.21,10.94c-2.1,1.68-2.24,2.95-0.42,3.51
		c10.38-11.22,23.01-20.48,38.16-27.36c9.82-4.35,18.66-7.16,26.38-8.56c5.47-0.98,8.42,0.28,8.7,3.65
		c-9.68,4.35-22.45,12.21-38.16,23.43c-15.71,11.79-25.4,18.94-29.04,21.61c-7.58,5.47-14.73,7.16-21.61,5.05
		c-14.17-4.21-21.47-6.45-22.03-6.59c-1.82-0.7-6.59-3.23-13.89-7.44c-6.87-4.07-13.61-6.87-20.48-8.7
		c-2.39-0.56-4.77-1.12-7.16-1.54l1.4,2.39c1.82,0.42,3.51,0.7,5.19,1.26c6.73,1.68,13.33,4.63,19.92,8.56l7.3,4.35
		c2.81,1.54,5.19,2.53,7.16,3.37c6.31,1.96,13.61,4.35,22.03,6.59c7.72,2.39,15.43,0.56,23.57-5.33c3.51-2.81,13.19-9.82,28.9-21.61
		c15.43-11.08,28.06-18.94,37.88-23.29l1.4-0.56C474.26,257.08,474.12,256.1,473.98,255.54z"/>
	<path id="XMLID_169_" class="st2" d="M267.87,296.65L267.87,296.65L267.87,296.65h59.63l-6.45-11.22l0,0l-1.4-2.39
		c-13.19-2.53-26.8-2.39-40.83-0.14c-5.19,0.84-8.98,3.51-11.22,7.58c-1.68,3.23-2.24,5.89-1.68,8.28c0.7,3.37,0.42,5.33-0.98,6.17
		c-0.7,0.56-1.26,1.4-1.54,2.81c-0.28,0.56-0.28,1.26-0.28,1.68c-0.7,4.63-2.95,6.59-6.87,6.45c-3.93,0.14-6.45-1.82-7.16-6.45
		c-0.14-2.1-0.7-3.65-1.82-4.49c-1.26-0.84-1.68-2.95-0.98-6.17c0.56-2.24,0-5.05-1.68-8.28c-2.24-4.21-6.03-6.73-11.08-7.58
		c-14.45-2.39-28.2-2.39-41.53,0.28l-1.4,2.39l0,0l-6.31,11.22h59.91l0,0c0,0.56,0,0.98,0,1.54c-0.42,1.54-0.56,3.09-0.42,4.49
		c0,0.42,0.14,0.84,0.14,1.26c0.28,0.56,0.7,1.12,1.26,1.4c1.4,0.98,2.1,2.81,2.1,5.33c0.14,0.7,0.28,1.26,0.42,1.82
		c0.98,2.1,2.39,3.79,4.49,4.63c0.84,0.42,1.68,0.7,2.67,0.7l1.26,0.14c0.42,0,0.84,0,1.12-0.14c0.98,0,1.82-0.28,2.67-0.7
		c0.98-0.56,1.82-1.12,2.53-1.82c0.7-1.26,1.26-2.81,1.54-4.63c0-0.56,0.14-1.26,0.28-1.96c0.42-1.54,0.98-2.53,1.96-3.37
		c1.54-0.98,1.96-3.65,1.12-7.44C267.59,297.49,267.73,296.93,267.87,296.65z M300.84,283.18c-0.14,0-0.28,0-0.42,0
		C300.56,283.18,300.7,283.18,300.84,283.18z M316.13,284.44L316.13,284.44L316.13,284.44z M305.89,283.46h-0.14H305.89z
		 M290.88,283.6c-0.28,0-0.7,0-0.98,0C290.18,283.6,290.6,283.6,290.88,283.6z M285.27,284.16c-0.28,0-0.42,0-0.7,0.14
		C284.84,284.16,284.98,284.16,285.27,284.16z M211.75,283.18c-0.28,0-0.42,0-0.7,0C211.18,283.18,211.46,283.18,211.75,283.18z
		 M195.89,284.58c-0.14,0-0.28,0-0.42,0.14C195.61,284.58,195.75,284.58,195.89,284.58z M206.41,283.46c-0.14,0-0.28,0-0.42,0
		C206.13,283.46,206.27,283.46,206.41,283.46z M201.08,283.88c-0.14,0-0.28,0-0.42,0C200.8,283.88,200.94,283.88,201.08,283.88z
		 M216.09,283.32c0.28,0,0.56,0,0.98,0C216.66,283.32,216.38,283.32,216.09,283.32z M221.29,283.46c0.28,0,0.7,0,0.98,0
		C221.99,283.6,221.71,283.6,221.29,283.46z M226.76,284.02c0.28,0,0.56,0,0.98,0.14C227.46,284.16,227.18,284.16,226.76,284.02z
		 M244.3,295.67c0,0.28,0.14,0.56,0.14,0.84C244.44,296.23,244.44,295.95,244.3,295.67z M242.89,291.46
		c0.28,0.42,0.42,0.84,0.56,1.26C243.31,292.3,243.03,291.88,242.89,291.46z M243.59,293c0.14,0.42,0.28,0.7,0.42,1.12
		C243.88,293.84,243.73,293.42,243.59,293z M244.02,294.26c0.14,0.42,0.14,0.7,0.28,1.12C244.16,294.96,244.16,294.68,244.02,294.26
		z"/>
	<path id="XMLID_183_" class="st2" d="M208.52,269.71c1.12-0.98-0.56-3.23-4.91-6.31l2.1-1.4c1.96-0.7,3.93-0.56,6.31,0.42
		c3.65,1.68,7.86,4.63,12.35,9.12c1.54-0.28,0.56-2.1-2.95-5.47c-0.98-0.56-1.54-0.98-1.82-1.68c-0.42-1.26,0.7-2.24,3.79-3.37
		c3.09-0.84,6.45,0.14,9.96,3.09c1.12,0.98,3.79,3.93,8,8.7c5.33-5.19,8.28-9.96,8.98-14.31c0.28-2.53-0.56-4.91-2.81-6.73
		c-2.67-1.68-4.35-2.95-5.05-3.65c-6.73-6.73-7.3-11.65-1.54-14.73l0.7,3.37c0.98,2.81,2.53,5.05,4.77,7.02
		c-2.1-5.75-2.24-9.68-0.42-11.93c0.14-0.14,0.42-0.42,0.98-0.7c0.84-0.42,1.96-0.7,3.23-0.7l-0.14,5.05
		c0.42,3.79,1.54,6.87,3.51,9.4c0.42-1.4,0.28-3.37-0.56-5.19c-0.98-2.24-1.26-4.63-1.12-7.02c0.14-3.37,1.68-4.91,4.35-4.91h0.42
		c2.53,0,4.07,1.54,4.21,4.91c0.28,2.24-0.14,4.77-1.12,7.02c-0.7,1.82-0.98,3.79-0.56,5.19c1.96-2.39,3.23-5.61,3.51-9.4
		l-0.14-5.05c1.96,0,3.37,0.56,4.21,1.4c1.96,2.24,1.82,6.17-0.28,11.93c2.1-1.96,3.79-4.35,4.63-7.02l0.7-3.37
		c5.61,3.09,5.05,7.86-1.54,14.73c-0.7,0.7-2.39,1.82-5.05,3.65c-2.1,1.82-3.09,4.21-2.67,6.73c0.56,4.35,3.51,9.12,8.84,14.31
		c4.21-4.91,7.02-7.72,8.14-8.7c3.37-2.95,6.73-3.93,9.82-3.09c4.91,1.4,5.47,3.23,1.96,5.05c-3.51,3.37-4.49,5.19-2.95,5.47
		c1.12-1.12,2.39-2.24,4.07-3.65c3.09-2.53,6.03-4.49,8.28-5.47c3.23-1.4,5.75-1.26,7.72,0.28l-1.82-3.09l0,0l0,0l-50.51-88.81
		l-50.51,89.09c0.14,0,0.28-0.14,0.42-0.14c-0.14,0-0.28,0.14-0.42,0.14l-2.95,5.19C204.45,265.92,206.41,267.46,208.52,269.71z
		 M305.61,259.33L305.61,259.33L305.61,259.33z M300.56,260.03c-0.28,0.14-0.56,0.28-0.84,0.42
		C300,260.31,300.28,260.17,300.56,260.03z M303.08,259.33L303.08,259.33L303.08,259.33z M302.24,259.47L302.24,259.47
		L302.24,259.47z M301.4,259.75c-0.14,0-0.28,0.14-0.42,0.14C301.26,259.89,301.26,259.75,301.4,259.75z M211.75,260.03
		c0.28,0.14,0.7,0.28,0.98,0.42C212.45,260.31,212.03,260.17,211.75,260.03z M208.94,259.33c0.14,0,0.28,0,0.56,0.14
		C209.22,259.33,209.08,259.33,208.94,259.33z M209.78,259.47c0.14,0,0.42,0.14,0.56,0.14C210.2,259.61,210.06,259.47,209.78,259.47
		z M210.76,259.75c0.14,0,0.42,0.14,0.56,0.28C211.18,259.89,210.9,259.75,210.76,259.75z M208.52,259.33c-0.14,0-0.28,0-0.42,0
		C208.1,259.33,208.24,259.33,208.52,259.33z M206.69,259.47c-0.14,0-0.28,0-0.42,0.14C206.41,259.47,206.55,259.47,206.69,259.47z
		 M207.54,259.33c-0.14,0-0.28,0-0.42,0C207.26,259.33,207.4,259.33,207.54,259.33z"/>
	<path id="XMLID_184_" class="st2" d="M303.79,269.71c1.96-2.1,3.93-3.51,5.89-4.49l-0.98-1.68
		C304.49,266.62,302.8,268.73,303.79,269.71z"/>
</g>
</svg>
