<!-- Generator: Adobe Illustrator 19.0.0, SVG Export Plug-In . SVG Version: 6.00 Build 0)  --><svg version="1.1" id="Layer_1" xmlns="http://www.w3.org/2000/svg" xmlns:xlink="http://www.w3.org/1999/xlink" x="0px" y="0px" viewBox="0 0 500 500" style="enable-background:new 0 0 500 500;" xml:space="preserve" height="50" width="50"><style type="text/css">	.st0{fill:#FFFFFF;}	.st1{fill:#88CAEF;}	.st2{fill:#ED1C24;}</style><g id="XMLID_1_">	<path id="XMLID_3_" class="st0" d="M250.2,426.9L250.2,426.9c-18.3-0.5-35.2-5.4-50.4-14.5c-5.1-3.1-9.4-6.2-13.2-9.5l-2.7-2.4   l-20.3-0.5c-0.2,0-0.3-0.1-0.4-0.2c-0.1-0.2-0.1-0.3,0-0.5l17.9-41.5c-8.6-5.6-17.6-13.5-26.8-23.5c-3.3-3.8-6.6-7.7-9.8-11.7   l-41.6,21.2c-0.2,0.1-0.4,0.1-0.5,0c-0.2-0.1-0.3-0.3-0.3-0.5v-20.6c-10.8-11.5-18.8-24.3-23.7-37.8c-1.6-4.5-2.8-8.8-3.6-13.2   c-0.4-1.8-0.6-3.5-0.7-5.2c-2.4-21.6,1.9-42,12.8-60.8c3.6-6.3,7.6-11.8,11.7-16.5l3.4-3.8v-19.7c0-0.2,0.1-0.3,0.2-0.4   c0.1-0.1,0.3-0.1,0.5-0.1l42.6,17.8c10.7-13.9,21.9-25.5,33.1-34.5l-18.8-43.9c-0.1-0.2-0.1-0.3,0-0.5s0.2-0.2,0.4-0.3l20.7-1.2   c11.1-11.9,25.8-20.3,43.8-24.9c8.8-2.3,17.3-3.4,25.2-3.4c8,0,16.5,1.1,25.2,3.4c17.9,4.6,32.6,12.9,43.6,24.9l20.8,1.2   c0.2,0,0.3,0.1,0.4,0.3c0.1,0.2,0.1,0.3,0,0.5l-18.8,43.9c11.2,9.1,22.4,20.7,33.1,34.5l42.5-17.8c0.2-0.1,0.3-0.1,0.5,0.1   c0.1,0.1,0.2,0.3,0.2,0.4v19.7c1,1,2.1,2.2,3.2,3.4l0.3,0.3c4.3,5,8.3,10.6,11.7,16.5c11,19,15.2,39.4,12.7,60.8   c-0.1,1.5-0.3,3.1-0.6,5.2c-0.9,4.9-2.1,9.2-3.6,13.3c-5,13.6-13,26.3-23.8,37.8v20.6c0,0.2-0.1,0.4-0.3,0.5   c-0.2,0.1-0.4,0.1-0.5,0l-41.6-21.2c-3.1,4-6.3,7.9-9.8,11.7c-8.9,9.9-17.9,17.8-26.8,23.5l18,41.5c0.1,0.2,0.1,0.4,0,0.5   c-0.1,0.2-0.3,0.2-0.4,0.2l-20.4,0.5l-2.6,2.4c-4.2,3.7-8.6,6.8-13.1,9.4C285.2,421.6,268.8,426.4,250.2,426.9L250.2,426.9z" />	<path id="XMLID_4_" class="st1" d="M250.5,305.8c-14.4,0-26.9-5.2-37.1-15.6c-5.4-5.5-9.4-11.7-11.9-18.4c-0.3-0.9,0.3-1.4,1.2-1.7   c0.9-0.3,1.7-0.4,2,0.5c2.4,6.2,6.1,12,11.2,17.2c9.7,9.8,21,14.6,34.7,14.6c13.5,0,25.2-4.9,34.7-14.6c5-5.1,8.8-10.9,11.1-17.1   c0.3-0.9,1.2-0.9,2-0.5c0.9,0.3,1.5,0.9,1.1,1.8c-2.5,6.6-6.5,12.8-11.9,18.3C277.4,300.6,264.9,305.8,250.5,305.8z" />	<polygon id="XMLID_5_" class="st2" points="173.1,223.4 173.7,221.4 152.4,214.3 151.8,216.5 161.3,219.5 159.2,226.3 149.5,223.1    148.8,225.2 170.2,232.3 170.9,230.2 161.2,227 163.4,220.3  " />	<path id="XMLID_8_" class="st2" d="M170.2,232.8l-0.2,0l-21.4-7.1c-0.1,0-0.2-0.1-0.3-0.3c-0.1-0.1-0.1-0.3,0-0.4l0.7-2.1   c0.1-0.3,0.4-0.4,0.7-0.3l9.1,3l1.8-5.7l-9-2.9c-0.3-0.1-0.4-0.4-0.4-0.7l0.6-2.2c0-0.1,0.1-0.3,0.3-0.3c0.1-0.1,0.3-0.1,0.4,0   l21.4,7.1c0.3,0.1,0.4,0.4,0.3,0.7l-0.6,2.1c0,0.1-0.1,0.3-0.3,0.3c-0.1,0.1-0.3,0.1-0.4,0l-9.2-3l-1.9,5.8l9.2,3   c0.1,0,0.2,0.1,0.3,0.3c0.1,0.1,0.1,0.3,0,0.4l-0.7,2.1C170.6,232.7,170.4,232.8,170.2,232.8z M149.5,224.9l20.4,6.8l0.4-1l-9.2-3   c-0.1,0-0.2-0.1-0.3-0.3c-0.1-0.1-0.1-0.3,0-0.4l2.2-6.8c0.1-0.3,0.4-0.4,0.7-0.3l9.2,3l0.3-1l-20.3-6.7l-0.3,1.1l9,2.9   c0.3,0.1,0.4,0.4,0.3,0.7l-2.1,6.8c0,0.1-0.1,0.3-0.3,0.3c-0.1,0.1-0.3,0.1-0.4,0l-9.1-3L149.5,224.9z" />	<path id="XMLID_11_" class="st2" d="M160.2,198.2l-5.3,10.1l19.8,10.8l5.3-10.2L160.2,198.2z M173.8,216.1l-16.1-8.7l3.3-6.2   l16.1,8.6L173.8,216.1z" />	<path id="XMLID_16_" class="st2" d="M174.7,219.6c-0.1,0-0.2,0-0.3-0.1l-19.8-10.8c-0.3-0.1-0.4-0.5-0.2-0.7l5.3-10.1   c0.1-0.3,0.5-0.4,0.7-0.2l19.8,10.7c0.3,0.1,0.4,0.5,0.2,0.7l-5.3,10.2c-0.1,0.1-0.2,0.2-0.3,0.3L174.7,219.6z M155.6,208   l18.9,10.3l4.8-9.2l-18.9-10.2L155.6,208z M173.8,216.6c-0.1,0-0.2,0-0.3-0.1l-16.1-8.7c-0.1-0.1-0.2-0.2-0.3-0.3   c0-0.1,0-0.3,0-0.4l3.3-6.2c0.1-0.3,0.5-0.4,0.7-0.2l16.1,8.6c0.1,0.1,0.2,0.2,0.3,0.3c0,0.1,0,0.3,0,0.4l-3.3,6.3   C174.2,216.5,174,216.6,173.8,216.6z M158.5,207.1l15.2,8.2l2.8-5.3l-15.2-8.1L158.5,207.1z" />	<polygon id="XMLID_17_" class="st2" points="181.3,206.8 188,197.7 186.4,196.3 180.8,203.7 164.6,191.3 163.3,193  " />	<path id="XMLID_20_" class="st2" d="M181.3,207.3c-0.1,0-0.2,0-0.3-0.1l-18-13.8c-0.1-0.1-0.2-0.2-0.2-0.4c0-0.1,0-0.3,0.1-0.4   l1.3-1.7c0.2-0.2,0.5-0.3,0.7-0.1l15.8,12.1l5.2-7c0.1-0.1,0.2-0.2,0.4-0.2c0.1,0,0.3,0,0.4,0.1l1.6,1.3c0.2,0.2,0.3,0.5,0.1,0.7   l-6.7,9.1C181.7,207.2,181.5,207.3,181.3,207.3L181.3,207.3z M164.1,192.9l17.2,13.1l6.1-8.3l-0.8-0.7l-5.2,7   c-0.2,0.2-0.5,0.3-0.7,0.1L164.7,192L164.1,192.9z" />	<polygon id="XMLID_21_" class="st2" points="177.6,175.7 179,182.8 171.9,181.6 170.3,183.4 179.7,185.1 190.2,195.5 191.8,194    181.2,183.6 179.2,173.9  " />	<path id="XMLID_24_" class="st2" d="M190.2,196c-0.1,0-0.3-0.1-0.4-0.2l-10.4-10.3l-9.3-1.7c-0.2,0-0.3-0.2-0.4-0.4   c-0.1-0.2,0-0.4,0.1-0.5l1.6-1.7c0.1-0.1,0.3-0.2,0.5-0.2l6.3,1l-1.3-6.3c0-0.2,0-0.3,0.1-0.5l1.6-1.7c0.1-0.1,0.3-0.2,0.5-0.1   c0.2,0.1,0.3,0.2,0.4,0.4l2,9.5l10.4,10.3c0.1,0.1,0.2,0.2,0.2,0.4c0,0.1-0.1,0.3-0.2,0.4l-1.5,1.5C190.5,196,190.4,196,190.2,196z    M171.4,183l8.5,1.6c0.1,0,0.2,0.1,0.3,0.1l10.2,10l0.8-0.8l-10.1-10c-0.1-0.1-0.1-0.2-0.1-0.3l-1.8-8.6l-0.7,0.8l1.4,6.8   c0,0.2,0,0.4-0.1,0.5c-0.1,0.1-0.3,0.2-0.5,0.2l-6.8-1.1L171.4,183z" />	<polygon id="XMLID_25_" class="st2" points="201.3,185.4 203,184.2 191.4,167.3 195.1,164.6 193.9,162.8 184.7,169.4 185.9,171.2    189.6,168.5  " />	<path id="XMLID_28_" class="st2" d="M201.3,186L201.3,186c-0.2,0-0.4-0.1-0.4-0.2l-11.3-16.5l-3.3,2.4c-0.2,0.2-0.6,0.1-0.7-0.1   l-1.2-1.7c-0.1-0.1-0.1-0.3-0.1-0.4c0-0.1,0.1-0.3,0.2-0.3l9.2-6.6c0.2-0.2,0.6-0.1,0.7,0.1l1.2,1.7c0.1,0.1,0.1,0.3,0.1,0.4   c0,0.1-0.1,0.3-0.2,0.3l-3.3,2.4l11.3,16.5c0.2,0.2,0.1,0.6-0.1,0.7l-1.7,1.2C201.5,185.9,201.4,186,201.3,186z M189.6,168   L189.6,168c0.2,0,0.4,0.1,0.4,0.2l11.3,16.5l0.9-0.6l-11.3-16.5c-0.2-0.2-0.1-0.6,0.1-0.8l3.3-2.4l-0.6-0.9l-8.3,6l0.6,0.9l3.3-2.4   C189.4,168,189.5,168,189.6,168z" />	<path id="XMLID_31_" class="st2" d="M207.8,155.4l-10.1,4.9l9.9,20.5l1.9-0.9l-5-10.3l1-0.5l10,7.8l2.1-1.1l-9.9-7.8l4.9-2.4   L207.8,155.4z M200.6,161.4l6.2-3.1l3.1,6.4l-6.3,3.1L200.6,161.4z" />	<path id="XMLID_34_" class="st2" d="M203.6,168.3c-0.2,0-0.4-0.1-0.5-0.3l-3-6.4c-0.1-0.3,0-0.6,0.2-0.7l6.2-3.1   c0.3-0.1,0.6,0,0.7,0.2l3.1,6.4c0.1,0.1,0.1,0.3,0,0.4c0,0.1-0.1,0.2-0.3,0.3l-6.3,3.1L203.6,168.3z M201.3,161.7l2.6,5.4l5.3-2.6   l-2.7-5.4L201.3,161.7z" />	<path id="XMLID_37_" class="st2" d="M207.5,181.5c-0.2,0-0.4-0.1-0.5-0.3l-9.9-20.5c-0.1-0.1-0.1-0.3,0-0.4c0-0.1,0.1-0.2,0.3-0.3   l10.1-4.9c0.3-0.1,0.6,0,0.7,0.3l4.9,10.3c0.1,0.1,0.1,0.3,0,0.4c0,0.1-0.1,0.2-0.3,0.3l-4.1,2l9.2,7.3c0.1,0.1,0.2,0.3,0.2,0.5   c0,0.2-0.1,0.3-0.3,0.4l-2.1,1.1c-0.2,0.1-0.4,0.1-0.6-0.1l-9.8-7.6l-0.2,0.1l4.7,9.8c0.1,0.1,0.1,0.3,0,0.4c0,0.1-0.1,0.2-0.3,0.3   l-1.9,0.9L207.5,181.5z M198.3,160.6l9.5,19.6l1-0.5L204,170c-0.1-0.3,0-0.6,0.2-0.7l1-0.5c0.2-0.1,0.4-0.1,0.6,0.1l9.8,7.6   l1.1-0.6l-9.3-7.3c-0.1-0.1-0.2-0.3-0.2-0.5c0-0.2,0.1-0.3,0.3-0.4l4.4-2.1l-4.4-9.3L198.3,160.6z" />	<polygon id="XMLID_38_" class="st2" points="213.5,153.1 211.5,153.8 219.6,175.2 221.5,174.3  " />	<path id="XMLID_41_" class="st2" d="M219.6,175.7l-0.2,0c-0.1-0.1-0.2-0.2-0.3-0.3L211,154c-0.1-0.1,0-0.3,0-0.4   c0.1-0.1,0.2-0.2,0.3-0.3l2-0.7c0.3-0.1,0.6,0,0.7,0.3l8,21.3c0.1,0.3,0,0.6-0.3,0.7l-1.9,0.8L219.6,175.7z M212.2,154.1l7.7,20.3   l0.9-0.4l-7.6-20.3L212.2,154.1z" />	<polygon id="XMLID_42_" class="st2" points="219.8,151 219.7,150.8 217.7,151.4 223.5,173.5 225.6,172.9 221.5,157.6 230.9,171.4    233,170.9 227.2,148.8 225.2,149.3 229.2,164.8  " />	<path id="XMLID_45_" class="st2" d="M223.5,174.1c-0.1,0-0.2,0-0.3-0.1c-0.1-0.1-0.2-0.2-0.3-0.3l-5.9-22.1   c-0.1-0.3,0.1-0.6,0.4-0.7l2-0.6c0.2-0.1,0.5,0,0.6,0.3l0.1,0.2l7.7,11.2l-3.3-12.5c0-0.1,0-0.3,0.1-0.4c0.1-0.1,0.2-0.2,0.3-0.2   l2-0.5c0.3-0.1,0.6,0.1,0.6,0.4l5.8,22.1c0,0.1,0,0.3-0.1,0.4c-0.1,0.1-0.2,0.2-0.3,0.2l-2,0.5c-0.2,0.1-0.4,0-0.6-0.2l-7.7-11.2   l3.3,12.3c0.1,0.3-0.1,0.6-0.4,0.7l-2,0.6L223.5,174.1z M218.3,151.8l5.6,21l1-0.3l-3.9-14.8c-0.1-0.3,0.1-0.5,0.3-0.6   c0.2-0.1,0.5,0,0.7,0.2l9.2,13.5l1.1-0.3l-5.5-21l-1,0.3l3.9,15c0.1,0.3-0.1,0.5-0.3,0.6c-0.2,0.1-0.5,0-0.7-0.2l-9.3-13.6   L218.3,151.8z" />	<polygon id="XMLID_46_" class="st2" points="233.7,147.6 231.6,148 235.1,170.5 237.2,170.2  " />	<path id="XMLID_49_" class="st2" d="M235.1,171.1c-0.3,0-0.5-0.2-0.5-0.5l-3.4-22.6c0-0.1,0-0.3,0.1-0.4c0.1-0.1,0.2-0.2,0.3-0.2   l2-0.3c0.3,0,0.6,0.2,0.6,0.4l3.5,22.6c0,0.1,0,0.3-0.1,0.4c-0.1,0.1-0.2,0.2-0.4,0.2L235.1,171.1L235.1,171.1z M232.3,148.4   l3.3,21.5l1.1-0.2l-3.4-21.5L232.3,148.4z" />	<polygon id="XMLID_50_" class="st2" points="248.9,146.1 237.6,146.9 237.8,149.1 242.4,148.8 243.8,169.4 245.9,169.2    244.5,148.6 249.1,148.3  " />	<path id="XMLID_53_" class="st2" d="M243.8,170c-0.1,0-0.2,0-0.3-0.1c-0.1-0.1-0.2-0.2-0.2-0.4l-1.4-20.1l-4,0.3   c-0.3,0-0.5-0.2-0.6-0.5l-0.2-2.2c0-0.1,0-0.3,0.1-0.4c0.1-0.1,0.2-0.2,0.4-0.2l11.2-0.8c0.3,0,0.5,0.2,0.6,0.5l0.2,2.2   c0,0.1,0,0.3-0.1,0.4c-0.1,0.1-0.2,0.2-0.4,0.2l-4,0.3l1.4,20.1c0,0.3-0.2,0.5-0.5,0.6L243.8,170L243.8,170z M242.4,148.2   c0.3,0,0.5,0.2,0.5,0.5l1.4,20.1l1.1-0.1l-1.4-20.1c0-0.1,0-0.3,0.1-0.4c0.1-0.1,0.2-0.2,0.4-0.2l4-0.3l-0.1-1.1l-10.2,0.7l0.1,1.1   L242.4,148.2L242.4,148.2z" />	<polygon id="XMLID_54_" class="st2" points="252.4,145.9 257.1,154.4 255.7,169.3 257.9,169.5 259.2,154.7 265.3,147 262.8,146.8    258.4,152.4 254.8,146.1  " />	<path id="XMLID_57_" class="st2" d="M257.9,170.1L257.9,170.1l-2.2-0.2c-0.3,0-0.5-0.3-0.5-0.6l1.3-14.7l-4.6-8.4   c-0.1-0.2-0.1-0.4,0-0.6c0.1-0.2,0.3-0.3,0.5-0.2l2.4,0.2c0.2,0,0.3,0.1,0.4,0.3l3.2,5.6l4-4.9c0.1-0.1,0.3-0.2,0.5-0.2l2.4,0.2   c0.2,0,0.4,0.1,0.4,0.3c0.1,0.2,0,0.4-0.1,0.6l-6,7.6l-1.3,14.6c0,0.1-0.1,0.3-0.2,0.4C258.1,170,258,170.1,257.9,170.1z    M256.3,168.8l1.1,0.1l1.3-14.3c0-0.1,0-0.2,0.1-0.3l5.5-6.9l-1.2-0.1l-4.3,5.3c-0.1,0.1-0.3,0.2-0.5,0.2c-0.2,0-0.3-0.1-0.4-0.3   l-3.4-6l-1.2-0.1l4.2,7.6c0.1,0.1,0.1,0.2,0.1,0.3L256.3,168.8z" />	<polygon id="XMLID_58_" class="st2" points="283,158.6 284.9,152.3 274.1,148.9 267.6,170.8 278.3,174 279.9,168.6 277.9,168    276.9,171.4 270.2,169.3 275.5,151.6 282.2,153.7 281,158  " />	<path id="XMLID_61_" class="st2" d="M278.3,174.6l-0.2,0l-10.7-3.3c-0.3-0.1-0.4-0.4-0.4-0.7l6.5-21.9c0-0.1,0.1-0.3,0.3-0.3   c0.1-0.1,0.3-0.1,0.4,0l10.8,3.4c0.3,0.1,0.4,0.4,0.4,0.7l-1.9,6.4c-0.1,0.3-0.4,0.4-0.7,0.4l-2-0.6c-0.3-0.1-0.4-0.4-0.4-0.7   l1.1-3.8l-5.7-1.7l-5,16.6l5.7,1.7l0.9-2.9c0.1-0.3,0.4-0.4,0.7-0.4l2,0.6c0.1,0,0.2,0.1,0.3,0.3c0.1,0.1,0.1,0.3,0,0.4l-1.6,5.4   C278.8,174.4,278.5,174.6,278.3,174.6z M268.2,170.4l9.7,3l1.3-4.4l-1-0.3l-0.9,2.9c-0.1,0.3-0.4,0.4-0.7,0.4l-6.7-2.1   c-0.3-0.1-0.4-0.4-0.4-0.7l5.3-17.7c0-0.1,0.1-0.3,0.3-0.3c0.1-0.1,0.3-0.1,0.4,0l6.7,2.1c0.3,0.1,0.4,0.4,0.4,0.7l-1.1,3.8l1,0.3   l1.6-5.3l-9.8-3.1L268.2,170.4z" />	<path id="XMLID_64_" class="st2" d="M290.5,154.2l-9.8,20.5l10.1,5l9.8-20.5L290.5,154.2z M289.8,176.9l-6.3-3.1l8-16.6l6.3,3.1   L289.8,176.9z" />	<path id="XMLID_69_" class="st2" d="M290.8,180.3l-0.2-0.1l-10.1-5c-0.3-0.1-0.4-0.5-0.2-0.7L290,154c0.1-0.1,0.2-0.2,0.3-0.3   c0.1,0,0.3,0,0.4,0l10.1,5c0.3,0.1,0.4,0.5,0.2,0.7l-9.8,20.5c-0.1,0.1-0.2,0.2-0.3,0.3L290.8,180.3z M281.4,174.5l9.2,4.6   l9.4-19.6l-9.2-4.6L281.4,174.5z M289.8,177.5l-0.2-0.1l-6.3-3.1c-0.1-0.1-0.2-0.2-0.3-0.3c0-0.1,0-0.3,0-0.4l8-16.6   c0.1-0.3,0.4-0.4,0.7-0.2l6.3,3.1c0.1,0.1,0.2,0.2,0.3,0.3c0,0.1,0,0.3,0,0.4l-8,16.6C290.1,177.3,290,177.5,289.8,177.5z    M284.2,173.6l5.3,2.6l7.5-15.7l-5.3-2.6L284.2,173.6z" />	<polygon id="XMLID_70_" class="st2" points="293.1,181 302.1,187.8 303.4,186.1 296,180.6 308,163.9 306.3,162.5  " />	<path id="XMLID_73_" class="st2" d="M302.1,188.3c-0.1,0-0.2,0-0.3-0.1l-9-6.8c-0.2-0.2-0.3-0.5-0.1-0.7l13.2-18.5   c0.1-0.1,0.2-0.2,0.4-0.2c0.1,0,0.3,0,0.4,0.1l1.7,1.3c0.2,0.2,0.3,0.5,0.1,0.7l-11.6,16.3l7,5.1c0.1,0.1,0.2,0.2,0.2,0.4   c0,0.1,0,0.3-0.1,0.4l-1.3,1.7C302.4,188.3,302.3,188.3,302.1,188.3z M293.8,180.9l8.2,6.1l0.7-0.9l-7-5.1   c-0.2-0.2-0.3-0.5-0.1-0.8l11.6-16.3l-0.9-0.7L293.8,180.9z" />	<polygon id="XMLID_74_" class="st2" points="304.2,189.3 312,197.6 313.5,196 307.2,189.3 321.9,175.1 320.3,173.4  " />	<path id="XMLID_77_" class="st2" d="M312,198.1L312,198.1c-0.1,0-0.3-0.1-0.4-0.2l-7.8-8.2c-0.2-0.2-0.2-0.6,0-0.8L320,173   c0.1-0.1,0.2-0.2,0.4-0.2c0.1,0,0.3,0.1,0.4,0.2l1.5,1.6c0.2,0.2,0.2,0.6,0,0.8l-14.3,13.9l6,6.3c0.2,0.2,0.2,0.5,0,0.8l-1.5,1.5   C312.3,198,312.2,198.1,312,198.1z M305,189.4l7.1,7.4l0.8-0.8l-6-6.3c-0.1-0.1-0.2-0.2-0.2-0.4c0-0.1,0.1-0.3,0.2-0.4l14.3-13.9   l-0.8-0.9L305,189.4z" />	<polygon id="XMLID_78_" class="st2" points="320.2,208.7 322.1,207.4 316.8,199.8 323.4,195.2 328.6,202.7 330.4,201.5    325.1,193.9 331.7,189.2 336.9,196.8 338.7,195.5 332.3,186.2 313.9,199.3  " />	<path id="XMLID_81_" class="st2" d="M320.2,209.2c-0.2,0-0.3-0.1-0.4-0.2l-6.4-9.3c-0.2-0.2-0.1-0.6,0.1-0.7l18.4-13.1   c0.1-0.1,0.3-0.1,0.4-0.1c0.1,0,0.3,0.1,0.3,0.2l6.4,9.3c0.2,0.2,0.1,0.6-0.1,0.7l-1.7,1.3c-0.1,0.1-0.3,0.1-0.4,0.1   c-0.1,0-0.3-0.1-0.4-0.2l-5-7.2l-5.7,4l5,7.2c0.2,0.2,0.1,0.6-0.1,0.8l-1.7,1.2c-0.2,0.2-0.6,0.1-0.7-0.1l-5-7.1l-5.7,4l5,7.2   c0.1,0.1,0.1,0.3,0.1,0.4c0,0.1-0.1,0.3-0.2,0.3l-1.8,1.2C320.4,209.2,320.3,209.2,320.2,209.2z M314.6,199.4l5.8,8.5l0.9-0.6   l-5-7.1c-0.1-0.1-0.1-0.3-0.1-0.4c0-0.1,0.1-0.3,0.2-0.3l6.6-4.6c0.2-0.2,0.6-0.1,0.7,0.1l5,7.1l0.9-0.6l-5-7.2   c-0.1-0.1-0.1-0.3-0.1-0.4c0-0.1,0.1-0.3,0.2-0.3l6.6-4.6c0.2-0.2,0.6-0.1,0.7,0.1l4.9,7.1l0.9-0.7l-5.8-8.5L314.6,199.4z" />	<polygon id="XMLID_82_" class="st2" points="334.2,210.2 332.3,211.1 334.1,215.2 327.5,218.3 324.6,211.9 341.1,204 344,210.6    340,212.5 340.9,214.4 346.9,211.6 342.1,201.2 321.7,210.8 326.5,221.2 336.9,216.3  " />	<path id="XMLID_85_" class="st2" d="M326.5,221.7l-0.2,0c-0.1,0-0.2-0.1-0.3-0.3l-4.8-10.4c-0.1-0.3,0-0.6,0.3-0.7l20.3-9.7   c0.1-0.1,0.3-0.1,0.4,0c0.1,0,0.2,0.2,0.3,0.3l4.8,10.5c0.1,0.1,0.1,0.3,0,0.4c0,0.1-0.1,0.2-0.3,0.3l-6,2.8   c-0.3,0.1-0.6,0-0.7-0.3l-0.9-2c-0.1-0.1-0.1-0.3,0-0.4c0-0.1,0.2-0.2,0.3-0.3l3.6-1.6l-2.5-5.6l-15.5,7.4l2.5,5.4l5.6-2.6   l-1.6-3.6c-0.1-0.3,0-0.6,0.3-0.7l1.9-0.9c0.1-0.1,0.3-0.1,0.4,0c0.1,0,0.2,0.2,0.3,0.3l2.7,6.1c0.1,0.3,0,0.6-0.3,0.7l-10.4,4.9   L326.5,221.7z M322.5,211.1l4.3,9.4l9.5-4.5l-2.3-5.1l-1,0.5l1.6,3.6c0.1,0.3,0,0.6-0.3,0.7l-6.6,3.1c-0.3,0.1-0.6,0-0.7-0.3   l-2.9-6.4c-0.1-0.3,0-0.6,0.3-0.7l16.5-7.9c0.1-0.1,0.3-0.1,0.4,0c0.1,0,0.2,0.2,0.3,0.3l2.9,6.6c0.1,0.1,0.1,0.3,0,0.4   c-0.1,0.1-0.2,0.2-0.3,0.3l-3.6,1.6l0.5,1l5-2.3l-4.3-9.5L322.5,211.1z" />	<polygon id="XMLID_86_" class="st2" points="339.8,221.9 347.5,219.4 350.2,228.3 352.2,227.7 348.9,216.8 327.4,223.4    330.8,234.3 332.8,233.7 330.1,224.9 337.7,222.4 340.5,231.4 342.5,230.6  " />	<path id="XMLID_89_" class="st2" d="M330.8,234.9c-0.2,0-0.4-0.1-0.5-0.4l-3.3-10.9c0-0.1,0-0.3,0-0.4c0.1-0.1,0.2-0.2,0.3-0.3   l21.5-6.7c0.3-0.1,0.6,0.1,0.7,0.4l3.3,10.9c0,0.1,0,0.3,0,0.4c-0.1,0.1-0.2,0.2-0.3,0.3l-2,0.6c-0.3,0.1-0.6-0.1-0.7-0.4l-2.6-8.3   l-6.7,2.1l2.6,8.2c0.1,0.3-0.1,0.6-0.3,0.7l-2,0.7c-0.1,0-0.3,0-0.4,0c-0.1-0.1-0.2-0.2-0.3-0.3l-2.6-8.4l-6.7,2.1l2.6,8.3   c0,0.1,0,0.3,0,0.4s-0.2,0.2-0.3,0.3l-2,0.6L330.8,234.9z M328.1,223.8l3,9.9l1-0.3l-2.6-8.3c-0.1-0.3,0.1-0.6,0.3-0.7l7.7-2.5   c0.1,0,0.3,0,0.4,0c0.1,0.1,0.2,0.2,0.3,0.3l2.6,8.4l1-0.4l-2.6-8.2c0-0.1,0-0.3,0-0.4c0.1-0.1,0.2-0.2,0.3-0.3l7.7-2.5   c0.1,0,0.3,0,0.4,0c0.1,0.1,0.2,0.2,0.3,0.3l2.6,8.3l1-0.3l-3-9.9L328.1,223.8z" />	<path id="XMLID_92_" class="st2" d="M178.6,96.5L151.3,98l20.6,48.1c-9.5,8.2-18.9,18-28.1,29.5l-47-19.7v26.6l-2.1,2.4   c-4.6,5.2-8.7,11-12.4,17.3c-11.5,20.1-16.1,41.5-13.5,64.2c0.2,2.5,0.5,4.3,0.7,5.6c0.7,4.4,2,9.1,3.8,14.2   c4.9,13.7,12.7,26.4,23.4,38.2v28.2l46.4-23.5c2.1,2.7,4.6,5.4,7.3,8.4c8.1,8.9,16,16.1,23.9,21.7l-19.7,45.7l27.2,0.6l1.3,1.2   c4.3,3.6,8.9,7,14,10c16.1,9.7,33.8,14.8,53.2,15.3c19.3-0.5,37.1-5.6,53.1-15.3c5.1-3.1,9.7-6.4,13.9-10.1l1.2-1.1l27.2-0.6   l-19.7-45.7c7.9-5.5,15.8-12.7,23.9-21.7c2.2-2.5,4.7-5.2,7.3-8.4l46.3,23.5v-28.2c10.7-11.8,18.5-24.5,23.5-38.2   c1.8-5,3-9.8,3.7-14.2c0.3-1.3,0.5-3.2,0.8-5.6c2.5-22.7-1.9-44.1-13.6-64.2c-3.6-6.3-7.7-12-12.4-17.3l-2.1-2.4v-26.6l-47,19.7   c-9.1-11.5-18.5-21.3-28.1-29.5L348.7,98l-27.2-1.5c-11.7-12-26.6-20.2-44.7-24.9c-9.4-2.5-18.2-3.6-26.6-3.6   c-8.3,0-17.2,1.1-26.5,3.6C205.2,76.3,190.2,84.6,178.6,96.5z M160.3,103.7l21-1.2c11-11.9,25.6-20.2,43.7-24.9   c8.8-2.3,17.2-3.4,25.1-3.4c8,0,16.4,1.1,25.1,3.4c18,4.6,32.5,12.9,43.5,24.9l21.1,1.2L320.8,148c11.4,9.2,22.7,21,33.6,35   l42.8-18v19.9c1.1,1.1,2.3,2.5,3.6,3.9c4.3,4.9,8.2,10.5,11.6,16.4c10.9,18.9,15.2,39,12.7,60.5c-0.1,1.5-0.3,3.2-0.6,5.1   c-0.8,4.3-1.9,8.7-3.5,13.1c-5,13.6-12.9,26.2-23.8,37.8v20.9l-42-21.4c-3.1,4.1-6.5,8.1-10,12c-9,10-18,17.9-27,23.6l18.2,41.9   l-20.6,0.5l-2.7,2.6c-4,3.5-8.4,6.7-13,9.3c-15.2,9.2-31.8,14-50,14.5c-18.1-0.5-34.8-5.2-50.1-14.4c-4.9-3-9.2-6.1-13.2-9.4   l-2.8-2.6l-20.5-0.5l18.1-41.9c-8.8-5.6-17.8-13.6-27-23.6c-3.4-3.9-6.8-7.9-10-12l-42,21.4v-20.9C91.7,310.2,83.8,297.6,79,284   c-1.7-4.7-2.8-9-3.5-13.1c-0.4-2-0.6-3.6-0.7-5.1c-2.4-21.5,1.7-41.6,12.8-60.5c3.4-6,7.3-11.5,11.6-16.4l3.5-3.9V165l42.9,18   c10.9-14.2,22.2-25.9,33.6-35L160.3,103.7z" />	<path id="XMLID_95_" class="st2" d="M250.2,432.5L250.2,432.5c-19.3-0.5-37.3-5.7-53.4-15.4c-4.8-2.8-9.5-6.2-14-10l-1.2-1.1   l-27-0.6c-0.2,0-0.3-0.1-0.4-0.2c-0.1-0.2-0.1-0.3,0-0.5l19.6-45.3c-7.8-5.5-15.5-12.5-23.6-21.5c-2.9-3.1-5.1-5.7-7-8.1l-46,23.3   c-0.2,0.1-0.4,0.1-0.5,0c-0.2-0.1-0.3-0.3-0.3-0.5v-28c-10.7-11.8-18.5-24.6-23.4-38.2c-1.9-5.3-3.2-9.9-3.9-14.3l-0.1-0.4   c-0.2-1.3-0.5-3-0.6-5.3c-2.6-22.6,1.9-44.3,13.5-64.5c3.6-6.2,7.8-12,12.4-17.3l2-2.2v-26.4c0-0.2,0.1-0.3,0.2-0.4   c0.1-0.1,0.3-0.1,0.5,0l46.6,19.6c8.8-10.9,18.1-20.7,27.7-29l-20.4-47.7c-0.1-0.2-0.1-0.3,0-0.5c0.1-0.2,0.2-0.2,0.4-0.3l27.1-1.5   c11.7-11.9,26.8-20.3,45.1-24.9c9.1-2.4,18-3.6,26.7-3.6c8.7,0,17.5,1.2,26.8,3.6c18.1,4.6,33.2,13,44.9,24.9l27,1.5   c0.2,0,0.3,0.1,0.4,0.3c0.1,0.2,0.1,0.3,0,0.5l-20.4,47.7c9.7,8.3,19,18,27.7,29l46.6-19.6c0.2-0.1,0.4-0.1,0.5,0   c0.1,0.1,0.2,0.3,0.2,0.4v26.4l2,2.2c4.5,5.1,8.6,10.8,12.4,17.3c11.6,20,16.2,41.8,13.6,64.5l-0.1,1c-0.2,2-0.4,3.5-0.7,4.7   c-0.7,4.6-2,9.4-3.8,14.2c-5,13.7-12.9,26.5-23.5,38.2v28c0,0.2-0.1,0.4-0.3,0.5c-0.2,0.1-0.4,0.1-0.5,0l-45.9-23.3   c-2.2,2.7-4.5,5.4-7,8.1c-8.1,8.9-15.8,16-23.6,21.5l19.6,45.3c0.1,0.2,0.1,0.4,0,0.5c-0.1,0.2-0.3,0.2-0.4,0.2l-27,0.6l-1.1,1   c-3.9,3.5-8.5,6.8-14,10.1C287.4,426.8,269.5,432,250.2,432.5L250.2,432.5z M155.3,404.3l26.4,0.6c0.1,0,0.3,0.1,0.3,0.1l1.3,1.2   c4.5,3.8,9.1,7.1,13.9,9.9c16,9.6,33.8,14.7,52.9,15.2c19.1-0.5,36.9-5.6,52.8-15.2c5.4-3.3,9.9-6.6,13.8-10l1.2-1.1   c0.1-0.1,0.2-0.1,0.3-0.1l26.4-0.6l-19.4-45c-0.1-0.2,0-0.5,0.2-0.7c7.8-5.5,15.6-12.6,23.8-21.6c2.6-2.9,5-5.6,7.3-8.4   c0.2-0.2,0.4-0.2,0.6-0.1l45.5,23.1v-27.4c0-0.1,0.1-0.3,0.1-0.4c10.6-11.6,18.4-24.4,23.4-38c1.7-4.8,3-9.5,3.7-14.1   c0.3-1.2,0.5-2.7,0.7-4.7l0.1-1c2.5-22.5-2-44-13.5-63.9c-3.8-6.5-7.8-12.1-12.3-17.2l-2.1-2.4c-0.1-0.1-0.1-0.2-0.1-0.4v-25.8   l-46.2,19.4c-0.2,0.1-0.5,0-0.6-0.2c-8.8-11.1-18.3-21-28.1-29.4c-0.2-0.2-0.2-0.4-0.1-0.6l20.2-47.4L321.4,97   c-0.1,0-0.3-0.1-0.3-0.2c-11.5-11.8-26.5-20.1-44.5-24.7c-9.2-2.4-17.9-3.6-26.5-3.6c-8.5,0-17.4,1.2-26.4,3.6   C205.6,76.7,190.5,85,179,96.9c-0.1,0.1-0.2,0.2-0.3,0.2l-26.6,1.5l20.2,47.4c0.1,0.2,0,0.5-0.1,0.6c-9.7,8.4-19.2,18.3-28.1,29.4   c-0.1,0.2-0.4,0.2-0.6,0.2l-46.2-19.4v25.8c0,0.1-0.1,0.3-0.1,0.4l-2.1,2.4c-4.6,5.3-8.7,11.1-12.3,17.2   c-11.5,20-16,41.5-13.4,63.9c0.2,2.2,0.4,3.9,0.6,5.2l0.1,0.4c0.7,4.3,1.9,8.9,3.8,14.1c4.8,13.5,12.6,26.3,23.3,38   c0.1,0.1,0.1,0.2,0.1,0.4v27.4l45.6-23.1c0.2-0.1,0.5-0.1,0.7,0.1c2,2.5,4.3,5.1,7.3,8.4c8.2,9,16,16.1,23.8,21.6   c0.2,0.1,0.3,0.4,0.2,0.7L155.3,404.3z" />	<path id="XMLID_98_" class="st2" d="M250.2,426.3L250.2,426.3c-18.3-0.5-35.2-5.4-50.4-14.5c-5.1-3.1-9.4-6.2-13.2-9.5l-2.7-2.4   l-20.3-0.5c-0.2,0-0.3-0.1-0.4-0.2c-0.1-0.2-0.1-0.3,0-0.5l17.9-41.5c-8.6-5.6-17.6-13.5-26.8-23.5c-3.3-3.8-6.6-7.7-9.8-11.7   l-41.6,21.2c-0.2,0.1-0.4,0.1-0.5,0c-0.2-0.1-0.3-0.3-0.3-0.5v-20.6c-10.8-11.5-18.8-24.3-23.7-37.8c-1.6-4.5-2.8-8.8-3.6-13.2   c-0.4-1.8-0.6-3.5-0.7-5.2c-2.4-21.6,1.9-42,12.8-60.8c3.6-6.3,7.6-11.8,11.7-16.5l3.4-3.8V165c0-0.2,0.1-0.3,0.2-0.4   c0.1-0.1,0.3-0.1,0.5-0.1l42.6,17.8c10.7-13.9,21.9-25.5,33.1-34.5l-18.8-43.9c-0.1-0.2-0.1-0.3,0-0.5s0.2-0.2,0.4-0.3l20.7-1.2   c11.1-11.9,25.8-20.3,43.8-24.9c8.8-2.3,17.3-3.4,25.2-3.4c8,0,16.5,1.1,25.2,3.4c17.9,4.6,32.6,12.9,43.6,24.9l20.8,1.2   c0.2,0,0.3,0.1,0.4,0.3s0.1,0.3,0,0.5l-18.8,43.9c11.2,9.1,22.4,20.7,33.1,34.5l42.5-17.8c0.2-0.1,0.3-0.1,0.5,0.1   c0.1,0.1,0.2,0.3,0.2,0.4v19.7c1,1,2.1,2.2,3.2,3.4l0.3,0.3c4.3,5,8.3,10.6,11.7,16.5c11,19,15.2,39.4,12.7,60.8   c-0.1,1.5-0.3,3.1-0.6,5.2c-0.9,4.9-2.1,9.2-3.6,13.3c-5,13.6-13,26.3-23.8,37.8v20.6c0,0.2-0.1,0.4-0.3,0.5   c-0.2,0.1-0.4,0.1-0.5,0L355.4,322c-3.1,4-6.3,7.9-9.8,11.7c-8.9,9.9-17.9,17.8-26.8,23.5l18,41.5c0.1,0.2,0.1,0.4,0,0.5   c-0.1,0.2-0.3,0.2-0.4,0.2l-20.4,0.5l-2.6,2.4c-4.2,3.7-8.6,6.8-13.1,9.4C285.2,421,268.8,425.8,250.2,426.3L250.2,426.3z    M164.4,398.4l19.7,0.5c0.1,0,0.2,0.1,0.3,0.1l2.8,2.6c3.8,3.2,8,6.3,13.1,9.4c15,9,31.8,13.8,49.8,14.3   c18.4-0.5,34.7-5.2,49.7-14.4c4.4-2.6,8.7-5.7,12.9-9.3l2.7-2.6c0.1-0.1,0.2-0.1,0.3-0.1l19.8-0.5l-17.9-41.2   c-0.1-0.2,0-0.5,0.2-0.7c8.9-5.7,17.9-13.6,26.9-23.5c3.5-3.9,6.9-7.9,10-12c0.2-0.2,0.4-0.3,0.7-0.2l41.2,21v-20   c0-0.1,0.1-0.3,0.1-0.4c10.8-11.4,18.7-24.1,23.7-37.6c1.5-4,2.6-8.3,3.5-13.1c0.3-2,0.5-3.6,0.6-5.1c2.5-21.2-1.7-41.4-12.6-60.2   c-3.4-5.9-7.3-11.4-11.6-16.4l-0.3-0.3c-1.2-1.3-2.3-2.5-3.3-3.6c-0.1-0.1-0.2-0.2-0.2-0.4v-19.1l-42.1,17.7   c-0.2,0.1-0.5,0-0.6-0.2c-10.9-14-22.2-25.8-33.5-34.9c-0.2-0.2-0.3-0.4-0.2-0.6l18.6-43.6l-20.3-1.2c-0.1,0-0.3-0.1-0.4-0.2   c-11-11.8-25.5-20.2-43.3-24.7c-8.6-2.2-17-3.4-25-3.4c-7.9,0-16.3,1.1-25,3.4c-17.9,4.6-32.5,12.9-43.5,24.7   c-0.1,0.1-0.2,0.2-0.4,0.2l-20.2,1.2l18.6,43.6c0.1,0.2,0,0.5-0.2,0.6c-11.4,9.1-22.7,20.8-33.5,34.9c-0.1,0.2-0.4,0.3-0.6,0.2   l-42.2-17.7v19.1c0,0.1-0.1,0.3-0.1,0.4l-3.5,3.9c-4.1,4.6-8,10.1-11.6,16.3c-10.8,18.6-15.1,38.8-12.7,60.2   c0.1,1.7,0.3,3.3,0.7,5.1c0.8,4.4,1.9,8.6,3.5,13.1c4.8,13.5,12.8,26.1,23.6,37.6c0.1,0.1,0.1,0.2,0.1,0.4v20l41.2-21   c0.2-0.1,0.5-0.1,0.7,0.1c3.2,4.1,6.6,8.1,10,12c9.2,10.1,18.3,18,26.9,23.5c0.2,0.1,0.3,0.4,0.2,0.7L164.4,398.4z" />	<path id="XMLID_101_" class="st1" d="M184.1,108.4c-5,0.3-9.9,0.6-14.8,0.9l17.4,40.7c-3,2.1-7,5.2-11.7,9.7   c-9.6,8.8-18.7,19.1-27.4,30.9l-38.7-16.3v13.4l-5.2,5.3c-4.2,4.7-7.8,9.8-11,15.4c-10.3,17.8-14.3,36.8-11.8,56.9l0.5,4.6   c0.7,3.8,1.8,7.8,3.3,12c4.9,13.5,12.9,26,24.2,37.5v13.3l37.7-19.1l3.4,4.6c2.8,3.7,6,7.4,9.2,11c10.4,11.5,20.6,19.9,30.3,25.4   L172.7,393l14,0.3l4.2,4c3.7,3.2,7.8,6.1,12.3,8.7c14.4,8.6,30.1,13.1,47.1,13.7c17-0.5,32.7-5,46.9-13.7c4.5-2.7,8.5-5.5,12.1-8.7   l4.2-4l13.9-0.3l-16.7-38.5c9.8-5.4,19.9-13.9,30.4-25.4c5.2-5.8,9.4-10.9,12.7-15.6l37.7,19.1v-13.3c11.2-11.5,19.3-24,24.2-37.5   c1.4-4.1,2.5-8.2,3.2-12l0.6-4.6c2.3-20.1-1.6-39.1-11.9-56.9c-3.1-5.5-6.9-10.7-10.9-15.4l-5.2-5.3v-13.4l-38.8,16.3   c-8.7-11.8-17.8-22.1-27.3-30.9l-11.7-9.7l17.4-40.7l-14.9-0.9c-10.3-12-24.4-20.3-42.2-24.9c-5.5-1.4-11.1-2.4-16.7-2.9l-6.9-0.3   c-6.8-0.2-14.7,0.9-23.6,3.2C208.6,88.1,194.5,96.4,184.1,108.4z M256.5,86.7c5.3,0.5,10.5,1.4,15.7,2.8   c16.5,4.2,29.6,11.9,39.1,23l1.7,2l8.7,0.5l-16,37.3l5.2,3.7c3.9,2.9,7.3,5.6,10.1,8.3c9.3,8.6,18.2,18.6,26.6,29.9l2.7,3.8   l34.7-14.6v7.1l6.8,6.6c3.7,4.3,7.2,9.1,10.2,14.4c9.6,16.6,13.4,34.4,11,53.3l-0.5,4c-0.5,3.3-1.5,7-2.9,11.1   c-4.6,12.5-12.1,24.2-22.8,35.2l-1.8,1.7v6l-33.6-17.1l-2.9,4.3c-3.1,4.4-7.2,9.4-12.3,14.9c-9.9,11-19.4,19-28.7,24l-4.9,2.8   l15.3,35.3l-7.5,0.2l-5.4,5.3c-3.3,3-7.1,5.6-11.2,8.2c-13.4,8-27.9,12.2-43.8,12.7c-15.8-0.5-30.5-4.7-44-12.8   c-4-2.4-7.8-5.1-11.4-8.1l-5.4-5.3l-7.4-0.2l15.3-35.3l-4.9-2.8c-9.2-5-18.7-13-28.8-24c-3-3.4-6.1-6.9-8.9-10.5l-6.3-8.7   l-33.6,17.1v-6l-1.7-1.7c-10.6-10.9-18.2-22.6-22.8-35.2c-1.4-4.1-2.4-7.8-3-11.1l-0.5-4c-2.1-18.8,1.5-36.6,11-53.3   c3.1-5.2,6.5-10.1,10.3-14.4l6.7-6.6v-7.1l34.7,14.6l2.8-3.8c8.4-11.3,17.2-21.3,26.6-29.9c4.5-4.2,9.6-8.2,15.2-12L178.3,115   l8.7-0.5l1.6-2c9.6-11.1,22.7-18.8,39.4-23c8.3-2.2,15.7-3.2,22.1-3.1L256.5,86.7z" />	<path id="XMLID_104_" class="st1" d="M250.2,414.1L250.2,414.1c-15.9-0.5-30.8-4.9-44.3-12.9c-3.6-2.1-7.3-4.7-11.5-8.2l-5.3-5.2   l-7.2-0.2c-0.2,0-0.3-0.1-0.4-0.2c-0.1-0.2-0.1-0.3,0-0.5l15.1-34.9l-4.4-2.5c-9.2-5-18.7-12.9-28.9-24.1   c-2.5-2.8-5.8-6.6-8.9-10.5l-6-8.4L115,323.3c-0.2,0.1-0.4,0.1-0.5,0c-0.2-0.1-0.3-0.3-0.3-0.5V317l-1.6-1.6   c-10.7-10.9-18.4-22.8-22.9-35.4c-1.4-4.1-2.5-7.9-3.1-11.2l-0.5-4c-2.1-18.9,1.6-36.9,11.1-53.6c3.5-5.8,6.9-10.5,10.4-14.5   l6.5-6.4v-6.9c0-0.2,0.1-0.3,0.2-0.4c0.1-0.1,0.3-0.1,0.5,0l34.3,14.4l2.6-3.5c8.6-11.6,17.4-21.4,26.7-30   c4.1-3.9,9.1-7.9,14.9-11.8l-15.7-36.9c-0.1-0.2-0.1-0.3,0-0.5c0.1-0.2,0.2-0.2,0.4-0.3l8.5-0.5l1.5-1.8   c9.7-11.2,23.1-19,39.7-23.2c8.3-2.2,15.8-3.2,22.2-3.1l6.5,0.3c5.3,0.5,10.7,1.5,15.8,2.8c16.5,4.2,29.8,12,39.3,23.2l1.6,1.8   l8.5,0.5c0.2,0,0.3,0.1,0.4,0.3s0.1,0.3,0,0.5l-15.8,36.9l4.8,3.4c3.8,2.8,7.2,5.6,10.2,8.4c9.4,8.7,18.4,18.8,26.7,30l2.5,3.5   l34.3-14.4c0.2-0.1,0.4-0.1,0.5,0c0.1,0.1,0.2,0.3,0.2,0.4v6.9l6.6,6.4c3.8,4.4,7.3,9.3,10.3,14.5c9.7,16.8,13.4,34.8,11.1,53.6   l-0.5,4c-0.5,3.2-1.5,6.8-3,11.2c-4.5,12.5-12.2,24.4-22.9,35.4l-1.7,1.6v5.7c0,0.2-0.1,0.4-0.3,0.5c-0.2,0.1-0.4,0.1-0.5,0   l-33.2-16.8l-2.7,3.9c-3.5,4.9-7.6,9.9-12.3,15c-9.9,11-19.6,19.1-28.8,24.1l-4.4,2.5l15.1,34.9c0.1,0.2,0.1,0.4,0,0.5   c-0.1,0.2-0.3,0.2-0.4,0.2l-7.3,0.2l-5.2,5.2c-3.2,2.8-6.9,5.5-11.3,8.3C281,409.3,266.1,413.6,250.2,414.1L250.2,414.1z    M182.7,386.6l6.6,0.2c0.1,0,0.3,0.1,0.4,0.2l5.4,5.3c4.1,3.4,7.8,5.9,11.3,8c13.3,8,28,12.3,43.8,12.8   c15.8-0.5,30.4-4.8,43.6-12.7c4.4-2.7,8.1-5.4,11.2-8.2l5.3-5.3c0.1-0.1,0.2-0.2,0.4-0.2l6.7-0.2l-15-34.6c-0.1-0.3,0-0.6,0.2-0.7   l4.9-2.8c9.1-4.9,18.7-13,28.5-23.9c4.7-5,8.8-10,12.2-14.8l2.9-4.3c0.2-0.2,0.4-0.3,0.7-0.2l32.8,16.7v-5.1c0-0.1,0.1-0.3,0.2-0.4   l1.8-1.7c10.5-10.9,18.2-22.7,22.6-35c1.5-4.3,2.4-7.9,2.9-11l0.5-4c2.3-18.6-1.4-36.4-11-53c-3-5.2-6.4-10-10.2-14.3l-6.8-6.5   c-0.1-0.1-0.2-0.2-0.2-0.4v-6.3l-34,14.3c-0.2,0.1-0.5,0-0.6-0.2l-2.7-3.8c-8.3-11.1-17.2-21.1-26.6-29.8   c-2.9-2.8-6.3-5.5-10.1-8.3l-5.2-3.7c-0.2-0.1-0.3-0.4-0.2-0.7l15.7-36.6L313,115c-0.1,0-0.3-0.1-0.4-0.2l-1.7-2   c-9.4-11-22.5-18.7-38.8-22.8c-5.1-1.3-10.3-2.2-15.6-2.8L250,87c-0.3,0-0.6,0-0.9,0c-6.1,0-13.2,1-21.1,3.1   c-16.4,4.1-29.6,11.8-39.1,22.8l-1.6,1.9c-0.1,0.1-0.2,0.2-0.4,0.2l-7.9,0.5l15.6,36.6c0.1,0.2,0,0.5-0.2,0.7c-5.9,4-11,8-15.1,12   c-9.3,8.5-18,18.2-26.6,29.8l-2.8,3.8c-0.1,0.2-0.4,0.3-0.6,0.2l-34-14.3v6.3c0,0.1-0.1,0.3-0.2,0.4l-6.7,6.6   c-3.5,3.9-6.8,8.6-10.2,14.3c-9.4,16.5-13.1,34.3-11,53l0.5,4c0.6,3.2,1.6,6.9,3,11c4.5,12.4,12.1,24.2,22.7,35l1.7,1.7   c0.1,0.1,0.2,0.2,0.2,0.4v5.1l32.8-16.7c0.2-0.1,0.5,0,0.7,0.2l6.3,8.7c3.1,3.9,6.4,7.6,8.9,10.4c10.1,11.1,19.5,18.9,28.6,23.9   l4.9,2.8c0.2,0.1,0.3,0.4,0.2,0.7L182.7,386.6z" />	<path id="XMLID_107_" class="st1" d="M250.2,420.3L250.2,420.3c-17.1-0.5-33-5.1-47.3-13.7c-4.5-2.7-8.6-5.6-12.3-8.8l-4-3.9   l-13.8-0.3c-0.2,0-0.3-0.1-0.4-0.2c-0.1-0.2-0.1-0.3,0-0.5l16.5-38.1c-9.7-5.5-19.8-14-30-25.2c-3.5-3.9-6.6-7.6-9.2-11l-3.2-4.3   l-37.3,18.9c-0.2,0.1-0.4,0.1-0.5,0c-0.2-0.1-0.3-0.3-0.3-0.5v-13c-11.1-11.3-19.3-24-24.2-37.5c-1.5-4.2-2.7-8.3-3.4-12.1   l-0.5-4.7c-2.4-20.2,1.6-39.4,11.9-57.2c3.2-5.5,6.8-10.6,11.1-15.5l5-5.2v-13.1c0-0.2,0.1-0.3,0.2-0.4c0.1-0.1,0.3-0.1,0.5,0   l38.3,16.2c8.6-11.6,17.8-22,27.3-30.7c4.3-4,8.2-7.2,11.4-9.5l-17.2-40.3c-0.1-0.2-0.1-0.3,0-0.5c0.1-0.2,0.2-0.2,0.4-0.3   c4.7-0.3,9.4-0.6,14.2-0.9l0.4,0c10.5-12,24.8-20.4,42.5-24.9c9.3-2.4,17-3.4,23.7-3.2l6.9,0.3c5.9,0.5,11.6,1.5,16.8,2.9   c17.7,4.5,32,12.9,42.3,24.9l14.7,0.9c0.2,0,0.3,0.1,0.4,0.3c0.1,0.2,0.1,0.3,0,0.5L314,149.8l11.4,9.4   c9.5,8.8,18.6,19.1,27.2,30.7l38.4-16.2c0.2-0.1,0.4-0.1,0.5,0c0.1,0.1,0.2,0.3,0.2,0.4v13.1l5,5.2c4.4,5.1,8.1,10.3,11,15.5   c10.3,17.7,14.4,37,12,57.2l-0.6,4.6c-0.7,3.8-1.8,8-3.3,12.1c-4.8,13.4-13,26-24.2,37.5v13c0,0.2-0.1,0.4-0.3,0.5   c-0.2,0.1-0.4,0.1-0.5,0l-37.3-18.9c-3,4.3-6.9,9.2-12.4,15.3c-10.2,11.3-20.3,19.8-30.1,25.2l16.5,38.1c0.1,0.2,0.1,0.4,0,0.5   c-0.1,0.2-0.3,0.2-0.4,0.2l-13.7,0.3l-4,3.9c-3.6,3.1-7.6,6-12.2,8.8C283.2,415.1,267.3,419.8,250.2,420.3L250.2,420.3z    M173.5,392.5l13.2,0.3c0.1,0,0.3,0.1,0.4,0.1l4.2,4c3.7,3.1,7.7,6,12.2,8.7c14.2,8.5,29.9,13.1,46.8,13.6   c17-0.5,32.6-5.1,46.6-13.6c4.6-2.8,8.5-5.6,12.1-8.7l4.1-4c0.1-0.1,0.2-0.1,0.4-0.1l13.1-0.3L310,354.7c-0.1-0.3,0-0.6,0.2-0.7   c9.8-5.4,20-13.9,30.2-25.3c5.6-6.3,9.6-11.2,12.6-15.6c0.2-0.2,0.4-0.3,0.7-0.2l36.9,18.7v-12.4c0-0.1,0.1-0.3,0.2-0.4   c11.2-11.4,19.3-24,24.1-37.3c1.4-4.1,2.5-8.2,3.2-11.9l0.6-4.6c2.3-20-1.7-39-11.9-56.6c-2.9-5.2-6.6-10.3-10.9-15.3l-5.1-5.3   c-0.1-0.1-0.2-0.2-0.2-0.4v-12.5l-38,16c-0.2,0.1-0.5,0-0.6-0.2c-8.6-11.6-17.7-22-27.3-30.8l-11.7-9.6c-0.2-0.2-0.2-0.4-0.2-0.6   l17.1-40l-14.1-0.9c-0.1,0-0.3-0.1-0.4-0.2c-10.2-11.9-24.4-20.2-41.9-24.7c-5.2-1.4-10.8-2.3-16.6-2.9l-6.9-0.3c-0.5,0-1,0-1.6,0   c-6.2,0-13.4,1-21.9,3.2c-17.6,4.4-31.8,12.7-42.1,24.7c-0.1,0.1-0.2,0.2-0.4,0.2l-0.6,0c-4.5,0.3-9,0.6-13.4,0.8l17.1,40   c0.1,0.2,0,0.5-0.2,0.7c-3.2,2.2-7.3,5.5-11.7,9.6c-9.5,8.7-18.7,19.1-27.4,30.8c-0.1,0.2-0.4,0.3-0.6,0.2l-37.9-16v12.5   c0,0.1-0.1,0.3-0.2,0.4l-5.2,5.3c-4.2,4.8-7.8,9.8-11,15.3c-10.2,17.6-14.2,36.6-11.8,56.6l0.5,4.6c0.7,3.7,1.8,7.7,3.3,11.9   c4.9,13.5,13,26,24.1,37.3c0.1,0.1,0.2,0.2,0.2,0.4v12.4l36.9-18.7c0.2-0.1,0.5-0.1,0.7,0.2l3.4,4.6c2.6,3.4,5.7,7.1,9.2,11   c10.2,11.3,20.4,19.8,30.1,25.3c0.2,0.1,0.3,0.4,0.2,0.7L173.5,392.5z" />	<path id="XMLID_108_" class="st2" d="M214.3,349.4c0,0.1-0.7,0.8-1.7,2.1c-0.9,0.8-1.2,1.3-1.1,1.5c0.5,0.5,1,0.6,1.5,0.5   c0.6-0.2,1.9-0.9,3.9-2.1v0.2c0,1.8-0.3,3.4-0.6,4.7c-1.2-0.3-2.2-0.5-2.7-0.8c-1.8-0.9-3.2-1.2-4.2-0.8c-0.5,0.2-0.8,0.8-0.7,1.6   c0.1,0.9,0.5,1.5,1.1,2c0.7,0.3,2.2,0.8,4.3,1.4c-0.6,0.5-2.1,1.5-4.7,3c-1.9,1.2-1.2,2.1,2.2,2.3c1.5,0.1,2.7-0.5,3.6-1.7   c0.3-0.5,0.8-0.8,1.6-0.9c1,0,1.6,0.6,1.8,2c0.4,2.3,1.7,3.5,3.8,3.5c0.6,0.1,0.8-0.6,0.3-1.8c-0.8-1.8-1.4-3.2-1.7-4.2l-0.3-0.8   c0.5,0.1,1.2,0.3,2,0.6c1.8,0.7,2.8-0.1,3.2-2.2c0.1-0.7-0.2-1.1-1.2-1.2c-1.2,0-2.1,0-2.7-0.1c-0.4-0.1-1-0.2-1.5-0.4   c0-1,0-2.5,0.3-4.3c1.7,0.4,3.5,0.5,5.2,0.5c1,0,1.4-0.5,1.3-1.5c-0.2-1-0.5-1.5-1.2-1.5c-1.9,0-3.2,0-3.8-0.2   c-0.8-0.1-1.9-0.5-3.4-1.1c0.4-0.8,0.7-1.5,0.8-2.4c0.3-1.1-0.1-2-1-2.3c-0.8-0.4-1.6-0.3-2.1,0.2   C216.2,345.7,215.3,347.1,214.3,349.4z" />	<path id="XMLID_111_" class="st2" d="M222.7,367.9l-0.1,0h0c-2.2,0-3.5-1.2-3.9-3.6c-0.2-1.3-0.7-1.8-1.7-1.8   c-0.7,0.1-1.2,0.4-1.5,0.9c-1,1.3-2.2,1.9-3.8,1.8c-2.1-0.1-3.2-0.5-3.4-1.1c-0.1-0.4,0.3-0.9,1.1-1.4c2.7-1.5,4-2.4,4.5-2.8   c-1.9-0.6-3.3-1.1-4-1.4c-0.7-0.5-1.1-1.1-1.2-2.1c-0.1-0.8,0.2-1.5,0.8-1.8c0.9-0.4,2.4-0.1,4.3,0.8c0.4,0.2,1.1,0.4,2,0.6   c0.2,0,0.4,0.1,0.5,0.1c0.3-1.3,0.6-2.8,0.6-4.6c-2.1,1.2-3.2,1.8-3.8,2c-0.1,0-0.3,0-0.4,0c-0.5,0-0.9-0.2-1.3-0.6l0,0   c-0.1-0.3,0.2-0.9,1.1-1.7c0.5-0.6,0.9-1,1.2-1.4c0.3-0.3,0.5-0.6,0.5-0.6c0.9-2,1.7-3.6,2.3-4.5c0.6-0.6,1.5-0.7,2.3-0.2   c1,0.3,1.4,1.2,1.1,2.4c-0.1,0.8-0.4,1.4-0.8,2.3c1.5,0.6,2.5,1,3.3,1.1c0.6,0.2,2,0.2,3.8,0.2c0.8,0,1.1,0.7,1.3,1.6   c0.1,0.6,0,1-0.3,1.3c-0.2,0.3-0.6,0.4-1.2,0.4c-2,0-3.6-0.2-5.1-0.5c-0.3,1.7-0.3,3.1-0.3,4.1c0.3,0.1,0.7,0.2,1.1,0.3   c0.1,0,0.3,0.1,0.4,0.1c0.6,0.1,1.5,0.1,2.7,0.1c0.6,0.1,1,0.2,1.2,0.5c0.2,0.2,0.2,0.5,0.2,0.9c-0.4,2.2-1.6,3-3.4,2.3   c-0.6-0.2-1.3-0.4-1.8-0.6l0.2,0.6c0.3,0.9,0.8,2,1.4,3.6l0.3,0.6c0.3,0.8,0.4,1.4,0.2,1.8C223.1,367.8,222.9,367.9,222.7,367.9z    M217,362.2c1.1,0,1.7,0.7,2,2.1c0.4,2.2,1.7,3.4,3.7,3.4l0.1,0c0.1,0,0.2,0,0.3-0.1c0.2-0.3,0.1-0.8-0.2-1.5l-0.3-0.6   c-0.7-1.6-1.2-2.7-1.4-3.6l-0.3-0.8l0-0.1l0.1,0c0.6,0.1,1.3,0.3,2,0.6c1.7,0.7,2.7,0,3.1-2.1c0-0.3,0-0.5-0.1-0.7   c-0.2-0.2-0.5-0.3-1-0.4c-1.2,0-2.1,0-2.7-0.1c-0.1,0-0.2-0.1-0.4-0.1c-0.4-0.1-0.8-0.2-1.2-0.3l-0.1-0.1c0-1,0-2.5,0.3-4.3   l0.1-0.1l0.1,0c1.4,0.3,3.1,0.5,5.1,0.5c0.5,0,0.8-0.1,1-0.3c0.2-0.2,0.3-0.6,0.2-1.1c-0.2-1-0.5-1.4-1.1-1.4c-2,0-3.3,0-3.9-0.2   c-0.8-0.1-1.9-0.5-3.4-1.1l-0.1-0.1l0-0.1c0.4-0.9,0.7-1.5,0.8-2.3c0.3-1.1-0.1-1.8-0.9-2.1c-0.8-0.4-1.5-0.3-2,0.2   c-0.3,0.4-1.1,1.6-2.3,4.4c0,0.1-0.1,0.2-0.6,0.7c-0.3,0.3-0.7,0.8-1.2,1.4c-1,0.9-1.1,1.3-1.1,1.4c0.3,0.3,0.7,0.5,1.1,0.5   c0.1,0,0.2,0,0.3,0c0.6-0.2,2.1-1,3.9-2l0.1,0l0.1,0.1v0.2c0,1.8-0.3,3.4-0.6,4.8l-0.1,0.1l-0.1,0c-0.2-0.1-0.5-0.1-0.7-0.2   c-0.9-0.2-1.7-0.4-2.1-0.7c-1.8-0.9-3.2-1.2-4-0.8c-0.5,0.2-0.7,0.8-0.6,1.5c0.1,0.8,0.4,1.4,1.1,1.9c0.7,0.3,2.2,0.8,4.2,1.4   l0.1,0.1l0,0.1c-0.8,0.6-2.5,1.8-4.7,3c-0.7,0.4-1,0.9-1,1.1c0.1,0.3,0.6,0.7,3.1,0.9c1.4,0.1,2.6-0.5,3.5-1.7   C215.6,362.6,216.1,362.3,217,362.2L217,362.2z" />	<path id="XMLID_114_" class="st2" d="M243.4,364.8c0.6-3.6,1.1-5.9,1.2-6.4c0.4-1.8-0.1-2.8-1.7-2.7c-0.6,0-1,0.1-1.2,0.3   c-0.7,0.7-1.1,1.1-1.2,1.2c-0.7,0.5-1.5,0.8-2.2,0.8c-1.1-0.1-1.9-0.2-2.7-0.1c-1.2,0.1-2.3-0.2-3.1-0.7l0.2-0.8   c0.3-1.4,0.1-2.3-0.5-2.5c-0.4-0.2-1.2-0.3-2.3-0.2c-0.9,0.1-1.5,1.2-2,3.2l-0.4,1.3l-0.4,1.3c-0.6,2.2-0.4,4.1,0.6,6.1   c0.7,1.2,1.6,2.3,2.7,3l0.3,0.1c2.8,1.2,5.4,1.6,7.6,1c1-0.1,1.8-0.1,2.4-0.1C241.6,369.8,242.5,368.2,243.4,364.8z M236.9,361.2   c1.4,0.3,2.4,0.5,3,0.4c0.3,0.9,0.4,1.7,0.1,2.4c-0.1,0.3-0.3,0.8-0.7,1.3c-3.4,1.5-6.2,1.3-8.3-0.5l-0.2-1.2   c0-0.7,0.3-1.8,0.7-3.4C232.2,360.5,234,360.8,236.9,361.2z" />	<path id="XMLID_117_" class="st2" d="M236,370.2c-1.6,0-3.4-0.4-5.5-1.3l-0.3-0.1c-1.1-0.7-2.1-1.7-2.8-3c-1-2-1.2-4-0.6-6.2   l0.8-2.7c0.6-2.2,1.2-3.2,2.1-3.3c1.1-0.1,1.9,0,2.4,0.2c0.5,0.2,1,0.7,0.6,2.6l-0.2,0.7c0.8,0.5,1.9,0.7,3,0.7c0.2,0,0.5,0,0.7,0   c0.5,0,1,0.1,1.6,0.1l0.4,0c0.7,0,1.4-0.3,2.1-0.8l1.2-1.2c0.2-0.2,0.7-0.3,1.3-0.3l0.2,0c0.6,0,1.1,0.2,1.4,0.5   c0.4,0.5,0.4,1.2,0.2,2.3c0,0.1,0,0.2-0.1,0.4c-0.2,0.9-0.6,3-1.1,5.9c-0.9,3.4-1.8,5-2.9,5l-0.1,0c-0.6,0-1.4,0-2.4,0.1   C237.5,370.1,236.7,370.2,236,370.2z M230.5,353.9c-0.3,0-0.5,0-0.8,0c-0.8,0.1-1.4,1.1-1.9,3.1l-0.8,2.7c-0.6,2.1-0.4,4,0.6,6   c0.7,1.3,1.6,2.2,2.7,2.9l0.3,0.1c2,0.9,3.8,1.3,5.4,1.3c0.7,0,1.5-0.1,2.1-0.3c1-0.1,1.9-0.1,2.5-0.1l0.1,0c0.9,0,1.7-1.6,2.6-4.8   c0.5-2.9,0.9-5,1.1-5.9c0-0.2,0.1-0.3,0.1-0.4c0.2-1,0.2-1.7-0.2-2.1c-0.3-0.3-0.7-0.5-1.4-0.4c-0.6,0-1,0.1-1.1,0.3l-1.2,1.2   c-0.8,0.6-1.6,0.9-2.3,0.9l-0.4,0c-0.9-0.1-1.7-0.1-2.3-0.1c-0.2,0-0.3,0-0.5,0c-1,0-2-0.3-2.7-0.8l-0.1-0.1l0.2-0.8   c0.3-1.3,0.1-2.1-0.4-2.3C231.7,354,231.2,353.9,230.5,353.9z" />	<path id="XMLID_120_" class="st2" d="M235.1,366.5c-1.6,0-3-0.5-4.2-1.6l0-0.1l-0.2-1.2c0-0.7,0.3-1.8,0.7-3.3l0-0.1l0.1-0.1l0.1,0   c0.6,0.3,2.6,0.6,5.3,1c1.2,0.3,2.1,0.4,2.7,0.4c0.1,0,0.2,0,0.3,0l0.1,0.1c0.4,1.1,0.4,1.9,0.1,2.5c-0.2,0.5-0.4,1-0.7,1.4l0,0   C237.8,366.1,236.4,366.5,235.1,366.5z M231.2,364.7c2.1,1.8,4.8,2,8.1,0.5c0.3-0.4,0.5-0.8,0.7-1.3c0.3-0.5,0.2-1.2-0.1-2.2   c-0.6,0.1-1.6-0.1-3-0.4c-2.7-0.4-4.5-0.7-5.3-1c-0.4,1.5-0.7,2.5-0.7,3.2L231.2,364.7z" />	<path id="XMLID_124_" class="st2" d="M230.5,389.2c2.1,0,3.7-0.9,5.2-2.6c0.2-0.3,0.7-1.3,1.7-3.2c0.7-1.5,1.1-3.6,1.2-6.2   c0.4-1.2,0.7-2.2,0.8-3c0.4-1.4,0.2-2.3-0.8-2.6c-1.3-0.4-2.4,0-3.2,1.3c-9.8-0.9-17.1-2.3-21.8-4.2c0.2-1.8-0.3-2.8-1.5-2.8   c-1.6,0-2.3,0.8-2.3,2.4l-0.3,1c0,0.4-0.4,1.5-0.8,3.3c-0.5,2.2-0.9,4.8-1.1,8.2C207,386.5,214.7,389.2,230.5,389.2z M233.9,376.8   l-0.6,2.6c-9.6-0.8-16.8-2.2-21.6-4c0.1-0.2,0.4-1.2,0.9-3.2C217,373.8,224.1,375.4,233.9,376.8z M230.7,386   c-0.1,0.1-1.7,0.1-4.8,0.1c-3.8,0-8.1-0.8-12.9-2.5c-1.5-0.5-2.2-2.2-2-4.9c5.7,1.8,12.8,3.3,21.3,4.4l-0.1,0.6   C231.9,385.1,231.4,385.9,230.7,386z" />	<path id="XMLID_127_" class="st2" d="M233.3,379.5L233.3,379.5c-9.6-0.8-16.9-2.2-21.6-4l-0.1-0.1l0-0.1c0-0.1,0.2-0.6,0.9-3.2   l0.1-0.1l0.1,0c4.3,1.6,11.5,3.2,21.2,4.6l0.1,0.1l0,0.1l-0.6,2.6L233.3,379.5z M211.9,375.3c4.7,1.8,11.9,3.1,21.3,3.9l0.6-2.3   c-9.6-1.4-16.7-2.9-21-4.6C212.3,373.9,212,374.9,211.9,375.3z" />	<path id="XMLID_130_" class="st2" d="M226,386.3c-3.9,0-8.1-0.8-12.9-2.5c-1.6-0.5-2.3-2.2-2.1-5.1l0.1-0.1l0.1,0   c5.5,1.8,12.5,3.2,21.2,4.4l0.1,0.1l0,0.1l-0.1,0.6c-0.3,1.5-0.9,2.2-1.6,2.4C230.5,386.3,229.6,386.3,226,386.3z M211.2,378.9   c-0.2,2.6,0.5,4.1,1.9,4.6c4.8,1.7,9,2.5,12.8,2.5c2.7,0,4.5,0,4.7-0.1l0.1,0c0.6-0.1,1.1-0.8,1.4-2.2l0.1-0.5   C223.6,382.1,216.7,380.7,211.2,378.9z" />	<path id="XMLID_133_" class="st2" d="M230.5,389.4c-11.8,0-19.1-1.6-21.9-4.6c-1-1.1-1.4-2.3-1.2-3.7c0.2-3.1,0.6-5.8,1.1-8.2   c0.2-0.8,0.4-1.4,0.5-2c0.2-0.6,0.3-1.1,0.3-1.3l0,0l0.3-1c0-1.6,0.8-2.5,2.5-2.5c0.5,0,0.9,0.2,1.2,0.5c0.4,0.5,0.6,1.2,0.4,2.3   c4.5,1.8,11.5,3.2,21.6,4.2c0.8-1.3,2-1.8,3.3-1.3c1.1,0.3,1.3,1.2,0.9,2.7c-0.1,0.8-0.4,1.7-0.8,3c-0.1,2.5-0.5,4.6-1.2,6.2   c-0.5,0.9-0.9,1.6-1.1,2.1c-0.3,0.6-0.5,0.9-0.6,1.1C234.3,388.5,232.6,389.4,230.5,389.4z M209.6,369.5c0,0.2-0.1,0.7-0.3,1.3   c-0.1,0.5-0.3,1.2-0.5,2c-0.6,2.4-0.9,5.1-1.1,8.2c-0.1,1.3,0.3,2.5,1.2,3.5c2.7,3,10,4.5,21.7,4.5c2,0,3.6-0.8,5.1-2.5   c0.1-0.1,0.3-0.5,0.6-1c0.3-0.5,0.6-1.2,1.1-2.1c0.7-1.5,1.1-3.6,1.2-6.1l0,0c0.4-1.3,0.7-2.1,0.8-3c0.4-1.4,0.2-2.2-0.7-2.4   c-1.3-0.4-2.3,0-3.1,1.3l-0.1,0.1c-10.2-1-17.3-2.3-21.8-4.2l-0.1-0.1c0.1-1.1,0-1.8-0.4-2.2c-0.2-0.3-0.6-0.4-1-0.4   c-1.5,0-2.2,0.7-2.2,2.2l0,0L209.6,369.5z" />	<path id="XMLID_134_" class="st2" d="M275.7,361c-2.2,0.8-3.8,1.3-5,1.4l-2.2-7.2c-0.9-3.1-1.5-4.9-2-5.6c-0.5-1-1.3-1.3-2.3-1   c-0.8,0.3-1.2,1.1-0.9,2.4c0.1,0.6,0.3,1.2,0.5,1.7l9.7,29.7l-11.3,3.2c-0.2,0.1-0.6,0.2-1.1,0.3c-0.3,0.2-0.5,1.1-0.6,2.7   c0,1.5,2.7,1.3,8.3-0.5c3-1,7.6-2.8,13.7-5.1c9-3.5,13.1-6.1,12.1-7.8c-0.4-0.8-1.3-1-2.7-0.6l-1.9,0.8c-0.4,0.6-3.4,2.1-8.9,4.3   c-0.8,0.3-2.3,0.9-4.7,1.7l-4.6-15.4l8.2-3.1c1.4,0,2.1-1.4,2.1-4.2c0-4.4-0.8-6.4-2.3-6c-1.1,0.4-1.5,1.4-1.3,3.4   c0.2,1.6,0.3,2.6,0.3,2.6C278.5,359.4,277.5,360.3,275.7,361z" />	<path id="XMLID_137_" class="st2" d="M262,389.7c-1.2,0-1.8-0.4-1.8-1.2c0.1-1.6,0.3-2.5,0.7-2.8l0,0c0.5-0.1,0.9-0.2,1.1-0.3   l11.2-3.2l-9.7-29.6c-0.3-0.6-0.4-1.2-0.5-1.8c-0.3-1.2,0.1-2.2,1-2.5c1.1-0.3,2,0,2.5,1.1c0.5,0.7,1.1,2.6,2,5.7l2.2,7.1   c1-0.1,2.4-0.5,4.8-1.4c1.7-0.7,2.7-1.5,3-2.3c0-0.2-0.1-1.1-0.3-2.5c-0.2-2,0.2-3.1,1.4-3.5c0.2,0,0.3-0.1,0.4-0.1   c1.4,0,2.1,2.1,2.1,6.1c0,2.9-0.8,4.3-2.2,4.3l-8.1,3l4.5,15.2c1.7-0.6,3-1.1,3.9-1.4c0.3-0.1,0.5-0.2,0.7-0.3   c5.6-2.3,8.5-3.7,8.8-4.3l0.1,0l1.9-0.8c1.5-0.4,2.5-0.2,2.9,0.7c0.2,0.3,0.2,0.7,0,1c-0.6,1.7-4.6,4-12.3,6.9   c-6.4,2.5-10.7,4.1-13.7,5.1C265.6,389.2,263.4,389.7,262,389.7z M261.1,386c-0.2,0.1-0.4,0.6-0.5,2.6c0,0.2,0,0.9,1.5,0.9   c1.3,0,3.5-0.5,6.6-1.5c3-1,7.2-2.6,13.7-5.1c7.4-2.9,11.5-5.2,12.1-6.8c0.1-0.3,0.1-0.6,0-0.8c-0.4-0.8-1.2-0.9-2.6-0.6l-1.9,0.8   c-0.5,0.6-3.3,2-8.9,4.3c-0.2,0.1-0.4,0.2-0.7,0.3c-0.9,0.3-2.2,0.9-4,1.5l-0.1,0l-0.1-0.1l-4.6-15.4l0.1-0.2l8.2-3.1l0,0   c1.3,0,2-1.4,2-4.1c0-3.8-0.6-5.9-1.8-5.9c-0.1,0-0.2,0-0.3,0c-1,0.4-1.4,1.4-1.2,3.3c0.2,1.6,0.3,2.6,0.3,2.6l0,0   c-0.2,0.9-1.3,1.7-3.1,2.5c-2.5,0.9-4,1.4-5,1.4l-0.1-0.1l-2.2-7.2c-0.9-3-1.5-4.9-2-5.6c-0.5-1-1.2-1.3-2.2-1   c-0.8,0.3-1.1,1.1-0.8,2.2c0.1,0.5,0.3,1.1,0.5,1.7l9.7,29.7l0,0.1l-0.1,0.1l-11.3,3.2C262,385.7,261.6,385.8,261.1,386z" />	<path id="XMLID_148_" class="st1" d="M173.5,259.5c0.9,0,1.9,0.2,3.1,0.5c0-0.2,0.1-0.4,0-0.6c-0.2-2.4-0.3-4.7-0.3-7   c0-10.4,2-20.3,5.8-29.4c0.7-1.6,1.4-3.2,2.2-4.7l19.4,9.6c-3.8,7.4-5.7,15.6-5.7,24.4c0,1.4,0.1,2.9,0.2,4.4   c0.7,0.1,1.4,0.3,2.1,0.5l-0.1-0.3c-0.3-0.9,0.1-1.7,1.1-2.3l0.1-0.1c0-0.8-0.1-1.6-0.1-2.3c0-8.9,1.9-16.8,5.8-23.9   c0.1-0.1,0.3-0.3,0.4-0.5c0.1-0.1,0.1-0.3,0.1-0.4c2.1-3.7,4.8-7.2,8.1-10.6c9.6-9.9,21-14.7,34.7-14.7c13.5,0,25.2,4.9,34.7,14.7   c9.7,9.9,14.4,21.5,14.4,35.4c0,0.9,0,1.8-0.1,2.7c0.7,0.5,0.9,1.1,0.8,2l-0.1,0.3c0.9-0.3,1.7-0.5,2.6-0.6   c0.1-1.5,0.2-2.9,0.2-4.3c0-8.8-1.9-17-5.7-24.4l18.2-11.8c1.2,2.2,2.2,4.4,3.2,6.8c3.9,9.3,5.8,19.2,5.8,29.4   c0,2.2-0.1,4.5-0.3,6.9c0,0.2,0,0.4,0,0.5c0.9-0.2,1.8-0.4,2.5-0.4h1.6h0.1c0.2-2.5,0.3-4.8,0.3-7.1c0-10.7-2.1-21.2-6.1-31   c-4.2-9.9-9.7-18.2-16.8-25.3c-6.9-7.1-15.3-12.9-24.9-17.1c-9.9-4.2-19.9-6.2-30.5-6.2c-10.5,0-20.8,2.1-30.6,6.2   c-9.5,4.2-17.6,9.8-24.8,17.1c-7.2,7.3-12.8,15.8-16.7,25.3c-4.1,9.6-6.1,20.1-6.1,31c0,2.3,0.1,4.7,0.3,7.1L173.5,259.5z    M313.9,213.3L295.7,225c-0.7-1.2-1.5-2.4-2.3-3.5l16.2-14.7C311.1,208.9,312.6,211,313.9,213.3z M302.9,199.1   c1.6,1.6,3.2,3.3,4.6,5.1l-16.2,14.6c-0.9-1.2-2-2.3-3-3.4l14.5-16.4L302.9,199.1z M300.3,196.6l-14.4,16.4   c-1.2-1.1-2.4-2.1-3.6-3.1l12.1-18.2C296.5,193.2,298.4,194.8,300.3,196.6z M291.7,189.7l-12.1,18.1c-1-0.7-2.1-1.4-3.2-2l9.6-19.6   C288,187.3,289.8,188.4,291.7,189.7z M221.5,182.9c9.3-3.9,19-5.9,29-5.9c10,0,19.4,1.9,28.8,5.9c1.3,0.6,2.5,1.1,3.7,1.7   l-9.6,19.5c-7-3.5-14.6-5.2-22.9-5.2c-8.3,0-16,1.7-22.9,5.2l-11.4-18.6C217.9,184.6,219.7,183.7,221.5,182.9z M213.2,187.2   l11.4,18.6c-1.2,0.7-2.4,1.5-3.6,2.3l-14.3-16.6C208.8,189.9,211,188.5,213.2,187.2z M204,193.6l14.3,16.5c-1.2,0.9-2.3,1.9-3.4,3   l-16.1-14.8C200.4,196.7,202.2,195.1,204,193.6z M196.4,200.8l16.1,14.8c-1,1.1-2,2.2-2.9,3.3l-18.1-12.2   C193,204.7,194.6,202.7,196.4,200.8z M189.4,209.5l18,12.1c-0.8,1.1-1.5,2.2-2.2,3.3l-19.4-9.7C187,213.3,188.2,211.4,189.4,209.5z   " />	<path id="XMLID_149_" class="st1" d="M319.5,281l-0.3-0.2l-0.1,0.2c-0.1,0.1-0.1,0.3-0.2,0.4c0,0.1-0.1,0.2-0.1,0.3   c-0.8,2-1.7,3.9-2.7,5.7l-20.3-13c-0.8-0.5-1.8-0.3-2.3,0.5c-0.5,0.8-0.3,1.9,0.5,2.4l20.5,13.1c-1.3,2.3-2.7,4.5-4.2,6.6   l-17.1-15.5c-0.7-0.6-1.8-0.6-2.4,0.1c-0.6,0.7-0.6,1.8,0.1,2.4l17.3,15.7c-1.5,1.9-3.1,3.7-4.8,5.4l-14.9-16.9   c-0.6-0.7-1.7-0.8-2.4-0.1c-0.7,0.6-0.8,1.7-0.1,2.4l15,17c-1.9,1.8-3.8,3.5-5.9,5.1l-12.8-19.2c-0.5-0.8-1.6-1-2.4-0.5   c-0.8,0.5-1,1.6-0.5,2.4l12.9,19.2c-1.9,1.3-3.8,2.5-5.7,3.6l-10.4-21c-0.4-0.9-1.4-1.2-2.3-0.8c-0.8,0.4-1.2,1.5-0.8,2.3   l10.4,21.1c-1.4,0.7-2.8,1.4-4.2,2c-9.2,3.9-18.9,5.9-28.9,5.9c-9.9,0-19.7-2-28.9-5.9c-2.1-0.9-4.1-1.9-6-2.9l12-19.6   c0.5-0.8,0.2-1.9-0.5-2.4c-0.8-0.5-1.8-0.3-2.3,0.6l-12.1,19.8c-2.3-1.4-4.5-2.9-6.6-4.5l14.9-17.2c0.6-0.7,0.5-1.8-0.2-2.4   c-0.7-0.6-1.8-0.6-2.4,0.2l-15,17.3c-1.8-1.5-3.5-3.1-5.2-4.8l16.7-15.4c0.7-0.6,0.7-1.7,0.1-2.4c-0.6-0.7-1.7-0.8-2.4-0.1   l-16.8,15.5c-1.8-2-3.4-4-5-6.1l18.6-12.5c0.8-0.5,1-1.6,0.5-2.4c-0.5-0.8-1.6-1-2.4-0.5l-18.7,12.6c-1.3-1.9-2.4-3.9-3.5-5.9   l21.5-10.7c0.8-0.4,1.2-1.4,0.8-2.3c-0.4-0.9-1.4-1.2-2.3-0.8l-21.6,10.7c-0.6-1.2-1.1-2.4-1.6-3.6c-0.1-0.2-0.1-0.3-0.2-0.5   c-0.1-0.2-0.1-0.3-0.2-0.5l-0.1-0.2l-0.8,0.5c-1.1,0.6-2,1.1-2.9,1.5l0.1,0.3c0.1,0.2,0.2,0.4,0.3,0.6c3.9,9.5,9.5,18,16.8,25.3   c7.4,7.5,15.5,13.1,24.9,17.1c9.8,4.1,20.1,6.2,30.6,6.2c10.5,0,20.8-2.1,30.5-6.2c2-0.9,4-1.8,5.9-2.8l0.1,0l0.1-0.1   c6.9-3.7,13.2-8.4,18.7-14.1c7.2-7.2,12.7-15.5,16.9-25.3c0.1-0.2,0.1-0.3,0.2-0.5l0.1-0.2C321.9,282.2,320.8,281.7,319.5,281z" />	<path id="XMLID_150_" class="st1" d="M203.5,271.1l1-1.7c-1.6,0.3-3.1,0.7-4.6,1.1c-5,1.2-9.8,3.3-14.6,6.2   c-5.3,3.1-8.6,4.8-10,5.3c-8.7,2.7-14,4.2-15.6,4.7c-5,1.5-10,0.3-15.5-3.6c-7.7-6.1-14.6-11.1-20.6-15.4   c-11.2-8-20.5-13.7-27.3-16.7c0.1-0.6,0.3-1.1,0.9-1.6c1.1-1,2.8-1.3,5.3-0.9c5.7,0.9,11.9,3,18.8,6.1   c10.8,4.9,19.9,11.5,27.2,19.5c1.3-0.4,1.2-1.2-0.3-2.5c-3.2-3-6.1-5.6-8.7-7.8c-4.9-4.3-7.9-6.6-9.1-6.8c-0.2-0.2-0.3-0.3-0.3-0.4   c0-0.3,0.7-0.4,2-0.4c3.4,0.1,6.4,0.7,8.8,1.6c5.5,2.2,11.4,6.6,18.1,13.1c1.4-0.3,1.7-1,1-1.8c-1-1.2-3.4-3.4-7.3-6.6   c-4.6-3.7-7.5-5.8-8.9-6l2-0.5c1.7-0.3,3.6-0.3,5.8,0c6.8,0.9,14.2,4.6,22.1,11.2c1.1-0.8,0.3-2-2.2-3.5c-2.9-1.7-2.8-2.6,0.4-2.6   c4.5,0,8.8,1.5,13.1,4.7c0.4-0.9-0.6-2.1-2.9-3.6c-2.7-1.6-2.3-2.5,1.2-2.5c1.9,0,3.3,0.1,3.9,0.2c2.4,0.6,5.3,2.1,8.7,4.5   c0.9-0.7,0.3-1.7-1.8-3.1c-1.5-0.9-2-1.7-1.5-2.4c0.4-0.6,1.3-0.8,2.9-0.8c3.8,0,7.1,1.4,9.5,4.2c1-0.5,1-1.2,0-2.2l-2.6-2.8   c-1.8-1.1-0.8-1.7,3-1.7c2.5,0,4.2,0.1,4.9,0.2c0.5,0.1,1,0.3,1.5,0.5l2.1-3.7c-0.1,0-0.2,0.1-0.3,0.1c-0.5,0.2-1,0.5-1.5,0.8   l-0.9,1c-0.1-0.1-0.3-0.2-0.6-0.2c-0.9-0.2-1.8-0.3-2.7-0.3h-2.4c-2,0-3.3,0.2-4.2,0.6c-1,0.5-1.4,1.3-1.1,2.3l0.1,0.3   c-1.5-0.5-3.1-0.7-4.8-0.7c-2,0-3.4,0.5-4.2,1.4c-0.4,0.5-0.5,1-0.4,1.6c-1.1-0.5-2.2-0.9-3.3-1.2c-1.1-0.3-2-0.4-2.8-0.4l-1.5,0.1   c-0.4,0-1,0-1.6,0.1c-0.8,0-1.4,0.2-1.8,0.6c-0.7,0.3-1,0.9-0.9,1.7c-0.7-0.2-1.4-0.4-2.2-0.6c-1.2-0.3-2.2-0.5-3.1-0.5l-2.9,0.1   c-0.7,0.1-1.2,0.3-1.7,0.6c-0.2,0.2-0.5,0.5-0.6,0.9c-6.5-4.3-12.6-6.6-18.1-6.9c-1.8-0.2-3.4-0.1-5,0.2c-0.8,0.2-1.4,0.4-1.9,0.6   l-2.1,1c-1.7-0.7-3.5-1.1-5.4-1.4c-1.8-0.1-3-0.1-3.5-0.2c-0.8,0-1.5,0-2,0.1c-0.9,0.2-1.4,0.7-1.6,1.5v0.3   c-9.1-5.1-17.7-8.3-25.9-9.7c-2.8-0.5-5.1-0.1-6.5,1.3c-0.5,0.4-0.9,1-1.1,1.6c-0.2,0.3-0.3,1-0.3,2.1l0.9,0.4   c7,3.2,16,8.7,27,16.6c6,4.3,12.9,9.3,20.7,15.4c5.7,4.2,11.3,5.5,16.7,3.8c1.7-0.5,6.9-2.1,15.7-4.7c1.2-0.4,2.9-1.2,5.1-2.4   l5.2-3.1c4.7-2.8,9.4-4.8,14.2-6.1C201.3,271.5,202.4,271.3,203.5,271.1z" />	<path id="XMLID_151_" class="st1" d="M405.4,249.7c-0.3-0.6-0.7-1.2-1.2-1.6c-1.4-1.4-3.6-1.8-6.5-1.3c-8.3,1.3-16.9,4.6-25.9,9.8   v-0.4c-0.1-0.8-0.6-1.3-1.6-1.5c-0.5-0.1-1.2-0.1-1.9-0.1c-1.4,0-2.5,0.1-3.5,0.2c-1.9,0.3-3.6,0.7-5.4,1.4l-2.2-1   c-1.7-0.8-3.9-1-6.8-0.8c-5.7,0.3-11.6,2.6-18.1,6.9c-0.2-0.4-0.4-0.7-0.7-0.9c-0.4-0.3-1-0.6-1.7-0.6c-0.3-0.1-0.7-0.1-1.3-0.1   h-1.6c-0.8,0-1.9,0.2-3,0.5c-0.8,0.2-1.6,0.4-2.2,0.6c0-0.7-0.3-1.3-0.9-1.7c-0.5-0.4-1.1-0.6-1.8-0.6c-0.8-0.1-1.3-0.1-1.6-0.1   l-1.6-0.1c-0.8,0-1.7,0.1-2.7,0.4c-1.2,0.3-2.3,0.7-3.3,1.2c0-0.6-0.1-1.1-0.4-1.6c-0.8-0.9-2.1-1.4-4.3-1.4   c-1.6,0-3.1,0.2-4.7,0.7l0.1-0.3c0.2-1-0.2-1.7-1.2-2.3c-0.7-0.4-2.1-0.6-4-0.6h-2.4c-1,0-1.9,0.1-2.9,0.3c-0.1,0-0.3,0.1-0.5,0.2   c-0.4-0.5-0.7-0.8-0.9-1c-0.4-0.3-0.9-0.6-1.5-0.8c-0.2-0.1-0.5-0.2-0.7-0.3l1.3,2.2c0.2,0.1,0.3,0.3,0.5,0.5l-0.1,0.1l0.7,1.2   c0.6-0.3,1.2-0.5,1.8-0.7c0.7-0.1,2.3-0.2,5-0.2c3.8,0,4.9,0.6,3,1.7c-0.2,0.1-1.1,1-2.7,2.8c-0.9,0.9-0.9,1.6,0,2.2   c2.4-2.8,5.7-4.2,9.5-4.2c1.6,0,2.6,0.2,3,0.8c0.4,0.6-0.1,1.4-1.6,2.4c-2,1.3-2.6,2.4-1.8,3.1c3.4-2.5,6.4-3.9,8.7-4.5   c0.7-0.1,2-0.2,4-0.2c3.4,0,3.8,0.8,1.2,2.5c-2.4,1.5-3.4,2.7-2.9,3.6c4.2-3.2,8.5-4.7,13-4.7c3.2,0,3.4,0.8,0.5,2.6   c-2.6,1.5-3.4,2.7-2.3,3.5c7.9-6.6,15.3-10.3,22.1-11.2c3.4-0.4,6-0.3,7.8,0.5c-1.4,0.2-4.4,2.3-8.9,6c-3.7,3.2-6.2,5.3-7.3,6.6   c-0.7,0.8-0.4,1.5,1,1.8c6.7-6.6,12.7-11,18.1-13.1c2.4-0.9,5.4-1.5,8.8-1.6c2.2,0,2.7,0.2,1.7,0.8c-1.1,0.2-4.2,2.5-9.1,6.8   c-5,4.5-7.9,7.2-8.7,7.8c-1.5,1.2-1.6,2.1-0.3,2.5c7.4-8,16.4-14.6,27.2-19.5c7-3.1,13.3-5.1,18.8-6.1c3.9-0.7,6,0.2,6.2,2.6   c-6.9,3.1-16,8.7-27.2,16.7c-11.2,8.4-18.1,13.5-20.7,15.4c-5.4,3.9-10.5,5.1-15.4,3.6c-10.1-3-15.3-4.6-15.7-4.7   c-1.3-0.5-4.7-2.3-9.9-5.3c-4.9-2.9-9.7-4.9-14.6-6.2c-1.7-0.4-3.4-0.8-5.1-1.1l1,1.7c1.3,0.3,2.5,0.5,3.7,0.9   c4.8,1.2,9.5,3.3,14.2,6.1l5.2,3.1c2,1.1,3.7,1.8,5.1,2.4c4.5,1.4,9.7,3.1,15.7,4.7c5.5,1.7,11,0.4,16.8-3.8c2.5-2,9.4-7,20.6-15.4   c11-7.9,20-13.5,27-16.6l1-0.4C405.6,250.8,405.5,250.1,405.4,249.7z" />	<path id="XMLID_169_" class="st2" d="M258.5,279L258.5,279L258.5,279l42.5,0l-4.6-8l0,0l-1-1.7c-9.4-1.8-19.1-1.7-29.1-0.1   c-3.7,0.6-6.4,2.5-8,5.4c-1.2,2.3-1.6,4.2-1.2,5.9c0.5,2.4,0.3,3.8-0.7,4.4c-0.5,0.4-0.9,1-1.1,2c-0.2,0.4-0.2,0.9-0.2,1.2   c-0.5,3.3-2.1,4.7-4.9,4.6c-2.8,0.1-4.6-1.3-5.1-4.6c-0.1-1.5-0.5-2.6-1.3-3.2c-0.9-0.6-1.2-2.1-0.7-4.4c0.4-1.6,0-3.6-1.2-5.9   c-1.6-3-4.3-4.8-7.9-5.4c-10.3-1.7-20.1-1.7-29.6,0.2l-1,1.7l0,0l-4.5,8h42.7l0,0c0,0.4,0,0.7,0,1.1c-0.3,1.1-0.4,2.2-0.3,3.2   c0,0.3,0.1,0.6,0.1,0.9c0.2,0.4,0.5,0.8,0.9,1c1,0.7,1.5,2,1.5,3.8c0.1,0.5,0.2,0.9,0.3,1.3c0.7,1.5,1.7,2.7,3.2,3.3   c0.6,0.3,1.2,0.5,1.9,0.5l0.9,0.1c0.3,0,0.6,0,0.8-0.1c0.7,0,1.3-0.2,1.9-0.5c0.7-0.4,1.3-0.8,1.8-1.3c0.5-0.9,0.9-2,1.1-3.3   c0-0.4,0.1-0.9,0.2-1.4c0.3-1.1,0.7-1.8,1.4-2.4c1.1-0.7,1.4-2.6,0.8-5.3C258.3,279.6,258.4,279.2,258.5,279z M282,269.4   c-0.1,0-0.2,0-0.3,0C281.8,269.4,281.9,269.4,282,269.4z M292.9,270.3L292.9,270.3L292.9,270.3z M285.6,269.6l-0.1,0L285.6,269.6z    M274.9,269.7c-0.2,0-0.5,0-0.7,0C274.4,269.7,274.7,269.7,274.9,269.7z M270.9,270.1c-0.2,0-0.3,0-0.5,0.1   C270.6,270.1,270.7,270.1,270.9,270.1z M218.5,269.4c-0.2,0-0.3,0-0.5,0C218.1,269.4,218.3,269.4,218.5,269.4z M207.2,270.4   c-0.1,0-0.2,0-0.3,0.1C207,270.4,207.1,270.4,207.2,270.4z M214.7,269.6c-0.1,0-0.2,0-0.3,0C214.5,269.6,214.6,269.6,214.7,269.6z    M210.9,269.9c-0.1,0-0.2,0-0.3,0C210.7,269.9,210.8,269.9,210.9,269.9z M221.6,269.5c0.2,0,0.4,0,0.7,0   C222,269.5,221.8,269.5,221.6,269.5z M225.3,269.6c0.2,0,0.5,0,0.7,0C225.8,269.7,225.6,269.7,225.3,269.6z M229.2,270   c0.2,0,0.4,0,0.7,0.1C229.7,270.1,229.5,270.1,229.2,270z M241.7,278.3c0,0.2,0.1,0.4,0.1,0.6C241.8,278.7,241.8,278.5,241.7,278.3   z M240.7,275.3c0.2,0.3,0.3,0.6,0.4,0.9C241,275.9,240.8,275.6,240.7,275.3z M241.2,276.4c0.1,0.3,0.2,0.5,0.3,0.8   C241.4,277,241.3,276.7,241.2,276.4z M241.5,277.3c0.1,0.3,0.1,0.5,0.2,0.8C241.6,277.8,241.6,277.6,241.5,277.3z" />	<path id="XMLID_183_" class="st2" d="M216.2,259.8c0.8-0.7-0.4-2.3-3.5-4.5l1.5-1c1.4-0.5,2.8-0.4,4.5,0.3c2.6,1.2,5.6,3.3,8.8,6.5   c1.1-0.2,0.4-1.5-2.1-3.9c-0.7-0.4-1.1-0.7-1.3-1.2c-0.3-0.9,0.5-1.6,2.7-2.4c2.2-0.6,4.6,0.1,7.1,2.2c0.8,0.7,2.7,2.8,5.7,6.2   c3.8-3.7,5.9-7.1,6.4-10.2c0.2-1.8-0.4-3.5-2-4.8c-1.9-1.2-3.1-2.1-3.6-2.6c-4.8-4.8-5.2-8.3-1.1-10.5l0.5,2.4c0.7,2,1.8,3.6,3.4,5   c-1.5-4.1-1.6-6.9-0.3-8.5c0.1-0.1,0.3-0.3,0.7-0.5c0.6-0.3,1.4-0.5,2.3-0.5l-0.1,3.6c0.3,2.7,1.1,4.9,2.5,6.7   c0.3-1,0.2-2.4-0.4-3.7c-0.7-1.6-0.9-3.3-0.8-5c0.1-2.4,1.2-3.5,3.1-3.5h0.3c1.8,0,2.9,1.1,3,3.5c0.2,1.6-0.1,3.4-0.8,5   c-0.5,1.3-0.7,2.7-0.4,3.7c1.4-1.7,2.3-4,2.5-6.7l-0.1-3.6c1.4,0,2.4,0.4,3,1c1.4,1.6,1.3,4.4-0.2,8.5c1.5-1.4,2.7-3.1,3.3-5   l0.5-2.4c4,2.2,3.6,5.6-1.1,10.5c-0.5,0.5-1.7,1.3-3.6,2.6c-1.5,1.3-2.2,3-1.9,4.8c0.4,3.1,2.5,6.5,6.3,10.2c3-3.5,5-5.5,5.8-6.2   c2.4-2.1,4.8-2.8,7-2.2c3.5,1,3.9,2.3,1.4,3.6c-2.5,2.4-3.2,3.7-2.1,3.9c0.8-0.8,1.7-1.6,2.9-2.6c2.2-1.8,4.3-3.2,5.9-3.9   c2.3-1,4.1-0.9,5.5,0.2l-1.3-2.2l0,0l0,0l-36-63.3l-36,63.5c0.1,0,0.2-0.1,0.3-0.1c-0.1,0-0.2,0.1-0.3,0.1l-2.1,3.7   C213.3,257.1,214.7,258.2,216.2,259.8z M285.4,252.4L285.4,252.4L285.4,252.4z M281.8,252.9c-0.2,0.1-0.4,0.2-0.6,0.3   C281.4,253.1,281.6,253,281.8,252.9z M283.6,252.4L283.6,252.4L283.6,252.4z M283,252.5L283,252.5L283,252.5z M282.4,252.7   c-0.1,0-0.2,0.1-0.3,0.1C282.3,252.8,282.3,252.7,282.4,252.7z M218.5,252.9c0.2,0.1,0.5,0.2,0.7,0.3   C219,253.1,218.7,253,218.5,252.9z M216.5,252.4c0.1,0,0.2,0,0.4,0.1C216.7,252.4,216.6,252.4,216.5,252.4z M217.1,252.5   c0.1,0,0.3,0.1,0.4,0.1C217.4,252.6,217.3,252.5,217.1,252.5z M217.8,252.7c0.1,0,0.3,0.1,0.4,0.2   C218.1,252.8,217.9,252.7,217.8,252.7z M216.2,252.4c-0.1,0-0.2,0-0.3,0C215.9,252.4,216,252.4,216.2,252.4z M214.9,252.5   c-0.1,0-0.2,0-0.3,0.1C214.7,252.5,214.8,252.5,214.9,252.5z M215.5,252.4c-0.1,0-0.2,0-0.3,0C215.3,252.4,215.4,252.4,215.5,252.4   z" />	<path id="XMLID_184_" class="st2" d="M284.1,259.8c1.4-1.5,2.8-2.5,4.2-3.2l-0.7-1.2C284.6,257.6,283.4,259.1,284.1,259.8z" /></g></svg>